{"glyphs":{"0":{"ha":814,"x_min":83,"x_max":731,"o":"m 365 -4 q 151 63 218 -4 q 83 278 83 131 l 83 593 q 151 807 83 740 q 365 874 218 874 l 449 874 q 664 807 597 874 q 731 592 731 740 l 731 278 q 664 63 731 131 q 449 -4 597 -4 l 365 -4 m 449 54 q 622 105 572 54 q 672 278 672 156 l 672 592 q 622 765 672 715 q 449 815 572 815 l 365 815 q 192 765 242 815 q 142 593 142 715 l 142 278 q 192 105 142 156 q 365 54 243 54 l 449 54 m 424 385 q 389 421 389 385 l 389 444 q 424 479 389 479 l 447 479 q 482 444 482 479 l 482 421 q 447 385 482 385 l 424 385 z "},"1":{"ha":476,"x_min":111,"x_max":338,"o":"m 314 879 q 338 850 338 879 l 338 29 q 308 0 338 0 q 279 29 279 0 l 279 785 l 163 669 q 142 660 153 660 q 121 669 131 660 q 111 690 111 682 q 121 711 111 699 l 278 864 q 314 879 292 879 z "},"2":{"ha":783,"x_min":82,"x_max":700,"o":"m 126 0 q 96 29 96 0 q 129 191 96 126 q 228 306 163 256 q 422 431 293 357 q 543 506 504 478 q 605 568 582 533 q 628 651 628 603 q 590 783 628 746 q 458 821 553 821 l 310 821 q 185 790 224 821 q 142 682 147 758 q 113 653 140 653 q 90 661 97 653 q 83 683 82 669 q 144 832 89 785 q 310 879 199 879 l 458 879 q 632 825 578 879 q 686 651 686 771 q 657 541 686 588 q 581 461 628 494 q 451 381 535 428 q 278 274 335 314 q 192 183 222 233 q 156 58 161 133 l 671 58 q 700 29 700 58 q 671 0 700 0 l 126 0 z "},"3":{"ha":793,"x_min":69,"x_max":710,"o":"m 310 1 q 133 51 192 1 q 69 211 75 101 l 69 214 q 99 242 69 242 q 128 213 126 242 q 174 94 133 129 q 310 60 215 60 l 468 60 q 610 100 569 60 q 651 242 651 140 q 610 383 651 343 q 468 424 569 424 l 332 424 q 303 453 303 424 q 332 482 303 482 l 475 482 q 595 523 561 483 q 629 651 629 563 q 592 783 629 746 q 460 821 554 821 l 325 821 q 201 790 239 821 q 157 682 163 758 q 128 653 156 653 q 105 661 113 653 q 99 683 97 669 q 159 832 104 785 q 325 879 214 879 l 460 879 q 633 825 579 879 q 688 651 688 771 q 578 457 688 508 q 678 378 646 431 q 710 242 710 326 q 652 59 710 117 q 468 1 594 1 l 310 1 z "},"4":{"ha":719,"x_min":42,"x_max":678,"o":"m 649 251 q 678 222 678 251 q 649 193 678 193 l 583 193 l 582 29 q 553 0 582 0 q 524 29 524 0 l 525 193 l 71 193 q 42 222 42 193 q 54 253 42 236 l 528 861 q 564 879 542 879 q 589 850 589 879 l 583 251 l 649 251 m 126 251 l 525 251 l 531 771 l 126 251 z "},"5":{"ha":793,"x_min":83,"x_max":710,"o":"m 324 0 q 147 50 206 0 q 83 210 89 100 l 83 213 q 113 240 83 240 q 142 211 140 240 q 188 93 147 128 q 324 58 229 58 l 468 58 q 610 99 569 58 q 651 242 651 140 l 651 338 q 610 480 651 439 q 468 521 569 521 l 365 521 q 175 469 226 521 q 149 456 161 456 q 136 458 144 456 l 131 460 q 106 492 106 467 l 106 850 q 135 879 106 879 l 671 879 q 700 850 700 879 q 671 821 700 821 l 164 821 l 164 536 q 365 579 233 579 l 468 579 q 652 522 594 579 q 710 338 710 464 l 710 242 q 652 58 710 115 q 468 0 594 0 l 324 0 z "},"6":{"ha":794,"x_min":83,"x_max":711,"o":"m 325 1 q 141 59 199 1 q 83 242 83 117 l 83 651 q 138 825 83 771 q 311 879 193 879 l 483 879 q 649 832 594 879 q 710 683 704 785 l 710 681 q 702 660 710 667 q 682 653 694 653 q 651 682 654 653 q 608 790 646 758 q 483 821 569 821 l 311 821 q 180 783 218 821 q 142 651 142 746 l 142 483 q 209 555 164 532 q 325 578 254 578 l 469 578 q 653 520 596 578 q 711 336 711 463 l 711 243 q 653 59 711 117 q 469 1 596 1 l 325 1 m 469 60 q 612 101 571 60 q 653 243 653 142 l 653 336 q 612 478 653 438 q 469 519 571 519 l 325 519 q 183 479 224 519 q 142 338 142 439 l 142 242 q 183 100 142 140 q 325 60 224 60 l 469 60 z "},"7":{"ha":635,"x_min":42,"x_max":593,"o":"m 218 0 q 189 31 189 0 q 206 253 190 167 q 263 405 221 339 q 388 528 306 471 q 499 647 467 583 q 535 821 532 711 l 71 821 q 42 850 42 821 q 71 879 42 879 l 564 879 q 593 850 593 879 q 555 628 593 711 q 421 481 517 546 q 315 379 351 432 q 264 247 279 326 q 247 31 249 168 q 218 0 247 0 z "},"8":{"ha":808,"x_min":83,"x_max":725,"o":"m 607 456 q 725 240 725 407 q 667 58 725 115 q 483 0 610 0 l 325 0 q 141 58 199 0 q 83 240 83 115 q 113 379 83 326 q 206 457 143 432 q 113 651 113 510 q 167 825 113 771 q 340 879 222 879 l 475 879 q 649 825 594 879 q 703 651 703 771 q 607 456 703 507 m 340 821 q 209 783 247 821 q 171 651 171 746 q 209 519 171 557 q 342 481 247 481 l 503 482 q 612 522 579 482 q 644 651 644 563 q 607 783 644 746 q 475 821 569 821 l 340 821 m 483 58 q 626 99 585 58 q 667 240 667 139 q 626 382 667 342 q 483 422 585 422 l 325 422 q 183 382 224 422 q 142 240 142 342 q 183 99 142 139 q 325 58 224 58 l 483 58 z "},"9":{"ha":794,"x_min":83,"x_max":711,"o":"m 469 878 q 653 820 596 878 q 711 638 711 763 l 711 228 q 657 55 711 110 q 483 0 603 0 l 311 0 q 145 47 200 0 q 85 196 90 94 l 85 199 q 92 219 85 213 q 113 226 100 226 q 143 197 142 226 q 187 90 149 121 q 311 58 225 58 l 483 58 q 615 97 578 58 q 653 228 653 135 l 653 396 q 585 324 631 347 q 469 301 540 301 l 325 301 q 141 359 199 301 q 83 543 83 417 l 83 636 q 141 820 83 763 q 325 878 199 878 l 469 878 m 325 819 q 183 778 224 819 q 142 636 142 738 l 142 543 q 183 401 142 442 q 325 360 224 360 l 469 360 q 612 400 571 360 q 653 542 653 440 l 653 638 q 612 779 653 739 q 469 819 571 819 l 325 819 z "},"\u0000":{"ha":0,"x_min":0,"x_max":0,"o":""},"\r":{"ha":319,"x_min":0,"x_max":0,"o":""}," ":{"ha":319,"x_min":0,"x_max":0,"o":""},"A":{"ha":829,"x_min":28,"x_max":801,"o":"m 797 42 q 801 26 801 33 q 782 3 801 11 q 768 0 774 0 q 744 18 753 0 l 646 250 q 632 249 642 249 l 194 249 q 185 250 188 249 l 85 18 q 60 0 76 0 q 46 3 57 0 q 28 28 28 11 q 31 42 28 31 l 379 857 q 413 879 388 879 l 417 879 q 450 857 440 879 l 797 42 m 210 307 l 621 307 l 417 788 l 210 307 z "},"Á":{"ha":829,"x_min":28,"x_max":801,"o":"m 797 42 q 801 26 801 33 q 782 3 801 11 q 768 0 774 0 q 744 18 753 0 l 646 250 q 632 249 642 249 l 194 249 q 185 250 188 249 l 85 18 q 60 0 76 0 q 46 3 57 0 q 28 28 28 11 q 31 42 28 31 l 379 857 q 413 879 388 879 l 417 879 q 450 857 440 879 l 797 42 m 210 307 l 621 307 l 417 788 l 210 307 m 396 965 q 385 988 385 975 q 392 1007 385 999 l 517 1154 q 539 1167 526 1167 q 558 1158 550 1167 q 569 1136 569 1149 q 563 1117 569 1125 l 438 969 q 415 957 426 957 q 396 965 404 957 z "},"Ă":{"ha":829,"x_min":28,"x_max":801,"o":"m 797 42 q 801 26 801 33 q 782 3 801 11 q 768 0 774 0 q 744 18 753 0 l 646 250 q 632 249 642 249 l 194 249 q 185 250 188 249 l 85 18 q 60 0 76 0 q 46 3 57 0 q 28 28 28 11 q 31 42 28 31 l 379 857 q 413 879 388 879 l 417 879 q 450 857 440 879 l 797 42 m 210 307 l 621 307 l 417 788 l 210 307 m 411 960 q 287 1003 329 960 q 244 1128 244 1046 l 244 1131 q 274 1160 244 1160 q 303 1131 303 1160 l 303 1128 q 329 1043 303 1069 q 414 1017 356 1017 q 499 1044 474 1018 q 525 1128 525 1069 l 525 1131 q 554 1160 525 1160 q 583 1131 583 1160 l 583 1128 q 411 960 583 960 z "},"Ắ":{"ha":829,"x_min":28,"x_max":801,"o":"m 797 42 q 801 26 801 33 q 782 3 801 11 q 768 0 774 0 q 744 18 753 0 l 646 250 q 632 249 642 249 l 194 249 q 185 250 188 249 l 85 18 q 60 0 76 0 q 46 3 57 0 q 28 28 28 11 q 31 42 28 31 l 379 857 q 413 879 388 879 l 417 879 q 450 857 440 879 l 797 42 m 210 307 l 621 307 l 417 788 l 210 307 m 411 960 q 287 1003 329 960 q 244 1128 244 1046 l 244 1131 q 274 1160 244 1160 q 303 1131 303 1160 l 303 1128 q 329 1043 303 1069 q 414 1017 356 1017 q 499 1044 474 1018 q 525 1128 525 1069 l 525 1131 q 554 1160 525 1160 q 583 1131 583 1160 l 583 1128 q 411 960 583 960 m 389 1143 q 378 1165 378 1153 q 385 1185 378 1176 l 510 1332 q 532 1344 519 1344 q 551 1336 543 1344 q 563 1314 563 1326 q 556 1294 563 1303 l 431 1147 q 408 1135 419 1135 q 389 1143 397 1135 z "},"Ặ":{"ha":829,"x_min":28,"x_max":801,"o":"m 797 42 q 801 26 801 33 q 782 3 801 11 q 768 0 774 0 q 744 18 753 0 l 646 250 q 632 249 642 249 l 194 249 q 185 250 188 249 l 85 18 q 60 0 76 0 q 46 3 57 0 q 28 28 28 11 q 31 42 28 31 l 379 857 q 413 879 388 879 l 417 879 q 450 857 440 879 l 797 42 m 210 307 l 621 307 l 417 788 l 210 307 m 401 -208 q 367 -172 367 -208 l 367 -149 q 401 -114 367 -114 l 425 -114 q 460 -149 460 -114 l 460 -172 q 425 -208 460 -208 l 401 -208 m 411 960 q 287 1003 329 960 q 244 1128 244 1046 l 244 1131 q 274 1160 244 1160 q 303 1131 303 1160 l 303 1128 q 329 1043 303 1069 q 414 1017 356 1017 q 499 1044 474 1018 q 525 1128 525 1069 l 525 1131 q 554 1160 525 1160 q 583 1131 583 1160 l 583 1128 q 411 960 583 960 z "},"Ằ":{"ha":829,"x_min":28,"x_max":801,"o":"m 797 42 q 801 26 801 33 q 782 3 801 11 q 768 0 774 0 q 744 18 753 0 l 646 250 q 632 249 642 249 l 194 249 q 185 250 188 249 l 85 18 q 60 0 76 0 q 46 3 57 0 q 28 28 28 11 q 31 42 28 31 l 379 857 q 413 879 388 879 l 417 879 q 450 857 440 879 l 797 42 m 210 307 l 621 307 l 417 788 l 210 307 m 411 960 q 287 1003 329 960 q 244 1128 244 1046 l 244 1131 q 274 1160 244 1160 q 303 1131 303 1160 l 303 1128 q 329 1043 303 1069 q 414 1017 356 1017 q 499 1044 474 1018 q 525 1128 525 1069 l 525 1131 q 554 1160 525 1160 q 583 1131 583 1160 l 583 1128 q 411 960 583 960 m 451 1143 q 432 1135 443 1135 q 410 1147 419 1135 l 285 1294 q 278 1314 278 1303 q 289 1336 278 1326 q 308 1344 297 1344 q 331 1332 319 1344 l 456 1185 q 463 1165 463 1176 q 451 1143 463 1153 z "},"Ẳ":{"ha":829,"x_min":28,"x_max":801,"o":"m 797 42 q 801 26 801 33 q 782 3 801 11 q 768 0 774 0 q 744 18 753 0 l 646 250 q 632 249 642 249 l 194 249 q 185 250 188 249 l 85 18 q 60 0 76 0 q 46 3 57 0 q 28 28 28 11 q 31 42 28 31 l 379 857 q 413 879 388 879 l 417 879 q 450 857 440 879 l 797 42 m 210 307 l 621 307 l 417 788 l 210 307 m 411 960 q 287 1003 329 960 q 244 1128 244 1046 l 244 1131 q 274 1160 244 1160 q 303 1131 303 1160 l 303 1128 q 329 1043 303 1069 q 414 1017 356 1017 q 499 1044 474 1018 q 525 1128 525 1069 l 525 1131 q 554 1160 525 1160 q 583 1131 583 1160 l 583 1128 q 411 960 583 960 m 414 1108 q 385 1138 385 1108 q 403 1197 385 1176 q 450 1236 421 1218 q 479 1258 472 1250 q 486 1279 486 1265 q 474 1324 486 1313 q 429 1336 463 1336 q 384 1324 396 1336 q 372 1279 372 1313 q 343 1250 372 1250 q 314 1279 314 1250 q 429 1394 314 1394 q 544 1279 544 1394 q 527 1224 544 1243 q 481 1186 510 1204 q 450 1162 457 1171 q 443 1138 443 1153 q 414 1108 443 1108 z "},"Ẵ":{"ha":829,"x_min":28,"x_max":801,"o":"m 797 42 q 801 26 801 33 q 782 3 801 11 q 768 0 774 0 q 744 18 753 0 l 646 250 q 632 249 642 249 l 194 249 q 185 250 188 249 l 85 18 q 60 0 76 0 q 46 3 57 0 q 28 28 28 11 q 31 42 28 31 l 379 857 q 413 879 388 879 l 417 879 q 450 857 440 879 l 797 42 m 210 307 l 621 307 l 417 788 l 210 307 m 406 960 q 281 1003 324 960 q 239 1128 239 1046 l 239 1131 q 268 1160 239 1160 q 297 1131 297 1160 l 297 1128 q 324 1043 297 1069 q 408 1017 350 1017 q 494 1044 468 1018 q 519 1128 519 1069 l 519 1131 q 549 1160 519 1160 q 578 1131 578 1160 l 578 1128 q 406 960 578 960 m 472 1208 q 428 1221 444 1208 q 389 1258 411 1233 q 349 1289 367 1289 q 323 1277 332 1289 q 297 1229 314 1265 q 269 1208 288 1208 q 244 1222 253 1208 q 242 1247 236 1236 q 289 1324 265 1300 q 349 1347 313 1347 q 394 1334 376 1347 q 431 1297 413 1321 q 453 1274 443 1282 q 472 1267 463 1267 q 498 1280 488 1267 q 519 1326 508 1293 q 547 1347 526 1347 q 572 1334 564 1347 q 575 1308 579 1321 q 535 1235 561 1261 q 472 1208 508 1208 z "},"Â":{"ha":829,"x_min":28,"x_max":801,"o":"m 797 42 q 801 26 801 33 q 782 3 801 11 q 768 0 774 0 q 744 18 753 0 l 646 250 q 632 249 642 249 l 194 249 q 185 250 188 249 l 85 18 q 60 0 76 0 q 46 3 57 0 q 28 28 28 11 q 31 42 28 31 l 379 857 q 413 879 388 879 l 417 879 q 450 857 440 879 l 797 42 m 210 307 l 621 307 l 417 788 l 210 307 m 243 969 q 222 978 231 969 q 214 999 214 986 q 225 1021 214 1013 l 365 1139 q 401 1151 382 1151 l 421 1151 q 457 1139 440 1151 l 597 1021 q 608 999 608 1013 q 600 978 608 986 q 579 969 592 969 q 560 976 569 969 l 419 1093 l 403 1093 l 263 976 q 243 969 253 969 z "},"Ấ":{"ha":829,"x_min":28,"x_max":801,"o":"m 797 42 q 801 26 801 33 q 782 3 801 11 q 768 0 774 0 q 744 18 753 0 l 646 250 q 632 249 642 249 l 194 249 q 185 250 188 249 l 85 18 q 60 0 76 0 q 46 3 57 0 q 28 28 28 11 q 31 42 28 31 l 379 857 q 413 879 388 879 l 417 879 q 450 857 440 879 l 797 42 m 210 307 l 621 307 l 417 788 l 210 307 m 542 1106 q 521 1114 529 1106 q 513 1135 513 1122 q 519 1154 513 1144 l 615 1267 q 638 1278 624 1278 q 658 1269 650 1278 q 667 1249 667 1261 q 660 1229 667 1239 l 564 1117 q 542 1106 556 1106 m 250 969 q 229 978 238 969 q 221 999 221 986 q 232 1021 221 1013 l 372 1139 q 408 1151 389 1151 l 428 1151 q 464 1139 447 1151 l 604 1021 q 615 999 615 1013 q 607 978 615 986 q 586 969 599 969 q 567 976 576 969 l 426 1093 l 410 1093 l 269 976 q 250 969 260 969 z "},"Ậ":{"ha":829,"x_min":28,"x_max":801,"o":"m 797 42 q 801 26 801 33 q 782 3 801 11 q 768 0 774 0 q 744 18 753 0 l 646 250 q 632 249 642 249 l 194 249 q 185 250 188 249 l 85 18 q 60 0 76 0 q 46 3 57 0 q 28 28 28 11 q 31 42 28 31 l 379 857 q 413 879 388 879 l 417 879 q 450 857 440 879 l 797 42 m 210 307 l 621 307 l 417 788 l 210 307 m 401 -208 q 367 -172 367 -208 l 367 -149 q 401 -114 367 -114 l 425 -114 q 460 -149 460 -114 l 460 -172 q 425 -208 460 -208 l 401 -208 m 243 969 q 222 978 231 969 q 214 999 214 986 q 225 1021 214 1013 l 365 1139 q 401 1151 382 1151 l 421 1151 q 457 1139 440 1151 l 597 1021 q 608 999 608 1013 q 600 978 608 986 q 579 969 592 969 q 560 976 569 969 l 419 1093 l 403 1093 l 263 976 q 243 969 253 969 z "},"Ầ":{"ha":829,"x_min":28,"x_max":801,"o":"m 797 42 q 801 26 801 33 q 782 3 801 11 q 768 0 774 0 q 744 18 753 0 l 646 250 q 632 249 642 249 l 194 249 q 185 250 188 249 l 85 18 q 60 0 76 0 q 46 3 57 0 q 28 28 28 11 q 31 42 28 31 l 379 857 q 413 879 388 879 l 417 879 q 450 857 440 879 l 797 42 m 210 307 l 621 307 l 417 788 l 210 307 m 258 1106 q 236 1117 244 1106 l 140 1229 q 133 1249 133 1239 q 142 1269 133 1261 q 163 1278 150 1278 q 185 1267 176 1278 l 281 1154 q 288 1135 288 1144 q 279 1114 288 1122 q 258 1106 271 1106 m 256 969 q 235 978 243 969 q 226 999 226 986 q 238 1021 226 1013 l 378 1139 q 414 1151 394 1151 l 433 1151 q 469 1139 453 1151 l 610 1021 q 621 999 621 1013 q 613 978 621 986 q 592 969 604 969 q 572 976 582 969 l 432 1093 l 415 1093 l 275 976 q 256 969 265 969 z "},"Ẩ":{"ha":829,"x_min":28,"x_max":801,"o":"m 797 42 q 801 26 801 33 q 782 3 801 11 q 768 0 774 0 q 744 18 753 0 l 646 250 q 632 249 642 249 l 194 249 q 185 250 188 249 l 85 18 q 60 0 76 0 q 46 3 57 0 q 28 28 28 11 q 31 42 28 31 l 379 857 q 413 879 388 879 l 417 879 q 450 857 440 879 l 797 42 m 210 307 l 621 307 l 417 788 l 210 307 m 244 969 q 224 978 232 969 q 215 999 215 986 q 226 1021 215 1013 l 367 1139 q 403 1151 383 1151 l 422 1151 q 458 1139 442 1151 l 599 1021 q 610 999 610 1013 q 601 978 610 986 q 581 969 593 969 q 561 976 571 969 l 421 1093 l 404 1093 l 264 976 q 244 969 254 969 m 542 1096 q 513 1125 513 1096 q 531 1185 513 1164 q 578 1224 549 1206 q 607 1245 600 1238 q 614 1267 614 1253 q 602 1312 614 1300 q 557 1324 590 1324 q 512 1312 524 1324 q 500 1267 500 1300 q 471 1238 500 1238 q 442 1267 442 1238 q 557 1382 442 1382 q 672 1267 672 1382 q 655 1211 672 1231 q 608 1174 638 1192 q 578 1149 585 1158 q 571 1125 571 1140 q 542 1096 571 1096 z "},"Ẫ":{"ha":829,"x_min":28,"x_max":801,"o":"m 797 42 q 801 26 801 33 q 782 3 801 11 q 768 0 774 0 q 744 18 753 0 l 646 250 q 632 249 642 249 l 194 249 q 185 250 188 249 l 85 18 q 60 0 76 0 q 46 3 57 0 q 28 28 28 11 q 31 42 28 31 l 379 857 q 413 879 388 879 l 417 879 q 450 857 440 879 l 797 42 m 210 307 l 621 307 l 417 788 l 210 307 m 247 969 q 226 978 235 969 q 218 999 218 986 q 229 1021 218 1013 l 369 1139 q 406 1151 386 1151 l 425 1151 q 461 1139 444 1151 l 601 1021 q 613 999 613 1013 q 604 978 613 986 q 583 969 596 969 q 564 976 574 969 l 424 1093 l 407 1093 l 267 976 q 247 969 257 969 m 499 1175 q 443 1189 465 1175 q 400 1225 421 1203 q 368 1252 381 1244 q 335 1260 356 1260 q 297 1247 310 1260 q 271 1196 283 1233 q 260 1181 268 1186 q 243 1175 253 1175 q 218 1189 226 1175 q 215 1214 210 1203 q 263 1294 235 1269 q 335 1318 290 1318 q 395 1303 371 1318 q 442 1265 419 1289 q 472 1240 461 1246 q 499 1233 483 1233 q 538 1248 522 1233 q 564 1297 554 1263 q 593 1318 571 1318 q 616 1305 608 1318 q 619 1281 624 1292 q 571 1201 600 1228 q 499 1175 542 1175 z "},"Ȁ":{"ha":829,"x_min":28,"x_max":801,"o":"m 199 1114 q 192 1132 192 1124 q 203 1151 192 1143 q 219 1158 210 1158 q 240 1147 233 1158 l 353 1015 q 360 997 360 1006 q 349 978 360 989 q 331 969 340 969 q 311 981 322 969 l 199 1114 m 351 1114 q 344 1132 344 1124 q 356 1151 344 1143 q 372 1158 363 1158 q 393 1147 386 1158 l 506 1015 q 513 997 513 1006 q 501 978 513 989 q 483 969 493 969 q 464 981 475 969 l 351 1114 m 797 42 q 801 26 801 33 q 782 3 801 11 q 768 0 774 0 q 744 18 753 0 l 646 250 q 632 249 642 249 l 194 249 q 185 250 188 249 l 85 18 q 60 0 76 0 q 46 3 57 0 q 28 28 28 11 q 31 42 28 31 l 379 857 q 413 879 388 879 l 417 879 q 450 857 440 879 l 797 42 m 210 307 l 621 307 l 417 788 l 210 307 z "},"Ä":{"ha":829,"x_min":28,"x_max":801,"o":"m 797 42 q 801 26 801 33 q 782 3 801 11 q 768 0 774 0 q 744 18 753 0 l 646 250 q 632 249 642 249 l 194 249 q 185 250 188 249 l 85 18 q 60 0 76 0 q 46 3 57 0 q 28 28 28 11 q 31 42 28 31 l 379 857 q 413 879 388 879 l 417 879 q 450 857 440 879 l 797 42 m 210 307 l 621 307 l 417 788 l 210 307 m 303 1001 q 268 1038 268 1001 l 268 1061 q 303 1096 268 1096 l 326 1096 q 361 1061 361 1096 l 361 1038 q 326 1001 361 1001 l 303 1001 m 501 1001 q 467 1038 467 1001 l 467 1061 q 501 1096 467 1096 l 525 1096 q 560 1061 560 1096 l 560 1038 q 525 1001 560 1001 l 501 1001 z "},"Ạ":{"ha":829,"x_min":28,"x_max":801,"o":"m 797 42 q 801 26 801 33 q 782 3 801 11 q 768 0 774 0 q 744 18 753 0 l 646 250 q 632 249 642 249 l 194 249 q 185 250 188 249 l 85 18 q 60 0 76 0 q 46 3 57 0 q 28 28 28 11 q 31 42 28 31 l 379 857 q 413 879 388 879 l 417 879 q 450 857 440 879 l 797 42 m 210 307 l 621 307 l 417 788 l 210 307 m 401 -208 q 367 -172 367 -208 l 367 -149 q 401 -114 367 -114 l 425 -114 q 460 -149 460 -114 l 460 -172 q 425 -208 460 -208 l 401 -208 z "},"À":{"ha":829,"x_min":28,"x_max":801,"o":"m 797 42 q 801 26 801 33 q 782 3 801 11 q 768 0 774 0 q 744 18 753 0 l 646 250 q 632 249 642 249 l 194 249 q 185 250 188 249 l 85 18 q 60 0 76 0 q 46 3 57 0 q 28 28 28 11 q 31 42 28 31 l 379 857 q 413 879 388 879 l 417 879 q 450 857 440 879 l 797 42 m 210 307 l 621 307 l 417 788 l 210 307 m 453 965 q 433 957 444 957 q 411 969 421 957 l 286 1117 q 279 1136 279 1125 q 290 1158 279 1149 q 310 1167 299 1167 q 332 1154 321 1167 l 457 1007 q 464 988 464 999 q 453 965 464 975 z "},"Ả":{"ha":829,"x_min":28,"x_max":801,"o":"m 797 42 q 801 26 801 33 q 782 3 801 11 q 768 0 774 0 q 744 18 753 0 l 646 250 q 632 249 642 249 l 194 249 q 185 250 188 249 l 85 18 q 60 0 76 0 q 46 3 57 0 q 28 28 28 11 q 31 42 28 31 l 379 857 q 413 879 388 879 l 417 879 q 450 857 440 879 l 797 42 m 210 307 l 621 307 l 417 788 l 210 307 m 414 958 q 385 988 385 958 q 403 1047 385 1026 q 450 1086 421 1068 q 479 1108 472 1100 q 486 1129 486 1115 q 474 1174 486 1163 q 429 1186 463 1186 q 384 1174 396 1186 q 372 1129 372 1163 q 343 1100 372 1100 q 314 1129 314 1100 q 429 1244 314 1244 q 544 1129 544 1244 q 527 1074 544 1093 q 481 1036 510 1054 q 450 1012 457 1021 q 443 988 443 1003 q 414 958 443 958 z "},"Ȃ":{"ha":829,"x_min":28,"x_max":801,"o":"m 797 42 q 801 26 801 33 q 782 3 801 11 q 768 0 774 0 q 744 18 753 0 l 646 250 q 632 249 642 249 l 194 249 q 185 250 188 249 l 85 18 q 60 0 76 0 q 46 3 57 0 q 28 28 28 11 q 31 42 28 31 l 379 857 q 413 879 388 879 l 417 879 q 450 857 440 879 l 797 42 m 210 307 l 621 307 l 417 788 l 210 307 m 411 1167 q 583 999 583 1167 l 583 996 q 554 967 583 967 q 525 996 525 967 l 525 999 q 499 1083 525 1057 q 414 1110 474 1108 q 329 1083 356 1110 q 303 999 303 1057 l 303 996 q 274 967 303 967 q 244 996 244 967 l 244 999 q 287 1124 244 1081 q 411 1167 329 1167 z "},"Ā":{"ha":829,"x_min":28,"x_max":801,"o":"m 797 42 q 801 26 801 33 q 782 3 801 11 q 768 0 774 0 q 744 18 753 0 l 646 250 q 632 249 642 249 l 194 249 q 185 250 188 249 l 85 18 q 60 0 76 0 q 46 3 57 0 q 28 28 28 11 q 31 42 28 31 l 379 857 q 413 879 388 879 l 417 879 q 450 857 440 879 l 797 42 m 210 307 l 621 307 l 417 788 l 210 307 m 239 1050 q 210 1079 210 1050 q 239 1108 210 1108 l 590 1108 q 619 1079 619 1108 q 590 1050 619 1050 l 239 1050 z "},"Ą":{"ha":829,"x_min":28,"x_max":900,"o":"m 871 -128 q 892 -136 883 -128 q 900 -157 900 -144 q 892 -178 900 -169 q 833 -219 865 -204 q 768 -233 800 -233 q 681 -202 717 -233 q 646 -124 646 -171 q 676 -42 646 -81 l 736 36 l 646 250 q 632 249 642 249 l 194 249 q 185 250 188 249 l 85 18 q 60 0 76 0 q 46 3 57 0 q 28 28 28 11 q 31 42 28 31 l 379 857 q 413 879 388 879 l 417 879 q 450 857 440 879 l 797 42 q 801 26 801 33 q 788 6 801 14 l 724 -78 q 704 -124 704 -104 q 722 -160 704 -146 q 768 -175 740 -175 q 850 -136 811 -175 q 871 -128 858 -128 m 210 307 l 621 307 l 417 788 l 210 307 z "},"Å":{"ha":829,"x_min":28,"x_max":801,"o":"m 797 42 q 801 26 801 33 q 782 3 801 11 q 768 0 774 0 q 744 18 753 0 l 646 250 q 632 249 642 249 l 194 249 q 185 250 188 249 l 85 18 q 60 0 76 0 q 46 3 57 0 q 28 28 28 11 q 31 42 28 31 l 379 857 q 413 879 388 879 l 417 879 q 450 857 440 879 l 797 42 m 210 307 l 621 307 l 417 788 l 210 307 m 406 965 q 327 992 354 965 q 300 1071 300 1019 q 327 1149 300 1122 q 406 1176 354 1176 q 484 1149 457 1176 q 511 1071 511 1122 q 484 992 511 1019 q 406 965 457 965 m 406 1024 q 442 1034 432 1024 q 453 1071 453 1044 q 442 1108 453 1097 q 406 1118 432 1118 q 369 1108 379 1118 q 358 1071 358 1097 q 369 1034 358 1044 q 406 1024 379 1024 z "},"Ǻ":{"ha":829,"x_min":28,"x_max":801,"o":"m 797 42 q 801 26 801 33 q 782 3 801 11 q 768 0 774 0 q 744 18 753 0 l 646 250 q 632 249 642 249 l 194 249 q 185 250 188 249 l 85 18 q 60 0 76 0 q 46 3 57 0 q 28 28 28 11 q 31 42 28 31 l 379 857 q 413 879 388 879 l 417 879 q 450 857 440 879 l 797 42 m 210 307 l 621 307 l 417 788 l 210 307 m 406 965 q 327 992 354 965 q 300 1071 300 1019 q 327 1149 300 1122 q 406 1176 354 1176 q 484 1149 457 1176 q 511 1071 511 1122 q 484 992 511 1019 q 406 965 457 965 m 406 1024 q 442 1034 432 1024 q 453 1071 453 1044 q 442 1108 453 1097 q 406 1118 432 1118 q 369 1108 379 1118 q 358 1071 358 1097 q 369 1034 358 1044 q 406 1024 379 1024 m 375 1271 q 364 1293 364 1281 q 371 1313 364 1304 l 496 1460 q 518 1472 506 1472 q 538 1464 529 1472 q 549 1442 549 1454 q 542 1422 549 1431 l 417 1275 q 394 1263 406 1263 q 375 1271 383 1263 z "},"Ã":{"ha":829,"x_min":28,"x_max":801,"o":"m 797 42 q 801 26 801 33 q 782 3 801 11 q 768 0 774 0 q 744 18 753 0 l 646 250 q 632 249 642 249 l 194 249 q 185 250 188 249 l 85 18 q 60 0 76 0 q 46 3 57 0 q 28 28 28 11 q 31 42 28 31 l 379 857 q 413 879 388 879 l 417 879 q 450 857 440 879 l 797 42 m 210 307 l 621 307 l 417 788 l 210 307 m 496 1001 q 440 1015 463 1001 q 397 1051 418 1029 q 365 1078 378 1071 q 332 1086 353 1086 q 294 1073 307 1086 q 268 1022 281 1060 q 258 1007 265 1013 q 240 1001 250 1001 q 215 1015 224 1001 q 213 1040 207 1029 q 260 1120 232 1096 q 332 1144 288 1144 q 392 1130 368 1144 q 439 1092 417 1115 q 469 1066 458 1072 q 496 1060 481 1060 q 535 1074 519 1060 q 561 1124 551 1089 q 590 1144 568 1144 q 613 1131 606 1144 q 617 1107 621 1118 q 568 1028 597 1054 q 496 1001 539 1001 z "},"Æ":{"ha":1135,"x_min":28,"x_max":1086,"o":"m 586 0 q 557 29 557 0 l 557 249 l 217 250 l 85 15 q 61 -1 75 -1 q 44 4 56 -1 q 28 28 28 15 q 33 44 28 33 l 493 858 q 526 879 503 879 l 1057 879 q 1086 850 1086 879 q 1057 821 1086 821 l 615 821 l 615 475 l 893 475 q 922 446 922 475 q 893 417 922 417 l 615 417 l 615 58 l 1057 58 q 1086 29 1086 58 q 1057 0 1086 0 l 586 0 m 249 307 l 557 307 l 557 821 l 538 821 l 249 307 z "},"Ǽ":{"ha":1135,"x_min":28,"x_max":1086,"o":"m 586 0 q 557 29 557 0 l 557 249 l 217 250 l 85 15 q 61 -1 75 -1 q 44 4 56 -1 q 28 28 28 15 q 33 44 28 33 l 493 858 q 526 879 503 879 l 1057 879 q 1086 850 1086 879 q 1057 821 1086 821 l 615 821 l 615 475 l 893 475 q 922 446 922 475 q 893 417 922 417 l 615 417 l 615 58 l 1057 58 q 1086 29 1086 58 q 1057 0 1086 0 l 586 0 m 249 307 l 557 307 l 557 821 l 538 821 l 249 307 m 667 965 q 656 988 656 975 q 663 1007 656 999 l 788 1154 q 810 1167 797 1167 q 829 1158 821 1167 q 840 1136 840 1149 q 833 1117 840 1125 l 708 969 q 686 957 697 957 q 667 965 675 957 z "},"B":{"ha":838,"x_min":125,"x_max":768,"o":"m 643 489 q 768 275 768 443 l 768 232 q 709 58 768 117 q 535 0 650 0 l 154 0 q 125 29 125 0 l 125 850 q 154 879 125 879 l 517 879 q 666 830 615 879 q 717 683 717 781 l 717 646 q 643 489 717 531 m 183 506 l 535 506 l 538 506 l 546 507 q 631 545 604 511 q 658 646 658 579 l 658 683 q 624 788 658 756 q 517 821 590 821 l 183 821 l 183 506 m 710 275 q 668 406 710 365 q 535 447 626 447 l 183 447 l 183 58 l 535 58 q 668 100 626 58 q 710 232 710 142 l 710 275 z "},"C":{"ha":910,"x_min":111,"x_max":815,"o":"m 393 0 q 178 67 246 0 q 111 282 111 135 l 111 597 q 178 813 111 746 q 392 879 244 879 l 560 879 q 747 826 688 879 q 813 656 807 774 l 813 651 q 785 625 813 625 q 754 654 757 625 q 706 784 750 747 q 560 821 663 821 l 392 821 q 260 799 308 821 q 191 729 213 778 q 169 597 169 681 l 169 282 q 220 109 169 160 q 393 58 271 58 l 560 58 q 706 95 663 58 q 754 225 750 132 q 785 254 757 254 q 813 224 815 254 q 747 53 807 106 q 560 0 688 0 l 393 0 z "},"Ć":{"ha":910,"x_min":111,"x_max":813,"o":"m 393 0 q 178 67 246 0 q 111 282 111 135 l 111 597 q 178 813 111 746 q 392 879 244 879 l 560 879 q 747 826 688 879 q 813 656 807 774 l 813 651 q 785 625 813 625 q 754 654 757 625 q 706 784 750 747 q 560 821 663 821 l 392 821 q 260 799 308 821 q 191 729 213 778 q 169 597 169 681 l 169 282 q 220 109 169 160 q 393 58 271 58 l 560 58 q 706 95 663 58 q 754 225 750 132 q 785 254 757 254 q 813 224 815 254 q 747 53 807 106 q 560 0 688 0 l 393 0 m 424 965 q 413 988 413 975 q 419 1007 413 999 l 544 1154 q 567 1167 554 1167 q 586 1158 578 1167 q 597 1136 597 1149 q 590 1117 597 1125 l 465 969 q 443 957 454 957 q 424 965 432 957 z "},"Č":{"ha":910,"x_min":111,"x_max":813,"o":"m 393 0 q 178 67 246 0 q 111 282 111 135 l 111 597 q 178 813 111 746 q 392 879 244 879 l 560 879 q 747 826 688 879 q 813 656 807 774 l 813 651 q 785 625 813 625 q 754 654 757 625 q 706 784 750 747 q 560 821 663 821 l 392 821 q 260 799 308 821 q 191 729 213 778 q 169 597 169 681 l 169 282 q 220 109 169 160 q 393 58 271 58 l 560 58 q 706 95 663 58 q 754 225 750 132 q 785 254 757 254 q 813 224 815 254 q 747 53 807 106 q 560 0 688 0 l 393 0 m 335 1168 q 354 1161 344 1168 l 494 1044 l 511 1044 l 651 1161 q 671 1168 661 1168 q 692 1160 683 1168 q 700 1139 700 1151 q 689 1117 700 1125 l 549 999 q 513 986 532 986 l 493 986 q 457 999 474 986 l 317 1117 q 306 1139 306 1125 q 314 1160 306 1151 q 335 1168 322 1168 z "},"Ç":{"ha":910,"x_min":111,"x_max":815,"o":"m 785 254 q 813 224 815 254 q 747 53 807 106 q 560 0 688 0 l 538 0 q 574 -36 543 -17 q 619 -76 601 -54 q 636 -135 636 -97 q 601 -243 636 -208 q 493 -278 567 -278 q 378 -162 378 -278 q 407 -133 378 -133 q 436 -162 436 -133 q 448 -208 436 -196 q 493 -219 460 -219 q 560 -201 542 -219 q 578 -135 578 -183 q 571 -110 578 -119 q 542 -85 564 -100 q 500 -49 517 -68 q 478 0 483 -31 l 393 0 q 178 67 246 0 q 111 282 111 135 l 111 597 q 178 813 111 746 q 392 879 244 879 l 560 879 q 747 826 688 879 q 813 656 807 774 l 813 651 q 785 625 813 625 q 754 654 757 625 q 706 784 750 747 q 560 821 663 821 l 392 821 q 260 799 308 821 q 191 729 213 778 q 169 597 169 681 l 169 282 q 220 109 169 160 q 393 58 271 58 l 560 58 q 706 95 663 58 q 754 225 750 132 q 785 254 757 254 z "},"Ĉ":{"ha":910,"x_min":111,"x_max":813,"o":"m 393 0 q 178 67 246 0 q 111 282 111 135 l 111 597 q 178 813 111 746 q 392 879 244 879 l 560 879 q 747 826 688 879 q 813 656 807 774 l 813 651 q 785 625 813 625 q 754 654 757 625 q 706 784 750 747 q 560 821 663 821 l 392 821 q 260 799 308 821 q 191 729 213 778 q 169 597 169 681 l 169 282 q 220 109 169 160 q 393 58 271 58 l 560 58 q 706 95 663 58 q 754 225 750 132 q 785 254 757 254 q 813 224 815 254 q 747 53 807 106 q 560 0 688 0 l 393 0 m 333 958 q 313 967 321 958 q 304 988 304 975 q 310 1006 304 994 l 418 1150 q 453 1168 432 1168 l 478 1168 q 513 1150 499 1168 l 621 1006 q 626 988 626 994 q 618 967 626 975 q 597 958 610 958 q 574 971 582 958 l 469 1110 l 461 1110 l 357 971 q 333 958 349 958 z "},"Ċ":{"ha":910,"x_min":111,"x_max":813,"o":"m 393 0 q 178 67 246 0 q 111 282 111 135 l 111 597 q 178 813 111 746 q 392 879 244 879 l 560 879 q 747 826 688 879 q 813 656 807 774 l 813 651 q 785 625 813 625 q 754 654 757 625 q 706 784 750 747 q 560 821 663 821 l 392 821 q 260 799 308 821 q 191 729 213 778 q 169 597 169 681 l 169 282 q 220 109 169 160 q 393 58 271 58 l 560 58 q 706 95 663 58 q 754 225 750 132 q 785 254 757 254 q 813 224 815 254 q 747 53 807 106 q 560 0 688 0 l 393 0 m 449 1010 q 407 1053 407 1010 l 407 1081 q 449 1122 407 1122 l 476 1122 q 518 1081 518 1122 l 518 1053 q 507 1021 518 1032 q 476 1010 496 1010 l 449 1010 z "},"D":{"ha":924,"x_min":125,"x_max":813,"o":"m 154 0 q 125 29 125 0 l 125 850 q 154 879 125 879 l 489 879 q 735 802 658 879 q 813 556 813 725 l 813 324 q 735 77 813 154 q 489 0 658 0 l 154 0 m 489 58 q 644 85 586 58 q 728 169 701 111 q 754 324 754 226 l 754 556 q 728 710 754 653 q 644 794 701 768 q 489 821 586 821 l 183 821 l 183 58 l 489 58 z "},"Ǳ":{"ha":1694,"x_min":125,"x_max":1639,"o":"m 154 0 q 125 29 125 0 l 125 850 q 154 879 125 879 l 489 879 q 735 802 658 879 q 813 556 813 725 l 813 324 q 735 77 813 154 q 489 0 658 0 l 154 0 m 489 58 q 644 85 586 58 q 728 169 701 111 q 754 324 754 226 l 754 556 q 728 710 754 653 q 644 794 701 768 q 489 821 586 821 l 183 821 l 183 58 l 489 58 m 1610 199 q 1633 190 1625 199 q 1639 168 1640 182 q 1583 42 1633 85 q 1442 0 1532 0 l 979 0 q 947 29 947 0 q 951 47 947 39 q 963 65 956 56 l 1529 821 l 1121 821 q 1022 794 1056 821 q 982 710 988 768 q 951 681 981 681 q 930 689 938 681 q 924 711 922 697 q 980 837 929 794 q 1121 879 1031 879 l 1579 879 q 1608 850 1608 879 q 1596 811 1608 828 l 1036 58 l 1442 58 q 1541 85 1507 58 q 1581 169 1575 111 q 1610 199 1583 199 z "},"Ǆ":{"ha":1694,"x_min":125,"x_max":1639,"o":"m 154 0 q 125 29 125 0 l 125 850 q 154 879 125 879 l 489 879 q 735 802 658 879 q 813 556 813 725 l 813 324 q 735 77 813 154 q 489 0 658 0 l 154 0 m 489 58 q 644 85 586 58 q 728 169 701 111 q 754 324 754 226 l 754 556 q 728 710 754 653 q 644 794 701 768 q 489 821 586 821 l 183 821 l 183 58 l 489 58 m 1610 199 q 1633 190 1625 199 q 1639 168 1640 182 q 1583 42 1633 85 q 1442 0 1532 0 l 979 0 q 947 29 947 0 q 951 47 947 39 q 963 65 956 56 l 1529 821 l 1121 821 q 1022 794 1056 821 q 982 710 988 768 q 951 681 981 681 q 930 689 938 681 q 924 711 922 697 q 980 837 929 794 q 1121 879 1031 879 l 1579 879 q 1608 850 1608 879 q 1596 811 1608 828 l 1036 58 l 1442 58 q 1541 85 1507 58 q 1581 169 1575 111 q 1610 199 1583 199 m 1147 1168 q 1167 1161 1157 1168 l 1307 1044 l 1324 1044 l 1464 1161 q 1483 1168 1474 1168 q 1504 1160 1496 1168 q 1513 1139 1513 1151 q 1501 1117 1513 1125 l 1361 999 q 1325 986 1344 986 l 1306 986 q 1269 999 1286 986 l 1129 1117 q 1118 1139 1118 1125 q 1126 1160 1118 1151 q 1147 1168 1135 1168 z "},"Ð":{"ha":924,"x_min":0,"x_max":813,"o":"m 489 879 q 735 802 658 879 q 813 556 813 725 l 813 324 q 735 77 813 154 q 489 0 658 0 l 154 0 q 125 29 125 0 l 125 417 l 29 417 q 0 446 0 417 q 29 475 0 475 l 125 475 l 125 850 q 154 879 125 879 l 489 879 m 754 556 q 728 710 754 653 q 644 794 701 768 q 489 821 586 821 l 183 821 l 183 475 l 388 475 q 417 446 417 475 q 388 417 417 417 l 183 417 l 183 58 l 489 58 q 644 85 586 58 q 728 169 701 111 q 754 324 754 226 l 754 556 z "},"Ď":{"ha":924,"x_min":125,"x_max":813,"o":"m 154 0 q 125 29 125 0 l 125 850 q 154 879 125 879 l 489 879 q 735 802 658 879 q 813 556 813 725 l 813 324 q 735 77 813 154 q 489 0 658 0 l 154 0 m 489 58 q 644 85 586 58 q 728 169 701 111 q 754 324 754 226 l 754 556 q 728 710 754 653 q 644 794 701 768 q 489 821 586 821 l 183 821 l 183 58 l 489 58 m 283 1168 q 303 1161 293 1168 l 443 1044 l 460 1044 l 600 1161 q 619 1168 610 1168 q 640 1160 632 1168 q 649 1139 649 1151 q 638 1117 649 1125 l 497 999 q 461 986 481 986 l 442 986 q 406 999 422 986 l 265 1117 q 254 1139 254 1125 q 263 1160 254 1151 q 283 1168 271 1168 z "},"Đ":{"ha":924,"x_min":0,"x_max":813,"o":"m 489 879 q 735 802 658 879 q 813 556 813 725 l 813 324 q 735 77 813 154 q 489 0 658 0 l 154 0 q 125 29 125 0 l 125 417 l 29 417 q 0 446 0 417 q 29 475 0 475 l 125 475 l 125 850 q 154 879 125 879 l 489 879 m 754 556 q 728 710 754 653 q 644 794 701 768 q 489 821 586 821 l 183 821 l 183 475 l 388 475 q 417 446 417 475 q 388 417 417 417 l 183 417 l 183 58 l 489 58 q 644 85 586 58 q 728 169 701 111 q 754 324 754 226 l 754 556 z "},"ǲ":{"ha":1542,"x_min":125,"x_max":1493,"o":"m 154 0 q 125 29 125 0 l 125 850 q 154 879 125 879 l 489 879 q 735 802 658 879 q 813 556 813 725 l 813 324 q 735 77 813 154 q 489 0 658 0 l 154 0 m 489 58 q 644 85 586 58 q 728 169 701 111 q 754 324 754 226 l 754 556 q 728 710 754 653 q 644 794 701 768 q 489 821 586 821 l 183 821 l 183 58 l 489 58 m 1465 171 q 1488 163 1481 171 q 1493 140 1494 154 q 1324 0 1478 0 l 950 0 q 921 29 921 0 q 933 61 921 44 l 1357 582 l 1071 582 q 990 564 1014 582 q 960 499 965 546 q 931 469 958 469 q 908 478 915 469 q 901 500 900 486 q 949 606 907 572 q 1071 640 990 640 l 1411 640 q 1440 611 1440 640 q 1428 578 1440 594 l 1007 58 l 1324 58 q 1403 78 1378 58 q 1435 142 1429 97 q 1465 171 1439 171 z "},"ǅ":{"ha":1542,"x_min":125,"x_max":1493,"o":"m 154 0 q 125 29 125 0 l 125 850 q 154 879 125 879 l 489 879 q 735 802 658 879 q 813 556 813 725 l 813 324 q 735 77 813 154 q 489 0 658 0 l 154 0 m 489 58 q 644 85 586 58 q 728 169 701 111 q 754 324 754 226 l 754 556 q 728 710 754 653 q 644 794 701 768 q 489 821 586 821 l 183 821 l 183 58 l 489 58 m 1465 171 q 1488 163 1481 171 q 1493 140 1494 154 q 1324 0 1478 0 l 950 0 q 921 29 921 0 q 933 61 921 44 l 1357 582 l 1071 582 q 990 564 1014 582 q 960 499 965 546 q 931 469 958 469 q 908 478 915 469 q 901 500 900 486 q 949 606 907 572 q 1071 640 990 640 l 1411 640 q 1440 611 1440 640 q 1428 578 1440 594 l 1007 58 l 1324 58 q 1403 78 1378 58 q 1435 142 1429 97 q 1465 171 1439 171 m 1071 929 q 1090 922 1081 929 l 1231 806 l 1247 806 l 1388 922 q 1407 929 1397 929 q 1428 921 1419 929 q 1436 900 1436 913 q 1425 878 1436 886 l 1285 760 q 1249 747 1268 747 l 1229 747 q 1193 760 1210 747 l 1053 878 q 1042 900 1042 886 q 1050 921 1042 913 q 1071 929 1058 929 z "},"E":{"ha":760,"x_min":125,"x_max":711,"o":"m 682 58 q 711 29 711 58 q 682 0 711 0 l 154 0 q 125 29 125 0 l 125 850 q 154 879 125 879 l 682 879 q 711 850 711 879 q 682 821 711 821 l 183 821 l 183 475 l 518 475 q 547 446 547 475 q 518 417 547 417 l 183 417 l 183 58 l 682 58 z "},"É":{"ha":760,"x_min":125,"x_max":711,"o":"m 682 58 q 711 29 711 58 q 682 0 711 0 l 154 0 q 125 29 125 0 l 125 850 q 154 879 125 879 l 682 879 q 711 850 711 879 q 682 821 711 821 l 183 821 l 183 475 l 518 475 q 547 446 547 475 q 518 417 547 417 l 183 417 l 183 58 l 682 58 m 404 965 q 393 988 393 975 q 400 1007 393 999 l 525 1154 q 547 1167 535 1167 q 567 1158 558 1167 q 578 1136 578 1149 q 571 1117 578 1125 l 446 969 q 424 957 435 957 q 404 965 413 957 z "},"Ĕ":{"ha":760,"x_min":125,"x_max":711,"o":"m 682 58 q 711 29 711 58 q 682 0 711 0 l 154 0 q 125 29 125 0 l 125 850 q 154 879 125 879 l 682 879 q 711 850 711 879 q 682 821 711 821 l 183 821 l 183 475 l 518 475 q 547 446 547 475 q 518 417 547 417 l 183 417 l 183 58 l 682 58 m 440 960 q 316 1003 358 960 q 274 1128 274 1046 l 274 1131 q 303 1160 274 1160 q 332 1131 332 1160 l 332 1128 q 358 1043 332 1069 q 443 1017 385 1017 q 528 1044 503 1018 q 554 1128 554 1069 l 554 1131 q 583 1160 554 1160 q 613 1131 613 1160 l 613 1128 q 440 960 613 960 z "},"Ě":{"ha":760,"x_min":125,"x_max":711,"o":"m 682 58 q 711 29 711 58 q 682 0 711 0 l 154 0 q 125 29 125 0 l 125 850 q 154 879 125 879 l 682 879 q 711 850 711 879 q 682 821 711 821 l 183 821 l 183 475 l 518 475 q 547 446 547 475 q 518 417 547 417 l 183 417 l 183 58 l 682 58 m 315 1168 q 335 1161 325 1168 l 475 1044 l 492 1044 l 632 1161 q 651 1168 642 1168 q 672 1160 664 1168 q 681 1139 681 1151 q 669 1117 681 1125 l 529 999 q 493 986 513 986 l 474 986 q 438 999 454 986 l 297 1117 q 286 1139 286 1125 q 294 1160 286 1151 q 315 1168 303 1168 z "},"Ê":{"ha":760,"x_min":125,"x_max":711,"o":"m 682 58 q 711 29 711 58 q 682 0 711 0 l 154 0 q 125 29 125 0 l 125 850 q 154 879 125 879 l 682 879 q 711 850 711 879 q 682 821 711 821 l 183 821 l 183 475 l 518 475 q 547 446 547 475 q 518 417 547 417 l 183 417 l 183 58 l 682 58 m 272 969 q 251 978 260 969 q 243 999 243 986 q 254 1021 243 1013 l 394 1139 q 431 1151 411 1151 l 450 1151 q 486 1139 469 1151 l 626 1021 q 638 999 638 1013 q 629 978 638 986 q 608 969 621 969 q 589 976 599 969 l 449 1093 l 432 1093 l 292 976 q 272 969 282 969 z "},"Ế":{"ha":760,"x_min":125,"x_max":711,"o":"m 682 58 q 711 29 711 58 q 682 0 711 0 l 154 0 q 125 29 125 0 l 125 850 q 154 879 125 879 l 682 879 q 711 850 711 879 q 682 821 711 821 l 183 821 l 183 475 l 518 475 q 547 446 547 475 q 518 417 547 417 l 183 417 l 183 58 l 682 58 m 571 1106 q 550 1114 558 1106 q 542 1135 542 1122 q 549 1154 542 1144 l 644 1267 q 667 1278 653 1278 q 688 1269 679 1278 q 696 1249 696 1261 q 689 1229 696 1239 l 593 1117 q 571 1106 585 1106 m 279 969 q 258 978 267 969 q 250 999 250 986 q 261 1021 250 1013 l 401 1139 q 438 1151 418 1151 l 457 1151 q 493 1139 476 1151 l 633 1021 q 644 999 644 1013 q 636 978 644 986 q 615 969 628 969 q 596 976 606 969 l 456 1093 l 439 1093 l 299 976 q 279 969 289 969 z "},"Ệ":{"ha":760,"x_min":125,"x_max":711,"o":"m 682 58 q 711 29 711 58 q 682 0 711 0 l 154 0 q 125 29 125 0 l 125 850 q 154 879 125 879 l 682 879 q 711 850 711 879 q 682 821 711 821 l 183 821 l 183 475 l 518 475 q 547 446 547 475 q 518 417 547 417 l 183 417 l 183 58 l 682 58 m 403 -208 q 368 -172 368 -208 l 368 -149 q 403 -114 368 -114 l 426 -114 q 461 -149 461 -114 l 461 -172 q 426 -208 461 -208 l 403 -208 m 272 969 q 251 978 260 969 q 243 999 243 986 q 254 1021 243 1013 l 394 1139 q 431 1151 411 1151 l 450 1151 q 486 1139 469 1151 l 626 1021 q 638 999 638 1013 q 629 978 638 986 q 608 969 621 969 q 589 976 599 969 l 449 1093 l 432 1093 l 292 976 q 272 969 282 969 z "},"Ề":{"ha":760,"x_min":125,"x_max":711,"o":"m 682 58 q 711 29 711 58 q 682 0 711 0 l 154 0 q 125 29 125 0 l 125 850 q 154 879 125 879 l 682 879 q 711 850 711 879 q 682 821 711 821 l 183 821 l 183 475 l 518 475 q 547 446 547 475 q 518 417 547 417 l 183 417 l 183 58 l 682 58 m 288 1106 q 265 1117 274 1106 l 169 1229 q 163 1249 163 1239 q 171 1269 163 1261 q 192 1278 179 1278 q 214 1267 206 1278 l 310 1154 q 317 1135 317 1144 q 308 1114 317 1122 q 288 1106 300 1106 m 285 969 q 264 978 272 969 q 256 999 256 986 q 267 1021 256 1013 l 407 1139 q 443 1151 424 1151 l 463 1151 q 499 1139 482 1151 l 639 1021 q 650 999 650 1013 q 642 978 650 986 q 621 969 633 969 q 601 976 611 969 l 461 1093 l 444 1093 l 304 976 q 285 969 294 969 z "},"Ể":{"ha":760,"x_min":125,"x_max":711,"o":"m 682 58 q 711 29 711 58 q 682 0 711 0 l 154 0 q 125 29 125 0 l 125 850 q 154 879 125 879 l 682 879 q 711 850 711 879 q 682 821 711 821 l 183 821 l 183 475 l 518 475 q 547 446 547 475 q 518 417 547 417 l 183 417 l 183 58 l 682 58 m 274 969 q 253 978 261 969 q 244 999 244 986 q 256 1021 244 1013 l 396 1139 q 432 1151 413 1151 l 451 1151 q 488 1139 471 1151 l 628 1021 q 639 999 639 1013 q 631 978 639 986 q 610 969 622 969 q 590 976 600 969 l 450 1093 l 433 1093 l 293 976 q 274 969 283 969 m 571 1096 q 542 1125 542 1096 q 560 1185 542 1164 q 607 1224 578 1206 q 636 1245 629 1238 q 643 1267 643 1253 q 631 1312 643 1300 q 586 1324 619 1324 q 541 1312 553 1324 q 529 1267 529 1300 q 500 1238 529 1238 q 471 1267 471 1238 q 586 1382 471 1382 q 701 1267 701 1382 q 684 1211 701 1231 q 638 1174 667 1192 q 607 1149 614 1158 q 600 1125 600 1140 q 571 1096 600 1096 z "},"Ễ":{"ha":760,"x_min":125,"x_max":711,"o":"m 682 58 q 711 29 711 58 q 682 0 711 0 l 154 0 q 125 29 125 0 l 125 850 q 154 879 125 879 l 682 879 q 711 850 711 879 q 682 821 711 821 l 183 821 l 183 475 l 518 475 q 547 446 547 475 q 518 417 547 417 l 183 417 l 183 58 l 682 58 m 276 969 q 256 978 264 969 q 247 999 247 986 q 258 1021 247 1013 l 399 1139 q 435 1151 415 1151 l 454 1151 q 490 1139 474 1151 l 631 1021 q 642 999 642 1013 q 633 978 642 986 q 613 969 625 969 q 593 976 603 969 l 453 1093 l 436 1093 l 296 976 q 276 969 286 969 m 528 1175 q 472 1189 494 1175 q 429 1225 450 1203 q 397 1252 410 1244 q 364 1260 385 1260 q 326 1247 339 1260 q 300 1196 313 1233 q 290 1181 297 1186 q 272 1175 282 1175 q 247 1189 256 1175 q 244 1214 239 1203 q 292 1294 264 1269 q 364 1318 319 1318 q 424 1303 400 1318 q 471 1265 449 1289 q 501 1240 490 1246 q 528 1233 513 1233 q 567 1248 551 1233 q 593 1297 583 1263 q 622 1318 600 1318 q 645 1305 638 1318 q 649 1281 653 1292 q 600 1201 629 1228 q 528 1175 571 1175 z "},"Ȅ":{"ha":760,"x_min":125,"x_max":711,"o":"m 228 1114 q 221 1132 221 1124 q 232 1151 221 1143 q 249 1158 239 1158 q 269 1147 263 1158 l 382 1015 q 389 997 389 1006 q 378 978 389 989 q 360 969 369 969 q 340 981 351 969 l 228 1114 m 381 1114 q 374 1132 374 1124 q 385 1151 374 1143 q 401 1158 392 1158 q 422 1147 415 1158 l 535 1015 q 542 997 542 1006 q 531 978 542 989 q 513 969 522 969 q 493 981 504 969 l 381 1114 m 682 58 q 711 29 711 58 q 682 0 711 0 l 154 0 q 125 29 125 0 l 125 850 q 154 879 125 879 l 682 879 q 711 850 711 879 q 682 821 711 821 l 183 821 l 183 475 l 518 475 q 547 446 547 475 q 518 417 547 417 l 183 417 l 183 58 l 682 58 z "},"Ë":{"ha":760,"x_min":125,"x_max":711,"o":"m 682 58 q 711 29 711 58 q 682 0 711 0 l 154 0 q 125 29 125 0 l 125 850 q 154 879 125 879 l 682 879 q 711 850 711 879 q 682 821 711 821 l 183 821 l 183 475 l 518 475 q 547 446 547 475 q 518 417 547 417 l 183 417 l 183 58 l 682 58 m 332 1001 q 297 1038 297 1001 l 297 1061 q 332 1096 297 1096 l 356 1096 q 390 1061 390 1096 l 390 1038 q 356 1001 390 1001 l 332 1001 m 531 1001 q 496 1038 496 1001 l 496 1061 q 531 1096 496 1096 l 554 1096 q 589 1061 589 1096 l 589 1038 q 554 1001 589 1001 l 531 1001 z "},"Ė":{"ha":760,"x_min":125,"x_max":711,"o":"m 682 58 q 711 29 711 58 q 682 0 711 0 l 154 0 q 125 29 125 0 l 125 850 q 154 879 125 879 l 682 879 q 711 850 711 879 q 682 821 711 821 l 183 821 l 183 475 l 518 475 q 547 446 547 475 q 518 417 547 417 l 183 417 l 183 58 l 682 58 m 429 1010 q 388 1053 388 1010 l 388 1081 q 429 1122 388 1122 l 457 1122 q 499 1081 499 1122 l 499 1053 q 488 1021 499 1032 q 457 1010 476 1010 l 429 1010 z "},"Ẹ":{"ha":760,"x_min":125,"x_max":711,"o":"m 682 58 q 711 29 711 58 q 682 0 711 0 l 154 0 q 125 29 125 0 l 125 850 q 154 879 125 879 l 682 879 q 711 850 711 879 q 682 821 711 821 l 183 821 l 183 475 l 518 475 q 547 446 547 475 q 518 417 547 417 l 183 417 l 183 58 l 682 58 m 403 -208 q 368 -172 368 -208 l 368 -149 q 403 -114 368 -114 l 426 -114 q 461 -149 461 -114 l 461 -172 q 426 -208 461 -208 l 403 -208 z "},"È":{"ha":760,"x_min":125,"x_max":711,"o":"m 682 58 q 711 29 711 58 q 682 0 711 0 l 154 0 q 125 29 125 0 l 125 850 q 154 879 125 879 l 682 879 q 711 850 711 879 q 682 821 711 821 l 183 821 l 183 475 l 518 475 q 547 446 547 475 q 518 417 547 417 l 183 417 l 183 58 l 682 58 m 482 965 q 463 957 474 957 q 440 969 450 957 l 315 1117 q 308 1136 308 1125 q 319 1158 308 1149 q 339 1167 328 1167 q 361 1154 350 1167 l 486 1007 q 493 988 493 999 q 482 965 493 975 z "},"Ẻ":{"ha":760,"x_min":125,"x_max":711,"o":"m 682 58 q 711 29 711 58 q 682 0 711 0 l 154 0 q 125 29 125 0 l 125 850 q 154 879 125 879 l 682 879 q 711 850 711 879 q 682 821 711 821 l 183 821 l 183 475 l 518 475 q 547 446 547 475 q 518 417 547 417 l 183 417 l 183 58 l 682 58 m 443 958 q 414 988 414 958 q 432 1047 414 1026 q 479 1086 450 1068 q 508 1108 501 1100 q 515 1129 515 1115 q 503 1174 515 1163 q 458 1186 492 1186 q 413 1174 425 1186 q 401 1129 401 1163 q 372 1100 401 1100 q 343 1129 343 1100 q 458 1244 343 1244 q 574 1129 574 1244 q 556 1074 574 1093 q 510 1036 539 1054 q 479 1012 486 1021 q 472 988 472 1003 q 443 958 472 958 z "},"Ȇ":{"ha":760,"x_min":125,"x_max":711,"o":"m 682 58 q 711 29 711 58 q 682 0 711 0 l 154 0 q 125 29 125 0 l 125 850 q 154 879 125 879 l 682 879 q 711 850 711 879 q 682 821 711 821 l 183 821 l 183 475 l 518 475 q 547 446 547 475 q 518 417 547 417 l 183 417 l 183 58 l 682 58 m 440 1167 q 613 999 613 1167 l 613 996 q 583 967 613 967 q 554 996 554 967 l 554 999 q 528 1083 554 1057 q 443 1110 503 1108 q 358 1083 385 1110 q 332 999 332 1057 l 332 996 q 303 967 332 967 q 274 996 274 967 l 274 999 q 316 1124 274 1081 q 440 1167 358 1167 z "},"Ē":{"ha":760,"x_min":125,"x_max":711,"o":"m 682 58 q 711 29 711 58 q 682 0 711 0 l 154 0 q 125 29 125 0 l 125 850 q 154 879 125 879 l 682 879 q 711 850 711 879 q 682 821 711 821 l 183 821 l 183 475 l 518 475 q 547 446 547 475 q 518 417 547 417 l 183 417 l 183 58 l 682 58 m 268 1050 q 239 1079 239 1050 q 268 1108 239 1108 l 619 1108 q 649 1079 649 1108 q 619 1050 649 1050 l 268 1050 z "},"Ę":{"ha":760,"x_min":125,"x_max":808,"o":"m 779 -128 q 800 -136 792 -128 q 808 -157 808 -144 q 800 -178 808 -169 q 741 -219 774 -204 q 676 -233 708 -233 q 590 -202 625 -233 q 554 -124 554 -171 q 585 -42 554 -81 l 617 0 l 154 0 q 125 29 125 0 l 125 850 q 154 879 125 879 l 682 879 q 711 850 711 879 q 682 821 711 821 l 183 821 l 183 475 l 518 475 q 547 446 547 475 q 518 417 547 417 l 183 417 l 183 58 l 682 58 q 711 29 711 58 q 693 1 711 6 l 632 -78 q 613 -124 613 -104 q 631 -160 613 -146 q 676 -175 649 -175 q 758 -136 719 -175 q 779 -128 767 -128 z "},"Ẽ":{"ha":760,"x_min":125,"x_max":711,"o":"m 682 58 q 711 29 711 58 q 682 0 711 0 l 154 0 q 125 29 125 0 l 125 850 q 154 879 125 879 l 682 879 q 711 850 711 879 q 682 821 711 821 l 183 821 l 183 475 l 518 475 q 547 446 547 475 q 518 417 547 417 l 183 417 l 183 58 l 682 58 m 525 1001 q 469 1015 492 1001 q 426 1051 447 1029 q 394 1078 407 1071 q 361 1086 382 1086 q 323 1073 336 1086 q 297 1022 310 1060 q 287 1007 294 1013 q 269 1001 279 1001 q 244 1015 253 1001 q 242 1040 236 1029 q 289 1120 261 1096 q 361 1144 317 1144 q 422 1130 397 1144 q 468 1092 446 1115 q 499 1066 488 1072 q 525 1060 510 1060 q 565 1074 549 1060 q 590 1124 581 1089 q 619 1144 597 1144 q 642 1131 635 1144 q 646 1107 650 1118 q 597 1028 626 1054 q 525 1001 568 1001 z "},"F":{"ha":681,"x_min":125,"x_max":681,"o":"m 154 0 q 125 29 125 0 l 125 850 q 154 879 125 879 l 651 879 q 681 850 681 879 q 651 821 681 821 l 183 821 l 183 475 l 513 475 q 542 446 542 475 q 513 417 542 417 l 183 417 l 183 29 q 154 0 183 0 z "},"G":{"ha":911,"x_min":111,"x_max":814,"o":"m 393 0 q 178 67 246 0 q 111 282 111 135 l 111 597 q 178 813 111 746 q 392 879 244 879 l 560 879 q 747 826 688 879 q 813 656 807 774 l 813 651 q 785 625 813 625 q 754 654 757 625 q 706 784 750 747 q 560 821 663 821 l 392 821 q 260 799 308 821 q 191 729 213 778 q 169 597 169 681 l 169 282 q 220 109 169 160 q 393 58 271 58 l 560 58 q 677 76 635 58 q 738 137 719 94 q 756 254 756 179 l 756 349 l 589 350 q 560 379 560 350 q 589 408 560 408 l 785 407 q 814 378 814 407 l 814 254 q 754 60 814 119 q 560 0 694 0 l 393 0 z "},"Ğ":{"ha":911,"x_min":111,"x_max":814,"o":"m 393 0 q 178 67 246 0 q 111 282 111 135 l 111 597 q 178 813 111 746 q 392 879 244 879 l 560 879 q 747 826 688 879 q 813 656 807 774 l 813 651 q 785 625 813 625 q 754 654 757 625 q 706 784 750 747 q 560 821 663 821 l 392 821 q 260 799 308 821 q 191 729 213 778 q 169 597 169 681 l 169 282 q 220 109 169 160 q 393 58 271 58 l 560 58 q 677 76 635 58 q 738 137 719 94 q 756 254 756 179 l 756 349 l 589 350 q 560 379 560 350 q 589 408 560 408 l 785 407 q 814 378 814 407 l 814 254 q 754 60 814 119 q 560 0 694 0 l 393 0 m 460 960 q 335 1003 378 960 q 293 1128 293 1046 l 293 1131 q 322 1160 293 1160 q 351 1131 351 1160 l 351 1128 q 378 1043 351 1069 q 463 1017 404 1017 q 548 1044 522 1018 q 574 1128 574 1069 l 574 1131 q 603 1160 574 1160 q 632 1131 632 1160 l 632 1128 q 460 960 632 960 z "},"Ǧ":{"ha":911,"x_min":111,"x_max":814,"o":"m 393 0 q 178 67 246 0 q 111 282 111 135 l 111 597 q 178 813 111 746 q 392 879 244 879 l 560 879 q 747 826 688 879 q 813 656 807 774 l 813 651 q 785 625 813 625 q 754 654 757 625 q 706 784 750 747 q 560 821 663 821 l 392 821 q 260 799 308 821 q 191 729 213 778 q 169 597 169 681 l 169 282 q 220 109 169 160 q 393 58 271 58 l 560 58 q 677 76 635 58 q 738 137 719 94 q 756 254 756 179 l 756 349 l 589 350 q 560 379 560 350 q 589 408 560 408 l 785 407 q 814 378 814 407 l 814 254 q 754 60 814 119 q 560 0 694 0 l 393 0 m 331 1168 q 354 1156 346 1168 l 458 1017 l 467 1017 l 571 1156 q 594 1168 579 1168 q 615 1160 607 1168 q 624 1139 624 1151 q 618 1121 624 1132 l 510 976 q 475 958 496 958 l 450 958 q 415 976 429 958 l 307 1121 q 301 1139 301 1132 q 310 1160 301 1151 q 331 1168 318 1168 z "},"Ĝ":{"ha":911,"x_min":111,"x_max":814,"o":"m 393 0 q 178 67 246 0 q 111 282 111 135 l 111 597 q 178 813 111 746 q 392 879 244 879 l 560 879 q 747 826 688 879 q 813 656 807 774 l 813 651 q 785 625 813 625 q 754 654 757 625 q 706 784 750 747 q 560 821 663 821 l 392 821 q 260 799 308 821 q 191 729 213 778 q 169 597 169 681 l 169 282 q 220 109 169 160 q 393 58 271 58 l 560 58 q 677 76 635 58 q 738 137 719 94 q 756 254 756 179 l 756 349 l 589 350 q 560 379 560 350 q 589 408 560 408 l 785 407 q 814 378 814 407 l 814 254 q 754 60 814 119 q 560 0 694 0 l 393 0 m 333 958 q 313 967 321 958 q 304 988 304 975 q 310 1006 304 994 l 418 1150 q 453 1168 432 1168 l 478 1168 q 513 1150 499 1168 l 621 1006 q 626 988 626 994 q 618 967 626 975 q 597 958 610 958 q 574 971 582 958 l 469 1110 l 461 1110 l 357 971 q 333 958 349 958 z "},"Ģ":{"ha":911,"x_min":111,"x_max":814,"o":"m 393 0 q 178 67 246 0 q 111 282 111 135 l 111 597 q 178 813 111 746 q 392 879 244 879 l 560 879 q 747 826 688 879 q 813 656 807 774 l 813 651 q 785 625 813 625 q 754 654 757 625 q 706 784 750 747 q 560 821 663 821 l 392 821 q 260 799 308 821 q 191 729 213 778 q 169 597 169 681 l 169 282 q 220 109 169 160 q 393 58 271 58 l 560 58 q 677 76 635 58 q 738 137 719 94 q 756 254 756 179 l 756 349 l 589 350 q 560 379 560 350 q 589 408 560 408 l 785 407 q 814 378 814 407 l 814 254 q 754 60 814 119 q 560 0 694 0 l 393 0 m 521 -121 q 513 -146 521 -137 l 467 -250 q 444 -268 458 -268 q 426 -261 433 -268 q 421 -242 419 -254 l 446 -97 q 474 -68 446 -68 l 493 -68 q 513 -76 506 -68 q 521 -99 521 -85 l 521 -121 z "},"Ġ":{"ha":911,"x_min":111,"x_max":814,"o":"m 393 0 q 178 67 246 0 q 111 282 111 135 l 111 597 q 178 813 111 746 q 392 879 244 879 l 560 879 q 747 826 688 879 q 813 656 807 774 l 813 651 q 785 625 813 625 q 754 654 757 625 q 706 784 750 747 q 560 821 663 821 l 392 821 q 260 799 308 821 q 191 729 213 778 q 169 597 169 681 l 169 282 q 220 109 169 160 q 393 58 271 58 l 560 58 q 677 76 635 58 q 738 137 719 94 q 756 254 756 179 l 756 349 l 589 350 q 560 379 560 350 q 589 408 560 408 l 785 407 q 814 378 814 407 l 814 254 q 754 60 814 119 q 560 0 694 0 l 393 0 m 449 1010 q 407 1053 407 1010 l 407 1081 q 449 1122 407 1122 l 476 1122 q 518 1081 518 1122 l 518 1053 q 507 1021 518 1032 q 476 1010 496 1010 l 449 1010 z "},"H":{"ha":954,"x_min":125,"x_max":829,"o":"m 154 0 q 125 29 125 0 l 125 850 q 154 879 125 879 q 183 850 183 879 l 183 475 l 771 475 l 771 850 q 800 879 771 879 q 829 850 829 879 l 829 29 q 800 0 829 0 q 771 29 771 0 l 771 417 l 183 417 l 183 29 q 154 0 183 0 z "},"Ħ":{"ha":954,"x_min":75,"x_max":882,"o":"m 857 664 q 882 639 882 664 q 857 614 882 614 l 829 614 l 829 29 q 800 0 829 0 q 771 29 771 0 l 771 417 l 183 417 l 183 29 q 154 0 183 0 q 125 29 125 0 l 125 614 l 100 614 q 75 639 75 614 q 100 664 75 664 l 125 664 l 125 850 q 154 879 125 879 q 183 850 183 879 l 183 664 l 771 664 l 771 850 q 800 879 771 879 q 829 850 829 879 l 829 664 l 857 664 m 771 475 l 771 614 l 183 614 l 183 475 l 771 475 z "},"Ĥ":{"ha":954,"x_min":125,"x_max":829,"o":"m 154 0 q 125 29 125 0 l 125 850 q 154 879 125 879 q 183 850 183 879 l 183 475 l 771 475 l 771 850 q 800 879 771 879 q 829 850 829 879 l 829 29 q 800 0 829 0 q 771 29 771 0 l 771 417 l 183 417 l 183 29 q 154 0 183 0 m 349 958 q 328 967 336 958 q 319 988 319 975 q 325 1006 319 994 l 433 1150 q 468 1168 447 1168 l 493 1168 q 528 1150 514 1168 l 636 1006 q 642 988 642 994 q 633 967 642 975 q 613 958 625 958 q 589 971 597 958 l 485 1110 l 476 1110 l 372 971 q 349 958 364 958 z "},"I":{"ha":308,"x_min":125,"x_max":183,"o":"m 154 0 q 133 8 142 0 q 125 29 125 17 l 125 851 q 133 872 125 864 q 154 881 142 881 q 175 872 167 881 q 183 851 183 864 l 183 29 q 175 8 183 17 q 154 0 167 0 z "},"Í":{"ha":308,"x_min":104,"x_max":289,"o":"m 154 0 q 133 8 142 0 q 125 29 125 17 l 125 851 q 133 872 125 864 q 154 881 142 881 q 175 872 167 881 q 183 851 183 864 l 183 29 q 175 8 183 17 q 154 0 167 0 m 115 965 q 104 988 104 975 q 111 1007 104 999 l 236 1154 q 258 1167 246 1167 q 278 1158 269 1167 q 289 1136 289 1149 q 282 1117 289 1125 l 157 969 q 135 957 146 957 q 115 965 124 957 z "},"Ĭ":{"ha":308,"x_min":-15,"x_max":324,"o":"m 154 0 q 133 8 142 0 q 125 29 125 17 l 125 851 q 133 872 125 864 q 154 881 142 881 q 175 872 167 881 q 183 851 183 864 l 183 29 q 175 8 183 17 q 154 0 167 0 m 151 960 q 27 1003 69 960 q -15 1128 -15 1046 l -15 1131 q 14 1160 -15 1160 q 43 1131 43 1160 l 43 1128 q 69 1043 43 1069 q 154 1017 96 1017 q 240 1044 214 1018 q 265 1128 265 1069 l 265 1131 q 294 1160 265 1160 q 324 1131 324 1160 l 324 1128 q 151 960 324 960 z "},"Î":{"ha":308,"x_min":-4,"x_max":318,"o":"m 154 0 q 133 8 142 0 q 125 29 125 17 l 125 851 q 133 872 125 864 q 154 881 142 881 q 175 872 167 881 q 183 851 183 864 l 183 29 q 175 8 183 17 q 154 0 167 0 m 25 958 q 4 967 13 958 q -4 988 -4 975 q 1 1006 -4 994 l 110 1150 q 144 1168 124 1168 l 169 1168 q 204 1150 190 1168 l 313 1006 q 318 988 318 994 q 310 967 318 975 q 289 958 301 958 q 265 971 274 958 l 161 1110 l 153 1110 l 49 971 q 25 958 40 958 z "},"Ȉ":{"ha":308,"x_min":-68,"x_max":253,"o":"m 89 978 q 71 969 81 969 q 51 981 63 969 l -61 1114 q -68 1132 -68 1124 q -57 1151 -68 1143 q -40 1158 -50 1158 q -19 1147 -26 1158 l 93 1015 q 100 997 100 1006 q 89 978 100 989 m 242 978 q 224 969 233 969 q 204 981 215 969 l 92 1114 q 85 1132 85 1124 q 96 1151 85 1143 q 113 1158 103 1158 q 133 1147 126 1158 l 246 1015 q 253 997 253 1006 q 242 978 253 989 m 154 0 q 133 8 142 0 q 125 29 125 17 l 125 851 q 133 872 125 864 q 154 881 142 881 q 175 872 167 881 q 183 851 183 864 l 183 29 q 175 8 183 17 q 154 0 167 0 z "},"Ï":{"ha":308,"x_min":8,"x_max":300,"o":"m 154 0 q 133 8 142 0 q 125 29 125 17 l 125 851 q 133 872 125 864 q 154 881 142 881 q 175 872 167 881 q 183 851 183 864 l 183 29 q 175 8 183 17 q 154 0 167 0 m 43 1001 q 8 1038 8 1001 l 8 1061 q 43 1096 8 1096 l 67 1096 q 101 1061 101 1096 l 101 1038 q 67 1001 101 1001 l 43 1001 m 242 1001 q 207 1038 207 1001 l 207 1061 q 242 1096 207 1096 l 265 1096 q 300 1061 300 1096 l 300 1038 q 265 1001 300 1001 l 242 1001 z "},"İ":{"ha":308,"x_min":99,"x_max":210,"o":"m 154 0 q 133 8 142 0 q 125 29 125 17 l 125 851 q 133 872 125 864 q 154 881 142 881 q 175 872 167 881 q 183 851 183 864 l 183 29 q 175 8 183 17 q 154 0 167 0 m 140 1010 q 99 1053 99 1010 l 99 1081 q 140 1122 99 1122 l 168 1122 q 210 1081 210 1122 l 210 1053 q 199 1021 210 1032 q 168 1010 188 1010 l 140 1010 z "},"Ị":{"ha":308,"x_min":107,"x_max":200,"o":"m 154 0 q 133 8 142 0 q 125 29 125 17 l 125 851 q 133 872 125 864 q 154 881 142 881 q 175 872 167 881 q 183 851 183 864 l 183 29 q 175 8 183 17 q 154 0 167 0 m 142 -208 q 107 -172 107 -208 l 107 -149 q 142 -114 107 -114 l 165 -114 q 200 -149 200 -114 l 200 -172 q 165 -208 200 -208 l 142 -208 z "},"Ì":{"ha":308,"x_min":19,"x_max":204,"o":"m 154 0 q 133 8 142 0 q 125 29 125 17 l 125 851 q 133 872 125 864 q 154 881 142 881 q 175 872 167 881 q 183 851 183 864 l 183 29 q 175 8 183 17 q 154 0 167 0 m 193 965 q 174 957 185 957 q 151 969 161 957 l 26 1117 q 19 1136 19 1125 q 31 1158 19 1149 q 50 1167 39 1167 q 72 1154 61 1167 l 197 1007 q 204 988 204 999 q 193 965 204 975 z "},"Ỉ":{"ha":308,"x_min":54,"x_max":285,"o":"m 154 0 q 133 8 142 0 q 125 29 125 17 l 125 851 q 133 872 125 864 q 154 881 142 881 q 175 872 167 881 q 183 851 183 864 l 183 29 q 175 8 183 17 q 154 0 167 0 m 154 958 q 125 988 125 958 q 143 1047 125 1026 q 190 1086 161 1068 q 219 1108 213 1100 q 226 1129 226 1115 q 215 1174 226 1163 q 169 1186 203 1186 q 124 1174 136 1186 q 113 1129 113 1163 q 83 1100 113 1100 q 54 1129 54 1100 q 169 1244 54 1244 q 285 1129 285 1244 q 267 1074 285 1093 q 221 1036 250 1054 q 190 1012 197 1021 q 183 988 183 1003 q 154 958 183 958 z "},"Ȋ":{"ha":308,"x_min":-15,"x_max":324,"o":"m 154 0 q 133 8 142 0 q 125 29 125 17 l 125 851 q 133 872 125 864 q 154 881 142 881 q 175 872 167 881 q 183 851 183 864 l 183 29 q 175 8 183 17 q 154 0 167 0 m 151 1167 q 324 999 324 1167 l 324 996 q 294 967 324 967 q 265 996 265 967 l 265 999 q 240 1083 265 1057 q 154 1110 214 1108 q 69 1083 96 1110 q 43 999 43 1057 l 43 996 q 14 967 43 967 q -15 996 -15 967 l -15 999 q 27 1124 -15 1081 q 151 1167 69 1167 z "},"Ī":{"ha":308,"x_min":25,"x_max":282,"o":"m 154 0 q 133 8 142 0 q 125 29 125 17 l 125 851 q 133 872 125 864 q 154 881 142 881 q 175 872 167 881 q 183 851 183 864 l 183 29 q 175 8 183 17 q 154 0 167 0 m 54 1046 q 25 1075 25 1046 q 54 1104 25 1104 l 253 1104 q 282 1075 282 1104 q 253 1046 282 1046 l 54 1046 z "},"Į":{"ha":308,"x_min":31,"x_max":285,"o":"m 256 -128 q 276 -136 268 -128 q 285 -157 285 -144 q 276 -178 285 -169 q 217 -219 250 -204 q 153 -233 185 -233 q 66 -202 101 -233 q 31 -124 31 -171 q 61 -42 31 -81 l 125 42 l 125 851 q 133 872 125 864 q 154 881 142 881 q 175 872 167 881 q 183 851 183 864 l 183 29 q 172 7 183 14 l 108 -78 q 89 -124 89 -104 q 107 -160 89 -146 q 153 -175 125 -175 q 235 -136 196 -175 q 256 -128 243 -128 z "},"Ĩ":{"ha":308,"x_min":-14,"x_max":322,"o":"m 154 0 q 133 8 142 0 q 125 29 125 17 l 125 851 q 133 872 125 864 q 154 881 142 881 q 175 872 167 881 q 183 851 183 864 l 183 29 q 175 8 183 17 q 154 0 167 0 m 218 1003 q 174 1015 190 1003 q 135 1053 157 1028 q 94 1083 113 1083 q 69 1072 78 1083 q 43 1024 60 1060 q 15 1003 33 1003 q -10 1017 -1 1003 q -12 1042 -18 1031 q 35 1118 11 1094 q 94 1142 58 1142 q 140 1128 122 1142 q 176 1092 158 1115 q 199 1069 189 1076 q 218 1061 208 1061 q 244 1074 233 1061 q 265 1121 254 1088 q 293 1142 272 1142 q 317 1128 310 1142 q 321 1103 325 1115 q 281 1029 307 1056 q 218 1003 254 1003 z "},"J":{"ha":686,"x_min":31,"x_max":575,"o":"m 283 0 q 96 53 156 0 q 31 224 36 106 l 31 228 q 58 254 31 254 q 89 225 88 254 q 137 95 93 132 q 283 58 181 58 l 321 58 q 438 76 396 58 q 499 137 481 94 q 517 254 517 179 l 517 850 q 546 879 517 879 q 575 850 575 879 l 575 254 q 515 60 575 119 q 321 0 456 0 l 283 0 z "},"Ĵ":{"ha":686,"x_min":31,"x_max":707,"o":"m 283 0 q 96 53 156 0 q 31 224 36 106 l 31 228 q 58 254 31 254 q 89 225 88 254 q 137 95 93 132 q 283 58 181 58 l 321 58 q 438 76 396 58 q 499 137 481 94 q 517 254 517 179 l 517 850 q 546 879 517 879 q 575 850 575 879 l 575 254 q 515 60 575 119 q 321 0 456 0 l 283 0 m 414 958 q 393 967 401 958 q 385 988 385 975 q 390 1006 385 994 l 499 1150 q 533 1168 513 1168 l 558 1168 q 593 1150 579 1168 l 701 1006 q 707 988 707 994 q 699 967 707 975 q 678 958 690 958 q 654 971 663 958 l 550 1110 l 542 1110 l 438 971 q 414 958 429 958 z "},"K":{"ha":749,"x_min":125,"x_max":721,"o":"m 713 43 q 721 24 721 33 q 708 1 721 13 q 689 -7 699 -7 q 668 6 678 -7 l 300 463 l 183 343 l 183 29 q 154 0 183 0 q 125 29 125 0 l 125 850 q 154 879 125 879 q 183 850 183 879 l 183 428 l 615 869 q 636 879 625 879 q 656 869 646 879 q 667 849 667 858 q 657 828 667 840 l 340 504 l 713 43 z "},"Ķ":{"ha":749,"x_min":125,"x_max":721,"o":"m 713 43 q 721 24 721 33 q 708 1 721 13 q 689 -7 699 -7 q 668 6 678 -7 l 300 463 l 183 343 l 183 29 q 154 0 183 0 q 125 29 125 0 l 125 850 q 154 879 125 879 q 183 850 183 879 l 183 428 l 615 869 q 636 879 625 879 q 656 869 646 879 q 667 849 667 858 q 657 828 667 840 l 340 504 l 713 43 m 438 -121 q 429 -146 438 -137 l 383 -250 q 361 -268 375 -268 q 343 -261 350 -268 q 338 -242 336 -254 l 363 -97 q 390 -68 363 -68 l 410 -68 q 430 -76 422 -68 q 438 -99 438 -85 l 438 -121 z "},"L":{"ha":675,"x_min":125,"x_max":647,"o":"m 154 0 q 125 29 125 0 l 125 850 q 154 879 125 879 q 183 850 183 879 l 183 58 l 618 58 q 647 29 647 58 q 618 0 647 0 l 154 0 z "},"Ǉ":{"ha":1361,"x_min":125,"x_max":1250,"o":"m 154 0 q 125 29 125 0 l 125 850 q 154 879 125 879 q 183 850 183 879 l 183 58 l 618 58 q 647 29 647 58 q 618 0 647 0 l 154 0 m 958 0 q 771 53 831 0 q 706 224 711 106 l 706 228 q 733 254 706 254 q 764 225 763 254 q 812 95 768 132 q 958 58 856 58 l 996 58 q 1113 76 1071 58 q 1174 137 1156 94 q 1192 254 1192 179 l 1192 850 q 1221 879 1192 879 q 1250 850 1250 879 l 1250 254 q 1190 60 1250 119 q 996 0 1131 0 l 958 0 z "},"Ĺ":{"ha":675,"x_min":104,"x_max":647,"o":"m 154 0 q 125 29 125 0 l 125 850 q 154 879 125 879 q 183 850 183 879 l 183 58 l 618 58 q 647 29 647 58 q 618 0 647 0 l 154 0 m 115 965 q 104 988 104 975 q 111 1007 104 999 l 236 1154 q 258 1167 246 1167 q 278 1158 269 1167 q 289 1136 289 1149 q 282 1117 289 1125 l 157 969 q 135 957 146 957 q 115 965 124 957 z "},"Ľ":{"ha":675,"x_min":125,"x_max":647,"o":"m 154 0 q 125 29 125 0 l 125 850 q 154 879 125 879 q 183 850 183 879 l 183 58 l 618 58 q 647 29 647 58 q 618 0 647 0 l 154 0 m 438 842 q 431 818 438 828 l 386 715 q 364 697 378 697 q 347 704 354 697 q 342 722 340 711 l 365 864 q 393 893 365 893 l 411 893 q 438 863 438 893 l 438 842 z "},"Ļ":{"ha":675,"x_min":125,"x_max":647,"o":"m 154 0 q 125 29 125 0 l 125 850 q 154 879 125 879 q 183 850 183 879 l 183 58 l 618 58 q 647 29 647 58 q 618 0 647 0 l 154 0 m 439 -121 q 431 -146 439 -137 l 385 -250 q 363 -268 376 -268 q 344 -261 351 -268 q 339 -242 338 -254 l 364 -97 q 392 -68 364 -68 l 411 -68 q 431 -76 424 -68 q 439 -99 439 -85 l 439 -121 z "},"Ŀ":{"ha":675,"x_min":125,"x_max":647,"o":"m 154 0 q 125 29 125 0 l 125 850 q 154 879 125 879 q 183 850 183 879 l 183 58 l 618 58 q 647 29 647 58 q 618 0 647 0 l 154 0 m 451 425 q 417 461 417 425 l 417 485 q 451 519 417 519 l 475 519 q 510 485 510 519 l 510 461 q 475 425 510 425 l 451 425 z "},"ǈ":{"ha":928,"x_min":125,"x_max":829,"o":"m 154 0 q 125 29 125 0 l 125 850 q 154 879 125 879 q 183 850 183 879 l 183 58 l 618 58 q 647 29 647 58 q 618 0 647 0 l 154 0 m 589 -249 q 598 -227 589 -235 q 621 -219 607 -219 q 717 -192 690 -219 q 744 -96 744 -165 l 744 611 q 774 640 744 640 q 803 611 803 640 l 803 -96 q 759 -234 803 -190 q 621 -278 715 -278 q 598 -270 607 -278 q 589 -249 589 -262 m 760 771 q 718 814 718 771 l 718 842 q 760 883 718 883 l 788 883 q 829 842 829 883 l 829 814 q 818 782 829 793 q 788 771 807 771 l 760 771 z "},"Ł":{"ha":675,"x_min":1,"x_max":647,"o":"m 618 58 q 647 29 647 58 q 618 0 647 0 l 154 0 q 125 29 125 0 l 125 353 l 50 296 q 31 289 39 289 q 8 301 18 289 q 1 321 1 313 q 14 342 1 332 l 125 426 l 125 850 q 154 879 125 879 q 183 850 183 879 l 183 471 l 367 610 q 386 617 378 617 q 407 604 396 617 q 415 586 415 594 q 401 564 415 575 l 183 397 l 183 58 l 618 58 z "},"M":{"ha":1065,"x_min":125,"x_max":940,"o":"m 913 879 q 940 850 940 879 l 940 29 q 911 0 940 0 q 882 29 882 0 l 882 761 l 568 278 q 533 258 557 258 q 499 278 510 258 l 183 763 l 183 29 q 154 0 183 0 q 125 29 125 0 l 125 850 q 154 879 125 879 q 189 860 178 879 l 533 329 l 878 860 q 913 879 889 879 z "},"N":{"ha":954,"x_min":125,"x_max":829,"o":"m 800 879 q 829 850 829 879 l 829 29 q 800 0 829 0 q 769 17 785 0 l 183 768 l 183 29 q 154 0 183 0 q 125 29 125 0 l 125 850 q 154 879 125 879 q 185 863 171 879 l 771 111 l 771 850 q 800 879 771 879 z "},"Ǌ":{"ha":1640,"x_min":125,"x_max":1529,"o":"m 800 879 q 829 850 829 879 l 829 29 q 800 0 829 0 q 769 17 785 0 l 183 768 l 183 29 q 154 0 183 0 q 125 29 125 0 l 125 850 q 154 879 125 879 q 185 863 171 879 l 771 111 l 771 850 q 800 879 771 879 m 1238 0 q 1050 53 1110 0 q 985 224 990 106 l 985 228 q 1013 254 985 254 q 1043 225 1042 254 q 1091 95 1047 132 q 1238 58 1135 58 l 1275 58 q 1392 76 1350 58 q 1453 137 1435 94 q 1471 254 1471 179 l 1471 850 q 1500 879 1471 879 q 1529 850 1529 879 l 1529 254 q 1469 60 1529 119 q 1275 0 1410 0 l 1238 0 z "},"Ń":{"ha":954,"x_min":125,"x_max":829,"o":"m 800 879 q 829 850 829 879 l 829 29 q 800 0 829 0 q 769 17 785 0 l 183 768 l 183 29 q 154 0 183 0 q 125 29 125 0 l 125 850 q 154 879 125 879 q 185 863 171 879 l 771 111 l 771 850 q 800 879 771 879 m 451 965 q 440 988 440 975 q 447 1007 440 999 l 572 1154 q 594 1167 582 1167 q 614 1158 606 1167 q 625 1136 625 1149 q 618 1117 625 1125 l 493 969 q 471 957 482 957 q 451 965 460 957 z "},"Ň":{"ha":954,"x_min":125,"x_max":829,"o":"m 800 879 q 829 850 829 879 l 829 29 q 800 0 829 0 q 769 17 785 0 l 183 768 l 183 29 q 154 0 183 0 q 125 29 125 0 l 125 850 q 154 879 125 879 q 185 863 171 879 l 771 111 l 771 850 q 800 879 771 879 m 363 1168 q 382 1161 372 1168 l 522 1044 l 539 1044 l 679 1161 q 699 1168 689 1168 q 719 1160 711 1168 q 728 1139 728 1151 q 717 1117 728 1125 l 576 999 q 540 986 560 986 l 521 986 q 485 999 501 986 l 344 1117 q 333 1139 333 1125 q 342 1160 333 1151 q 363 1168 350 1168 z "},"Ņ":{"ha":954,"x_min":125,"x_max":829,"o":"m 800 879 q 829 850 829 879 l 829 29 q 800 0 829 0 q 769 17 785 0 l 183 768 l 183 29 q 154 0 183 0 q 125 29 125 0 l 125 850 q 154 879 125 879 q 185 863 171 879 l 771 111 l 771 850 q 800 879 771 879 m 549 -121 q 540 -146 549 -137 l 494 -250 q 472 -268 486 -268 q 454 -261 461 -268 q 449 -242 447 -254 l 474 -97 q 501 -68 474 -68 l 521 -68 q 541 -76 533 -68 q 549 -99 549 -85 l 549 -121 z "},"Ŋ":{"ha":954,"x_min":125,"x_max":829,"o":"m 800 879 q 829 850 829 879 l 829 -107 q 788 -237 829 -196 q 658 -278 747 -278 l 507 -278 q 384 -244 425 -278 q 338 -137 343 -210 l 338 -135 q 345 -114 338 -121 q 365 -107 353 -107 q 396 -136 394 -107 q 424 -201 399 -183 q 507 -219 450 -219 l 658 -219 q 747 -196 724 -219 q 771 -107 771 -172 l 771 15 l 769 17 l 183 768 l 183 29 q 154 0 183 0 q 125 29 125 0 l 125 850 q 154 879 125 879 q 185 863 171 879 l 771 111 l 771 850 q 800 879 771 879 z "},"ǋ":{"ha":1254,"x_min":125,"x_max":1156,"o":"m 800 879 q 829 850 829 879 l 829 29 q 800 0 829 0 q 769 17 785 0 l 183 768 l 183 29 q 154 0 183 0 q 125 29 125 0 l 125 850 q 154 879 125 879 q 185 863 171 879 l 771 111 l 771 850 q 800 879 771 879 m 915 -249 q 924 -227 915 -235 q 947 -219 933 -219 q 1044 -192 1017 -219 q 1071 -96 1071 -165 l 1071 611 q 1100 640 1071 640 q 1129 611 1129 640 l 1129 -96 q 1085 -234 1129 -190 q 947 -278 1042 -278 q 924 -270 933 -278 q 915 -249 915 -262 m 1086 771 q 1044 814 1044 771 l 1044 842 q 1086 883 1044 883 l 1114 883 q 1156 842 1156 883 l 1156 814 q 1144 782 1156 793 q 1114 771 1133 771 l 1086 771 z "},"Ñ":{"ha":954,"x_min":125,"x_max":829,"o":"m 800 879 q 829 850 829 879 l 829 29 q 800 0 829 0 q 769 17 785 0 l 183 768 l 183 29 q 154 0 183 0 q 125 29 125 0 l 125 850 q 154 879 125 879 q 185 863 171 879 l 771 111 l 771 850 q 800 879 771 879 m 572 1001 q 517 1015 539 1001 q 474 1051 494 1029 q 442 1078 454 1071 q 408 1086 429 1086 q 370 1073 383 1086 q 344 1022 357 1060 q 334 1007 342 1013 q 317 1001 326 1001 q 292 1015 300 1001 q 289 1040 283 1029 q 336 1120 308 1096 q 408 1144 364 1144 q 469 1130 444 1144 q 515 1092 493 1115 q 546 1066 535 1072 q 572 1060 557 1060 q 612 1074 596 1060 q 638 1124 628 1089 q 667 1144 644 1144 q 690 1131 682 1144 q 693 1107 697 1118 q 644 1028 674 1054 q 572 1001 615 1001 z "},"O":{"ha":953,"x_min":111,"x_max":842,"o":"m 393 0 q 178 67 246 0 q 111 282 111 135 l 111 597 q 178 813 111 746 q 392 879 244 881 l 560 879 q 775 813 708 879 q 842 597 842 746 l 842 282 q 775 67 842 135 q 560 0 708 0 l 393 0 m 560 58 q 733 109 683 58 q 783 282 783 160 l 783 597 q 733 771 783 721 q 560 821 683 821 l 392 821 q 219 772 269 822 q 169 597 169 721 l 169 282 q 220 109 169 160 q 393 58 271 58 l 560 58 z "},"Ó":{"ha":953,"x_min":111,"x_max":842,"o":"m 393 0 q 178 67 246 0 q 111 282 111 135 l 111 597 q 178 813 111 746 q 392 879 244 881 l 560 879 q 775 813 708 879 q 842 597 842 746 l 842 282 q 775 67 842 135 q 560 0 708 0 l 393 0 m 560 58 q 733 109 683 58 q 783 282 783 160 l 783 597 q 733 771 783 721 q 560 821 683 821 l 392 821 q 219 772 269 822 q 169 597 169 721 l 169 282 q 220 109 169 160 q 393 58 271 58 l 560 58 m 438 965 q 426 988 426 975 q 433 1007 426 999 l 558 1154 q 581 1167 568 1167 q 600 1158 592 1167 q 611 1136 611 1149 q 604 1117 611 1125 l 479 969 q 457 957 468 957 q 438 965 446 957 z "},"Ŏ":{"ha":953,"x_min":111,"x_max":842,"o":"m 393 0 q 178 67 246 0 q 111 282 111 135 l 111 597 q 178 813 111 746 q 392 879 244 881 l 560 879 q 775 813 708 879 q 842 597 842 746 l 842 282 q 775 67 842 135 q 560 0 708 0 l 393 0 m 560 58 q 733 109 683 58 q 783 282 783 160 l 783 597 q 733 771 783 721 q 560 821 683 821 l 392 821 q 219 772 269 822 q 169 597 169 721 l 169 282 q 220 109 169 160 q 393 58 271 58 l 560 58 m 474 960 q 349 1003 392 960 q 307 1128 307 1046 l 307 1131 q 336 1160 307 1160 q 365 1131 365 1160 l 365 1128 q 392 1043 365 1069 q 476 1017 418 1017 q 562 1044 536 1018 q 588 1128 588 1069 l 588 1131 q 617 1160 588 1160 q 646 1131 646 1160 l 646 1128 q 474 960 646 960 z "},"Ô":{"ha":953,"x_min":111,"x_max":842,"o":"m 393 0 q 178 67 246 0 q 111 282 111 135 l 111 597 q 178 813 111 746 q 392 879 244 881 l 560 879 q 775 813 708 879 q 842 597 842 746 l 842 282 q 775 67 842 135 q 560 0 708 0 l 393 0 m 560 58 q 733 109 683 58 q 783 282 783 160 l 783 597 q 733 771 783 721 q 560 821 683 821 l 392 821 q 219 772 269 822 q 169 597 169 721 l 169 282 q 220 109 169 160 q 393 58 271 58 l 560 58 m 306 969 q 285 978 293 969 q 276 999 276 986 q 288 1021 276 1013 l 428 1139 q 464 1151 444 1151 l 483 1151 q 519 1139 503 1151 l 660 1021 q 671 999 671 1013 q 663 978 671 986 q 642 969 654 969 q 622 976 632 969 l 482 1093 l 465 1093 l 325 976 q 306 969 315 969 z "},"Ố":{"ha":953,"x_min":111,"x_max":842,"o":"m 393 0 q 178 67 246 0 q 111 282 111 135 l 111 597 q 178 813 111 746 q 392 879 244 881 l 560 879 q 775 813 708 879 q 842 597 842 746 l 842 282 q 775 67 842 135 q 560 0 708 0 l 393 0 m 560 58 q 733 109 683 58 q 783 282 783 160 l 783 597 q 733 771 783 721 q 560 821 683 821 l 392 821 q 219 772 269 822 q 169 597 169 721 l 169 282 q 220 109 169 160 q 393 58 271 58 l 560 58 m 604 1106 q 583 1114 592 1106 q 575 1135 575 1122 q 582 1154 575 1144 l 678 1267 q 700 1278 686 1278 q 721 1269 713 1278 q 729 1249 729 1261 q 722 1229 729 1239 l 626 1117 q 604 1106 618 1106 m 313 969 q 292 978 300 969 q 283 999 283 986 q 294 1021 283 1013 l 435 1139 q 471 1151 451 1151 l 490 1151 q 526 1139 510 1151 l 667 1021 q 678 999 678 1013 q 669 978 678 986 q 649 969 661 969 q 629 976 639 969 l 489 1093 l 472 1093 l 332 976 q 313 969 322 969 z "},"Ộ":{"ha":953,"x_min":111,"x_max":842,"o":"m 393 0 q 178 67 246 0 q 111 282 111 135 l 111 597 q 178 813 111 746 q 392 879 244 881 l 560 879 q 775 813 708 879 q 842 597 842 746 l 842 282 q 775 67 842 135 q 560 0 708 0 l 393 0 m 560 58 q 733 109 683 58 q 783 282 783 160 l 783 597 q 733 771 783 721 q 560 821 683 821 l 392 821 q 219 772 269 822 q 169 597 169 721 l 169 282 q 220 109 169 160 q 393 58 271 58 l 560 58 m 464 -208 q 429 -172 429 -208 l 429 -149 q 464 -114 429 -114 l 488 -114 q 522 -149 522 -114 l 522 -172 q 488 -208 522 -208 l 464 -208 m 306 969 q 285 978 293 969 q 276 999 276 986 q 288 1021 276 1013 l 428 1139 q 464 1151 444 1151 l 483 1151 q 519 1139 503 1151 l 660 1021 q 671 999 671 1013 q 663 978 671 986 q 642 969 654 969 q 622 976 632 969 l 482 1093 l 465 1093 l 325 976 q 306 969 315 969 z "},"Ồ":{"ha":953,"x_min":111,"x_max":842,"o":"m 393 0 q 178 67 246 0 q 111 282 111 135 l 111 597 q 178 813 111 746 q 392 879 244 881 l 560 879 q 775 813 708 879 q 842 597 842 746 l 842 282 q 775 67 842 135 q 560 0 708 0 l 393 0 m 560 58 q 733 109 683 58 q 783 282 783 160 l 783 597 q 733 771 783 721 q 560 821 683 821 l 392 821 q 219 772 269 822 q 169 597 169 721 l 169 282 q 220 109 169 160 q 393 58 271 58 l 560 58 m 321 1106 q 299 1117 307 1106 l 203 1229 q 196 1249 196 1239 q 204 1269 196 1261 q 225 1278 213 1278 q 247 1267 239 1278 l 343 1154 q 350 1135 350 1144 q 342 1114 350 1122 q 321 1106 333 1106 m 318 969 q 297 978 306 969 q 289 999 289 986 q 300 1021 289 1013 l 440 1139 q 476 1151 457 1151 l 496 1151 q 532 1139 515 1151 l 672 1021 q 683 999 683 1013 q 675 978 683 986 q 654 969 667 969 q 635 976 644 969 l 494 1093 l 478 1093 l 338 976 q 318 969 328 969 z "},"Ổ":{"ha":953,"x_min":111,"x_max":842,"o":"m 393 0 q 178 67 246 0 q 111 282 111 135 l 111 597 q 178 813 111 746 q 392 879 244 881 l 560 879 q 775 813 708 879 q 842 597 842 746 l 842 282 q 775 67 842 135 q 560 0 708 0 l 393 0 m 560 58 q 733 109 683 58 q 783 282 783 160 l 783 597 q 733 771 783 721 q 560 821 683 821 l 392 821 q 219 772 269 822 q 169 597 169 721 l 169 282 q 220 109 169 160 q 393 58 271 58 l 560 58 m 307 969 q 286 978 294 969 q 278 999 278 986 q 289 1021 278 1013 l 429 1139 q 465 1151 446 1151 l 485 1151 q 521 1139 504 1151 l 661 1021 q 672 999 672 1013 q 664 978 672 986 q 643 969 656 969 q 624 976 633 969 l 483 1093 l 467 1093 l 326 976 q 307 969 317 969 m 604 1096 q 575 1125 575 1096 q 593 1185 575 1164 q 640 1224 611 1206 q 669 1245 663 1238 q 676 1267 676 1253 q 665 1312 676 1300 q 619 1324 653 1324 q 574 1312 586 1324 q 563 1267 563 1300 q 533 1238 563 1238 q 504 1267 504 1238 q 619 1382 504 1382 q 735 1267 735 1382 q 717 1211 735 1231 q 671 1174 700 1192 q 640 1149 647 1158 q 633 1125 633 1140 q 604 1096 633 1096 z "},"Ỗ":{"ha":953,"x_min":111,"x_max":842,"o":"m 393 0 q 178 67 246 0 q 111 282 111 135 l 111 597 q 178 813 111 746 q 392 879 244 881 l 560 879 q 775 813 708 879 q 842 597 842 746 l 842 282 q 775 67 842 135 q 560 0 708 0 l 393 0 m 560 58 q 733 109 683 58 q 783 282 783 160 l 783 597 q 733 771 783 721 q 560 821 683 821 l 392 821 q 219 772 269 822 q 169 597 169 721 l 169 282 q 220 109 169 160 q 393 58 271 58 l 560 58 m 310 969 q 289 978 297 969 q 281 999 281 986 q 292 1021 281 1013 l 432 1139 q 468 1151 449 1151 l 488 1151 q 524 1139 507 1151 l 664 1021 q 675 999 675 1013 q 667 978 675 986 q 646 969 658 969 q 626 976 636 969 l 486 1093 l 469 1093 l 329 976 q 310 969 319 969 m 561 1175 q 506 1189 528 1175 q 463 1225 483 1203 q 431 1252 443 1244 q 397 1260 418 1260 q 359 1247 372 1260 q 333 1196 346 1233 q 323 1181 331 1186 q 306 1175 315 1175 q 281 1189 289 1175 q 278 1214 272 1203 q 325 1294 297 1269 q 397 1318 353 1318 q 458 1303 433 1318 q 504 1265 482 1289 q 535 1240 524 1246 q 561 1233 546 1233 q 601 1248 585 1233 q 626 1297 617 1263 q 656 1318 633 1318 q 678 1305 671 1318 q 682 1281 686 1292 q 633 1201 663 1228 q 561 1175 604 1175 z "},"Ȍ":{"ha":953,"x_min":111,"x_max":842,"o":"m 411 978 q 393 969 403 969 q 374 981 385 969 l 261 1114 q 254 1132 254 1124 q 265 1151 254 1143 q 282 1158 272 1158 q 303 1147 296 1158 l 415 1015 q 422 997 422 1006 q 411 978 422 989 m 564 978 q 546 969 556 969 q 526 981 538 969 l 414 1114 q 407 1132 407 1124 q 418 1151 407 1143 q 435 1158 425 1158 q 456 1147 449 1158 l 568 1015 q 575 997 575 1006 q 564 978 575 989 m 393 0 q 178 67 246 0 q 111 282 111 135 l 111 597 q 178 813 111 746 q 392 879 244 881 l 560 879 q 775 813 708 879 q 842 597 842 746 l 842 282 q 775 67 842 135 q 560 0 708 0 l 393 0 m 560 58 q 733 109 683 58 q 783 282 783 160 l 783 597 q 733 771 783 721 q 560 821 683 821 l 392 821 q 219 772 269 822 q 169 597 169 721 l 169 282 q 220 109 169 160 q 393 58 271 58 l 560 58 z "},"Ö":{"ha":953,"x_min":111,"x_max":842,"o":"m 393 0 q 178 67 246 0 q 111 282 111 135 l 111 597 q 178 813 111 746 q 392 879 244 881 l 560 879 q 775 813 708 879 q 842 597 842 746 l 842 282 q 775 67 842 135 q 560 0 708 0 l 393 0 m 560 58 q 733 109 683 58 q 783 282 783 160 l 783 597 q 733 771 783 721 q 560 821 683 821 l 392 821 q 219 772 269 822 q 169 597 169 721 l 169 282 q 220 109 169 160 q 393 58 271 58 l 560 58 m 365 1001 q 331 1038 331 1001 l 331 1061 q 365 1096 331 1096 l 389 1096 q 424 1061 424 1096 l 424 1038 q 389 1001 424 1001 l 365 1001 m 564 1001 q 529 1038 529 1001 l 529 1061 q 564 1096 529 1096 l 588 1096 q 622 1061 622 1096 l 622 1038 q 588 1001 622 1001 l 564 1001 z "},"Ȫ":{"ha":953,"x_min":111,"x_max":842,"o":"m 393 0 q 178 67 246 0 q 111 282 111 135 l 111 597 q 178 813 111 746 q 392 879 244 881 l 560 879 q 775 813 708 879 q 842 597 842 746 l 842 282 q 775 67 842 135 q 560 0 708 0 l 393 0 m 560 58 q 733 109 683 58 q 783 282 783 160 l 783 597 q 733 771 783 721 q 560 821 683 821 l 392 821 q 219 772 269 822 q 169 597 169 721 l 169 282 q 220 109 169 160 q 393 58 271 58 l 560 58 m 365 1001 q 331 1038 331 1001 l 331 1061 q 365 1096 331 1096 l 389 1096 q 424 1061 424 1096 l 424 1038 q 389 1001 424 1001 l 365 1001 m 564 1001 q 529 1038 529 1001 l 529 1061 q 564 1096 529 1096 l 588 1096 q 622 1061 622 1096 l 622 1038 q 588 1001 622 1001 l 564 1001 m 301 1267 q 272 1296 272 1267 q 301 1325 272 1325 l 653 1325 q 682 1296 682 1325 q 653 1267 682 1267 l 301 1267 z "},"Ȱ":{"ha":953,"x_min":111,"x_max":842,"o":"m 393 0 q 178 67 246 0 q 111 282 111 135 l 111 597 q 178 813 111 746 q 392 879 244 881 l 560 879 q 775 813 708 879 q 842 597 842 746 l 842 282 q 775 67 842 135 q 560 0 708 0 l 393 0 m 560 58 q 733 109 683 58 q 783 282 783 160 l 783 597 q 733 771 783 721 q 560 821 683 821 l 392 821 q 219 772 269 822 q 169 597 169 721 l 169 282 q 220 109 169 160 q 393 58 271 58 l 560 58 m 463 1010 q 421 1053 421 1010 l 421 1081 q 463 1122 421 1122 l 490 1122 q 532 1081 532 1122 l 532 1053 q 521 1021 532 1032 q 490 1010 510 1010 l 463 1010 m 301 1293 q 272 1322 272 1293 q 301 1351 272 1351 l 653 1351 q 682 1322 682 1351 q 653 1293 682 1293 l 301 1293 z "},"Ọ":{"ha":953,"x_min":111,"x_max":842,"o":"m 393 0 q 178 67 246 0 q 111 282 111 135 l 111 597 q 178 813 111 746 q 392 879 244 881 l 560 879 q 775 813 708 879 q 842 597 842 746 l 842 282 q 775 67 842 135 q 560 0 708 0 l 393 0 m 560 58 q 733 109 683 58 q 783 282 783 160 l 783 597 q 733 771 783 721 q 560 821 683 821 l 392 821 q 219 772 269 822 q 169 597 169 721 l 169 282 q 220 109 169 160 q 393 58 271 58 l 560 58 m 464 -208 q 429 -172 429 -208 l 429 -149 q 464 -114 429 -114 l 488 -114 q 522 -149 522 -114 l 522 -172 q 488 -208 522 -208 l 464 -208 z "},"Ò":{"ha":953,"x_min":111,"x_max":842,"o":"m 393 0 q 178 67 246 0 q 111 282 111 135 l 111 597 q 178 813 111 746 q 392 879 244 881 l 560 879 q 775 813 708 879 q 842 597 842 746 l 842 282 q 775 67 842 135 q 560 0 708 0 l 393 0 m 560 58 q 733 109 683 58 q 783 282 783 160 l 783 597 q 733 771 783 721 q 560 821 683 821 l 392 821 q 219 772 269 822 q 169 597 169 721 l 169 282 q 220 109 169 160 q 393 58 271 58 l 560 58 m 515 965 q 496 957 507 957 q 474 969 483 957 l 349 1117 q 342 1136 342 1125 q 353 1158 342 1149 q 372 1167 361 1167 q 394 1154 383 1167 l 519 1007 q 526 988 526 999 q 515 965 526 975 z "},"Ỏ":{"ha":953,"x_min":111,"x_max":842,"o":"m 393 0 q 178 67 246 0 q 111 282 111 135 l 111 597 q 178 813 111 746 q 392 879 244 881 l 560 879 q 775 813 708 879 q 842 597 842 746 l 842 282 q 775 67 842 135 q 560 0 708 0 l 393 0 m 560 58 q 733 109 683 58 q 783 282 783 160 l 783 597 q 733 771 783 721 q 560 821 683 821 l 392 821 q 219 772 269 822 q 169 597 169 721 l 169 282 q 220 109 169 160 q 393 58 271 58 l 560 58 m 476 958 q 447 988 447 958 q 465 1047 447 1026 q 513 1086 483 1068 q 542 1108 535 1100 q 549 1129 549 1115 q 537 1174 549 1163 q 492 1186 525 1186 q 447 1174 458 1186 q 435 1129 435 1163 q 406 1100 435 1100 q 376 1129 376 1100 q 492 1244 376 1244 q 607 1129 607 1244 q 590 1074 607 1093 q 543 1036 572 1054 q 513 1012 519 1021 q 506 988 506 1003 q 476 958 506 958 z "},"Ơ":{"ha":953,"x_min":111,"x_max":889,"o":"m 860 969 q 889 940 889 969 l 889 910 q 796 786 889 807 q 842 597 842 722 l 842 282 q 775 67 842 135 q 560 0 708 0 l 393 0 q 178 67 246 0 q 111 282 111 135 l 111 597 q 178 813 111 746 q 392 879 244 881 l 560 879 q 740 839 676 879 q 811 854 792 839 q 831 910 831 869 l 831 940 q 860 969 831 969 m 783 597 q 733 771 783 721 q 560 821 683 821 l 392 821 q 219 772 269 822 q 169 597 169 721 l 169 282 q 220 109 169 160 q 393 58 271 58 l 560 58 q 733 109 683 58 q 783 282 783 160 l 783 597 z "},"Ớ":{"ha":953,"x_min":111,"x_max":889,"o":"m 860 969 q 889 940 889 969 l 889 910 q 796 786 889 807 q 842 597 842 722 l 842 282 q 775 67 842 135 q 560 0 708 0 l 393 0 q 178 67 246 0 q 111 282 111 135 l 111 597 q 178 813 111 746 q 392 879 244 881 l 560 879 q 740 839 676 879 q 811 854 792 839 q 831 910 831 869 l 831 940 q 860 969 831 969 m 783 597 q 733 771 783 721 q 560 821 683 821 l 392 821 q 219 772 269 822 q 169 597 169 721 l 169 282 q 220 109 169 160 q 393 58 271 58 l 560 58 q 733 109 683 58 q 783 282 783 160 l 783 597 m 438 965 q 426 988 426 975 q 433 1007 426 999 l 558 1154 q 581 1167 568 1167 q 600 1158 592 1167 q 611 1136 611 1149 q 604 1117 611 1125 l 479 969 q 457 957 468 957 q 438 965 446 957 z "},"Ợ":{"ha":953,"x_min":111,"x_max":889,"o":"m 860 969 q 889 940 889 969 l 889 910 q 796 786 889 807 q 842 597 842 722 l 842 282 q 775 67 842 135 q 560 0 708 0 l 393 0 q 178 67 246 0 q 111 282 111 135 l 111 597 q 178 813 111 746 q 392 879 244 881 l 560 879 q 740 839 676 879 q 811 854 792 839 q 831 910 831 869 l 831 940 q 860 969 831 969 m 783 597 q 733 771 783 721 q 560 821 683 821 l 392 821 q 219 772 269 822 q 169 597 169 721 l 169 282 q 220 109 169 160 q 393 58 271 58 l 560 58 q 733 109 683 58 q 783 282 783 160 l 783 597 m 464 -208 q 429 -172 429 -208 l 429 -149 q 464 -114 429 -114 l 488 -114 q 522 -149 522 -114 l 522 -172 q 488 -208 522 -208 l 464 -208 z "},"Ờ":{"ha":953,"x_min":111,"x_max":889,"o":"m 860 969 q 889 940 889 969 l 889 910 q 796 786 889 807 q 842 597 842 722 l 842 282 q 775 67 842 135 q 560 0 708 0 l 393 0 q 178 67 246 0 q 111 282 111 135 l 111 597 q 178 813 111 746 q 392 879 244 881 l 560 879 q 740 839 676 879 q 811 854 792 839 q 831 910 831 869 l 831 940 q 860 969 831 969 m 783 597 q 733 771 783 721 q 560 821 683 821 l 392 821 q 219 772 269 822 q 169 597 169 721 l 169 282 q 220 109 169 160 q 393 58 271 58 l 560 58 q 733 109 683 58 q 783 282 783 160 l 783 597 m 515 965 q 496 957 507 957 q 474 969 483 957 l 349 1117 q 342 1136 342 1125 q 353 1158 342 1149 q 372 1167 361 1167 q 394 1154 383 1167 l 519 1007 q 526 988 526 999 q 515 965 526 975 z "},"Ở":{"ha":953,"x_min":111,"x_max":889,"o":"m 860 969 q 889 940 889 969 l 889 910 q 796 786 889 807 q 842 597 842 722 l 842 282 q 775 67 842 135 q 560 0 708 0 l 393 0 q 178 67 246 0 q 111 282 111 135 l 111 597 q 178 813 111 746 q 392 879 244 881 l 560 879 q 740 839 676 879 q 811 854 792 839 q 831 910 831 869 l 831 940 q 860 969 831 969 m 783 597 q 733 771 783 721 q 560 821 683 821 l 392 821 q 219 772 269 822 q 169 597 169 721 l 169 282 q 220 109 169 160 q 393 58 271 58 l 560 58 q 733 109 683 58 q 783 282 783 160 l 783 597 m 476 958 q 447 988 447 958 q 465 1047 447 1026 q 513 1086 483 1068 q 542 1108 535 1100 q 549 1129 549 1115 q 537 1174 549 1163 q 492 1186 525 1186 q 447 1174 458 1186 q 435 1129 435 1163 q 406 1100 435 1100 q 376 1129 376 1100 q 492 1244 376 1244 q 607 1129 607 1244 q 590 1074 607 1093 q 543 1036 572 1054 q 513 1012 519 1021 q 506 988 506 1003 q 476 958 506 958 z "},"Ỡ":{"ha":953,"x_min":111,"x_max":889,"o":"m 860 969 q 889 940 889 969 l 889 910 q 796 786 889 807 q 842 597 842 722 l 842 282 q 775 67 842 135 q 560 0 708 0 l 393 0 q 178 67 246 0 q 111 282 111 135 l 111 597 q 178 813 111 746 q 392 879 244 881 l 560 879 q 740 839 676 879 q 811 854 792 839 q 831 910 831 869 l 831 940 q 860 969 831 969 m 783 597 q 733 771 783 721 q 560 821 683 821 l 392 821 q 219 772 269 822 q 169 597 169 721 l 169 282 q 220 109 169 160 q 393 58 271 58 l 560 58 q 733 109 683 58 q 783 282 783 160 l 783 597 m 558 1001 q 503 1015 525 1001 q 460 1051 481 1029 q 428 1078 440 1071 q 394 1086 415 1086 q 356 1073 369 1086 q 331 1022 343 1060 q 320 1007 328 1013 q 303 1001 313 1001 q 278 1015 286 1001 q 275 1040 269 1029 q 322 1120 294 1096 q 394 1144 350 1144 q 455 1130 431 1144 q 501 1092 479 1115 q 532 1066 521 1072 q 558 1060 543 1060 q 598 1074 582 1060 q 624 1124 614 1089 q 653 1144 631 1144 q 676 1131 668 1144 q 679 1107 683 1118 q 631 1028 660 1054 q 558 1001 601 1001 z "},"Ő":{"ha":953,"x_min":111,"x_max":842,"o":"m 393 0 q 178 67 246 0 q 111 282 111 135 l 111 597 q 178 813 111 746 q 392 879 244 881 l 560 879 q 775 813 708 879 q 842 597 842 746 l 842 282 q 775 67 842 135 q 560 0 708 0 l 393 0 m 560 58 q 733 109 683 58 q 783 282 783 160 l 783 597 q 733 771 783 721 q 560 821 683 821 l 392 821 q 219 772 269 822 q 169 597 169 721 l 169 282 q 220 109 169 160 q 393 58 271 58 l 560 58 z "},"Ȏ":{"ha":953,"x_min":111,"x_max":842,"o":"m 393 0 q 178 67 246 0 q 111 282 111 135 l 111 597 q 178 813 111 746 q 392 879 244 881 l 560 879 q 775 813 708 879 q 842 597 842 746 l 842 282 q 775 67 842 135 q 560 0 708 0 l 393 0 m 560 58 q 733 109 683 58 q 783 282 783 160 l 783 597 q 733 771 783 721 q 560 821 683 821 l 392 821 q 219 772 269 822 q 169 597 169 721 l 169 282 q 220 109 169 160 q 393 58 271 58 l 560 58 m 474 1167 q 646 999 646 1167 l 646 996 q 617 967 646 967 q 588 996 588 967 l 588 999 q 562 1083 588 1057 q 476 1110 536 1108 q 392 1083 418 1110 q 365 999 365 1057 l 365 996 q 336 967 365 967 q 307 996 307 967 l 307 999 q 349 1124 307 1081 q 474 1167 392 1167 z "},"Ō":{"ha":953,"x_min":111,"x_max":842,"o":"m 393 0 q 178 67 246 0 q 111 282 111 135 l 111 597 q 178 813 111 746 q 392 879 244 881 l 560 879 q 775 813 708 879 q 842 597 842 746 l 842 282 q 775 67 842 135 q 560 0 708 0 l 393 0 m 560 58 q 733 109 683 58 q 783 282 783 160 l 783 597 q 733 771 783 721 q 560 821 683 821 l 392 821 q 219 772 269 822 q 169 597 169 721 l 169 282 q 220 109 169 160 q 393 58 271 58 l 560 58 m 301 1050 q 272 1079 272 1050 q 301 1108 272 1108 l 653 1108 q 682 1079 682 1108 q 653 1050 682 1050 l 301 1050 z "},"Ǫ":{"ha":953,"x_min":111,"x_max":842,"o":"m 560 879 q 775 813 708 879 q 842 597 842 746 l 842 282 q 788 83 842 150 q 619 3 735 15 l 556 -81 q 536 -126 536 -107 q 554 -163 536 -149 q 600 -178 572 -178 q 682 -139 643 -178 q 703 -131 690 -131 q 724 -139 715 -131 q 732 -160 732 -147 q 724 -181 732 -172 q 665 -222 697 -207 q 600 -236 632 -236 q 513 -205 549 -236 q 478 -126 478 -174 q 508 -44 478 -83 l 543 0 l 393 0 q 178 67 246 0 q 111 282 111 135 l 111 597 q 178 813 111 746 q 392 879 244 881 l 560 879 m 783 597 q 733 771 783 721 q 560 821 683 821 l 392 821 q 219 772 269 822 q 169 597 169 721 l 169 282 q 220 109 169 160 q 393 58 271 58 l 560 58 q 733 109 683 58 q 783 282 783 160 l 783 597 z "},"Ø":{"ha":953,"x_min":111,"x_max":842,"o":"m 751 832 q 819 741 797 799 q 842 597 842 683 l 842 282 q 775 67 842 135 q 560 0 708 0 l 393 0 q 256 19 314 0 l 211 -53 q 189 -68 203 -68 q 171 -62 181 -68 q 156 -40 156 -54 q 161 -22 156 -32 l 203 46 q 133 138 156 79 q 111 282 111 196 l 111 597 q 178 813 111 746 q 392 879 244 881 l 560 879 q 699 858 643 879 l 749 940 q 771 956 757 956 q 789 950 779 956 q 804 928 804 942 q 799 910 804 919 l 751 832 m 169 282 q 185 167 169 213 q 233 97 200 122 l 668 808 q 560 821 625 821 l 392 821 q 219 772 269 822 q 169 597 169 721 l 169 282 m 783 597 q 769 711 783 667 q 721 782 754 756 l 286 71 q 393 58 329 58 l 560 58 q 733 109 683 58 q 783 282 783 160 l 783 597 z "},"Ǿ":{"ha":953,"x_min":111,"x_max":842,"o":"m 751 832 q 819 741 797 799 q 842 597 842 683 l 842 282 q 775 67 842 135 q 560 0 708 0 l 393 0 q 256 19 314 0 l 211 -53 q 189 -68 203 -68 q 171 -62 181 -68 q 156 -40 156 -54 q 161 -22 156 -32 l 203 46 q 133 138 156 79 q 111 282 111 196 l 111 597 q 178 813 111 746 q 392 879 244 881 l 560 879 q 699 858 643 879 l 749 940 q 771 956 757 956 q 789 950 779 956 q 804 928 804 942 q 799 910 804 919 l 751 832 m 169 282 q 185 167 169 213 q 233 97 200 122 l 668 808 q 560 821 625 821 l 392 821 q 219 772 269 822 q 169 597 169 721 l 169 282 m 783 597 q 769 711 783 667 q 721 782 754 756 l 286 71 q 393 58 329 58 l 560 58 q 733 109 683 58 q 783 282 783 160 l 783 597 m 438 965 q 426 988 426 975 q 433 1007 426 999 l 558 1154 q 581 1167 568 1167 q 600 1158 592 1167 q 611 1136 611 1149 q 604 1117 611 1125 l 479 969 q 457 957 468 957 q 438 965 446 957 z "},"Õ":{"ha":953,"x_min":111,"x_max":842,"o":"m 393 0 q 178 67 246 0 q 111 282 111 135 l 111 597 q 178 813 111 746 q 392 879 244 881 l 560 879 q 775 813 708 879 q 842 597 842 746 l 842 282 q 775 67 842 135 q 560 0 708 0 l 393 0 m 560 58 q 733 109 683 58 q 783 282 783 160 l 783 597 q 733 771 783 721 q 560 821 683 821 l 392 821 q 219 772 269 822 q 169 597 169 721 l 169 282 q 220 109 169 160 q 393 58 271 58 l 560 58 m 558 1001 q 503 1015 525 1001 q 460 1051 481 1029 q 428 1078 440 1071 q 394 1086 415 1086 q 356 1073 369 1086 q 331 1022 343 1060 q 320 1007 328 1013 q 303 1001 313 1001 q 278 1015 286 1001 q 275 1040 269 1029 q 322 1120 294 1096 q 394 1144 350 1144 q 455 1130 431 1144 q 501 1092 479 1115 q 532 1066 521 1072 q 558 1060 543 1060 q 598 1074 582 1060 q 624 1124 614 1089 q 653 1144 631 1144 q 676 1131 668 1144 q 679 1107 683 1118 q 631 1028 660 1054 q 558 1001 601 1001 z "},"Ȭ":{"ha":953,"x_min":111,"x_max":842,"o":"m 393 0 q 178 67 246 0 q 111 282 111 135 l 111 597 q 178 813 111 746 q 392 879 244 881 l 560 879 q 775 813 708 879 q 842 597 842 746 l 842 282 q 775 67 842 135 q 560 0 708 0 l 393 0 m 560 58 q 733 109 683 58 q 783 282 783 160 l 783 597 q 733 771 783 721 q 560 821 683 821 l 392 821 q 219 772 269 822 q 169 597 169 721 l 169 282 q 220 109 169 160 q 393 58 271 58 l 560 58 m 558 1001 q 503 1015 525 1001 q 460 1051 481 1029 q 428 1078 440 1071 q 394 1086 415 1086 q 356 1073 369 1086 q 331 1022 343 1060 q 320 1007 328 1013 q 303 1001 313 1001 q 278 1015 286 1001 q 275 1040 269 1029 q 322 1120 294 1096 q 394 1144 350 1144 q 455 1130 431 1144 q 501 1092 479 1115 q 532 1066 521 1072 q 558 1060 543 1060 q 598 1074 582 1060 q 624 1124 614 1089 q 653 1144 631 1144 q 676 1131 668 1144 q 679 1107 683 1118 q 631 1028 660 1054 q 558 1001 601 1001 m 301 1272 q 272 1301 272 1272 q 301 1331 272 1331 l 653 1331 q 682 1301 682 1331 q 653 1272 682 1272 l 301 1272 z "},"Œ":{"ha":1122,"x_min":111,"x_max":1074,"o":"m 1044 58 q 1074 29 1074 58 q 1044 0 1074 0 l 393 0 q 178 67 246 0 q 111 282 111 135 l 111 597 q 178 813 111 746 q 392 879 244 879 l 1044 879 q 1074 850 1074 879 q 1044 821 1074 821 l 643 821 l 643 475 l 881 475 q 910 446 910 475 q 881 417 910 417 l 643 417 l 643 58 l 1044 58 m 169 282 q 220 109 169 160 q 393 58 271 58 l 585 58 l 585 821 l 392 821 q 260 799 308 821 q 191 729 213 778 q 169 597 169 681 l 169 282 z "},"P":{"ha":754,"x_min":125,"x_max":713,"o":"m 479 879 q 653 820 594 879 q 713 646 713 761 l 713 604 q 653 430 713 489 q 479 371 594 371 l 183 371 l 183 29 q 154 0 183 0 q 125 29 125 0 l 125 850 q 154 879 125 879 l 479 879 m 654 646 q 612 778 654 736 q 479 821 569 821 l 183 821 l 183 429 l 479 429 q 612 472 569 429 q 654 604 654 514 l 654 646 z "},"Þ":{"ha":688,"x_min":125,"x_max":646,"o":"m 413 756 q 587 697 528 756 q 646 522 646 638 l 646 481 q 587 306 646 365 q 413 247 528 247 l 183 247 l 183 29 q 154 0 183 0 q 125 29 125 0 l 125 850 q 154 879 125 879 q 183 850 183 879 l 183 756 l 413 756 m 588 522 q 545 655 588 613 q 413 697 503 697 l 183 697 l 183 306 l 413 306 q 545 348 503 306 q 588 481 588 390 l 588 522 z "},"Q":{"ha":953,"x_min":111,"x_max":842,"o":"m 842 282 q 771 64 842 131 l 831 3 q 842 -18 842 -8 q 831 -39 842 -28 q 810 -50 819 -50 q 789 -39 800 -50 l 721 29 q 560 0 658 0 l 393 0 q 178 67 246 0 q 111 282 111 135 l 111 597 q 178 813 111 746 q 392 879 244 881 l 560 879 q 775 813 708 879 q 842 597 842 746 l 842 282 m 621 132 q 611 153 611 142 q 621 174 611 164 q 642 185 632 185 q 663 174 651 185 l 729 106 q 771 174 758 131 q 783 282 783 217 l 783 597 q 733 771 783 721 q 560 821 683 821 l 392 821 q 219 772 269 822 q 169 597 169 721 l 169 282 q 220 109 169 160 q 393 58 271 58 l 560 58 q 678 75 631 58 l 621 132 z "},"R":{"ha":808,"x_min":125,"x_max":746,"o":"m 739 39 q 746 21 746 28 q 731 -1 746 7 q 713 -7 721 -7 q 690 7 699 -7 l 458 371 l 183 371 l 183 29 q 154 0 183 0 q 125 29 125 0 l 125 850 q 154 879 125 879 l 479 879 q 653 820 594 879 q 713 646 713 761 l 713 604 q 526 374 713 397 l 739 39 m 183 429 l 479 429 q 612 472 569 429 q 654 604 654 514 l 654 646 q 612 778 654 736 q 479 821 569 821 l 183 821 l 183 429 z "},"Ŕ":{"ha":808,"x_min":125,"x_max":746,"o":"m 739 39 q 746 21 746 28 q 731 -1 746 7 q 713 -7 721 -7 q 690 7 699 -7 l 458 371 l 183 371 l 183 29 q 154 0 183 0 q 125 29 125 0 l 125 850 q 154 879 125 879 l 479 879 q 653 820 594 879 q 713 646 713 761 l 713 604 q 526 374 713 397 l 739 39 m 183 429 l 479 429 q 612 472 569 429 q 654 604 654 514 l 654 646 q 612 778 654 736 q 479 821 569 821 l 183 821 l 183 429 m 365 965 q 354 988 354 975 q 361 1007 354 999 l 486 1154 q 508 1167 496 1167 q 528 1158 519 1167 q 539 1136 539 1149 q 532 1117 539 1125 l 407 969 q 385 957 396 957 q 365 965 374 957 z "},"Ř":{"ha":808,"x_min":125,"x_max":746,"o":"m 739 39 q 746 21 746 28 q 731 -1 746 7 q 713 -7 721 -7 q 690 7 699 -7 l 458 371 l 183 371 l 183 29 q 154 0 183 0 q 125 29 125 0 l 125 850 q 154 879 125 879 l 479 879 q 653 820 594 879 q 713 646 713 761 l 713 604 q 526 374 713 397 l 739 39 m 183 429 l 479 429 q 612 472 569 429 q 654 604 654 514 l 654 646 q 612 778 654 736 q 479 821 569 821 l 183 821 l 183 429 m 276 1168 q 296 1161 286 1168 l 436 1044 l 453 1044 l 593 1161 q 613 1168 603 1168 q 633 1160 625 1168 q 642 1139 642 1151 q 631 1117 642 1125 l 490 999 q 454 986 474 986 l 435 986 q 399 999 415 986 l 258 1117 q 247 1139 247 1125 q 256 1160 247 1151 q 276 1168 264 1168 z "},"Ŗ":{"ha":808,"x_min":125,"x_max":746,"o":"m 739 39 q 746 21 746 28 q 731 -1 746 7 q 713 -7 721 -7 q 690 7 699 -7 l 458 371 l 183 371 l 183 29 q 154 0 183 0 q 125 29 125 0 l 125 850 q 154 879 125 879 l 479 879 q 653 820 594 879 q 713 646 713 761 l 713 604 q 526 374 713 397 l 739 39 m 183 429 l 479 429 q 612 472 569 429 q 654 604 654 514 l 654 646 q 612 778 654 736 q 479 821 569 821 l 183 821 l 183 429 m 463 -121 q 454 -146 463 -137 l 408 -250 q 386 -268 400 -268 q 368 -261 375 -268 q 363 -242 361 -254 l 388 -97 q 415 -68 388 -68 l 435 -68 q 455 -76 447 -68 q 463 -99 463 -85 l 463 -121 z "},"Ȑ":{"ha":808,"x_min":125,"x_max":746,"o":"m 189 1114 q 182 1132 182 1124 q 193 1151 182 1143 q 210 1158 200 1158 q 231 1147 224 1158 l 343 1015 q 350 997 350 1006 q 339 978 350 989 q 321 969 331 969 q 301 981 313 969 l 189 1114 m 342 1114 q 335 1132 335 1124 q 346 1151 335 1143 q 363 1158 353 1158 q 383 1147 376 1158 l 496 1015 q 503 997 503 1006 q 492 978 503 989 q 474 969 483 969 q 454 981 465 969 l 342 1114 m 739 39 q 746 21 746 28 q 731 -1 746 7 q 713 -7 721 -7 q 690 7 699 -7 l 458 371 l 183 371 l 183 29 q 154 0 183 0 q 125 29 125 0 l 125 850 q 154 879 125 879 l 479 879 q 653 820 594 879 q 713 646 713 761 l 713 604 q 526 374 713 397 l 739 39 m 183 429 l 479 429 q 612 472 569 429 q 654 604 654 514 l 654 646 q 612 778 654 736 q 479 821 569 821 l 183 821 l 183 429 z "},"Ȓ":{"ha":808,"x_min":125,"x_max":746,"o":"m 739 39 q 746 21 746 28 q 731 -1 746 7 q 713 -7 721 -7 q 690 7 699 -7 l 458 371 l 183 371 l 183 29 q 154 0 183 0 q 125 29 125 0 l 125 850 q 154 879 125 879 l 479 879 q 653 820 594 879 q 713 646 713 761 l 713 604 q 526 374 713 397 l 739 39 m 183 429 l 479 429 q 612 472 569 429 q 654 604 654 514 l 654 646 q 612 778 654 736 q 479 821 569 821 l 183 821 l 183 429 m 401 1167 q 574 999 574 1167 l 574 996 q 544 967 574 967 q 515 996 515 967 l 515 999 q 490 1083 515 1057 q 404 1110 464 1108 q 319 1083 346 1110 q 293 999 293 1057 l 293 996 q 264 967 293 967 q 235 996 235 967 l 235 999 q 277 1124 235 1081 q 401 1167 319 1167 z "},"S":{"ha":906,"x_min":111,"x_max":794,"o":"m 353 1 q 169 59 226 1 q 111 242 111 117 q 119 263 111 254 q 140 271 128 271 q 161 263 153 271 q 169 242 169 254 q 210 100 169 140 q 353 60 251 60 l 553 60 q 695 100 654 60 q 736 242 736 140 q 695 383 736 343 q 553 424 654 424 l 357 424 q 183 478 238 424 q 128 651 128 532 q 183 825 128 771 q 356 879 238 879 l 560 879 q 733 825 678 879 q 788 653 788 771 q 779 632 788 640 q 758 624 771 624 q 738 632 746 624 q 729 653 729 640 q 691 783 729 746 q 560 821 653 821 l 356 821 q 224 783 263 821 q 186 651 186 746 q 224 519 186 557 q 357 482 263 482 l 553 482 q 737 424 679 482 q 794 242 794 367 q 737 59 794 117 q 553 1 679 1 l 353 1 z "},"Ś":{"ha":906,"x_min":111,"x_max":794,"o":"m 353 1 q 169 59 226 1 q 111 242 111 117 q 119 263 111 254 q 140 271 128 271 q 161 263 153 271 q 169 242 169 254 q 210 100 169 140 q 353 60 251 60 l 553 60 q 695 100 654 60 q 736 242 736 140 q 695 383 736 343 q 553 424 654 424 l 357 424 q 183 478 238 424 q 128 651 128 532 q 183 825 128 771 q 356 879 238 879 l 560 879 q 733 825 678 879 q 788 653 788 771 q 779 632 788 640 q 758 624 771 624 q 738 632 746 624 q 729 653 729 640 q 691 783 729 746 q 560 821 653 821 l 356 821 q 224 783 263 821 q 186 651 186 746 q 224 519 186 557 q 357 482 263 482 l 553 482 q 737 424 679 482 q 794 242 794 367 q 737 59 794 117 q 553 1 679 1 l 353 1 m 414 965 q 403 988 403 975 q 410 1007 403 999 l 535 1154 q 557 1167 544 1167 q 576 1158 568 1167 q 588 1136 588 1149 q 581 1117 588 1125 l 456 969 q 433 957 444 957 q 414 965 422 957 z "},"Š":{"ha":906,"x_min":111,"x_max":794,"o":"m 353 1 q 169 59 226 1 q 111 242 111 117 q 119 263 111 254 q 140 271 128 271 q 161 263 153 271 q 169 242 169 254 q 210 100 169 140 q 353 60 251 60 l 553 60 q 695 100 654 60 q 736 242 736 140 q 695 383 736 343 q 553 424 654 424 l 357 424 q 183 478 238 424 q 128 651 128 532 q 183 825 128 771 q 356 879 238 879 l 560 879 q 733 825 678 879 q 788 653 788 771 q 779 632 788 640 q 758 624 771 624 q 738 632 746 624 q 729 653 729 640 q 691 783 729 746 q 560 821 653 821 l 356 821 q 224 783 263 821 q 186 651 186 746 q 224 519 186 557 q 357 482 263 482 l 553 482 q 737 424 679 482 q 794 242 794 367 q 737 59 794 117 q 553 1 679 1 l 353 1 m 325 1168 q 344 1161 335 1168 l 485 1044 l 501 1044 l 642 1161 q 661 1168 651 1168 q 682 1160 674 1168 q 690 1139 690 1151 q 679 1117 690 1125 l 539 999 q 503 986 522 986 l 483 986 q 447 999 464 986 l 307 1117 q 296 1139 296 1125 q 304 1160 296 1151 q 325 1168 313 1168 z "},"Ş":{"ha":906,"x_min":111,"x_max":794,"o":"m 794 242 q 737 59 794 117 q 553 1 679 1 l 513 1 q 549 -36 519 -18 q 594 -76 576 -54 q 611 -135 611 -97 q 576 -243 611 -208 q 468 -278 542 -278 q 353 -162 353 -278 q 382 -133 353 -133 q 411 -162 411 -133 q 423 -208 411 -196 q 468 -219 435 -219 q 535 -201 517 -219 q 553 -135 553 -183 q 546 -110 553 -119 q 517 -85 539 -100 q 474 -47 490 -65 q 453 1 457 -29 l 353 1 q 169 59 226 1 q 111 242 111 117 q 119 263 111 254 q 140 271 128 271 q 161 263 153 271 q 169 242 169 254 q 210 100 169 140 q 353 60 251 60 l 553 60 q 695 100 654 60 q 736 242 736 140 q 695 383 736 343 q 553 424 654 424 l 357 424 q 183 478 238 424 q 128 651 128 532 q 183 825 128 771 q 356 879 238 879 l 560 879 q 733 825 678 879 q 788 653 788 771 q 779 632 788 640 q 758 624 771 624 q 738 632 746 624 q 729 653 729 640 q 691 783 729 746 q 560 821 653 821 l 356 821 q 224 783 263 821 q 186 651 186 746 q 224 519 186 557 q 357 482 263 482 l 553 482 q 737 424 679 482 q 794 242 794 367 z "},"Ŝ":{"ha":906,"x_min":111,"x_max":794,"o":"m 353 1 q 169 59 226 1 q 111 242 111 117 q 119 263 111 254 q 140 271 128 271 q 161 263 153 271 q 169 242 169 254 q 210 100 169 140 q 353 60 251 60 l 553 60 q 695 100 654 60 q 736 242 736 140 q 695 383 736 343 q 553 424 654 424 l 357 424 q 183 478 238 424 q 128 651 128 532 q 183 825 128 771 q 356 879 238 879 l 560 879 q 733 825 678 879 q 788 653 788 771 q 779 632 788 640 q 758 624 771 624 q 738 632 746 624 q 729 653 729 640 q 691 783 729 746 q 560 821 653 821 l 356 821 q 224 783 263 821 q 186 651 186 746 q 224 519 186 557 q 357 482 263 482 l 553 482 q 737 424 679 482 q 794 242 794 367 q 737 59 794 117 q 553 1 679 1 l 353 1 m 324 958 q 303 967 311 958 q 294 988 294 975 q 300 1006 294 994 l 408 1150 q 443 1168 422 1168 l 468 1168 q 503 1150 489 1168 l 611 1006 q 617 988 617 994 q 608 967 617 975 q 588 958 600 958 q 564 971 572 958 l 460 1110 l 451 1110 l 347 971 q 324 958 339 958 z "},"Ș":{"ha":906,"x_min":111,"x_max":794,"o":"m 353 1 q 169 59 226 1 q 111 242 111 117 q 119 263 111 254 q 140 271 128 271 q 161 263 153 271 q 169 242 169 254 q 210 100 169 140 q 353 60 251 60 l 553 60 q 695 100 654 60 q 736 242 736 140 q 695 383 736 343 q 553 424 654 424 l 357 424 q 183 478 238 424 q 128 651 128 532 q 183 825 128 771 q 356 879 238 879 l 560 879 q 733 825 678 879 q 788 653 788 771 q 779 632 788 640 q 758 624 771 624 q 738 632 746 624 q 729 653 729 640 q 691 783 729 746 q 560 821 653 821 l 356 821 q 224 783 263 821 q 186 651 186 746 q 224 519 186 557 q 357 482 263 482 l 553 482 q 737 424 679 482 q 794 242 794 367 q 737 59 794 117 q 553 1 679 1 l 353 1 m 511 -121 q 503 -146 511 -137 l 457 -250 q 435 -268 449 -268 q 417 -261 424 -268 q 411 -242 410 -254 l 436 -97 q 464 -68 436 -68 l 483 -68 q 503 -76 496 -68 q 511 -99 511 -85 l 511 -121 z "},"ẞ":{"ha":768,"x_min":125,"x_max":657,"o":"m 154 0 q 125 29 125 0 l 125 667 q 180 840 125 786 q 353 894 235 894 l 364 894 q 534 842 479 894 q 590 678 589 790 q 576 642 590 657 l 476 532 q 614 388 571 463 q 657 222 657 314 q 603 53 657 107 q 435 0 550 0 l 338 0 q 308 29 308 0 q 338 58 308 58 l 435 58 q 562 95 525 58 q 599 222 599 132 q 557 371 599 306 q 417 503 515 436 l 417 553 l 532 679 q 492 801 529 765 q 364 836 454 836 l 353 836 q 222 799 260 836 q 183 667 183 761 l 183 29 q 154 0 183 0 z "},"Ə":{"ha":953,"x_min":111,"x_max":842,"o":"m 393 1 q 178 69 246 1 q 111 283 111 136 l 111 400 l 783 400 l 783 597 q 733 771 783 721 q 560 821 683 821 l 393 821 q 220 771 271 821 q 169 597 169 721 q 161 576 169 585 q 140 568 153 568 q 119 576 128 568 q 111 597 111 585 q 178 813 111 746 q 393 879 246 879 l 560 879 q 775 813 708 879 q 842 597 842 746 l 842 283 q 775 69 842 136 q 560 1 708 1 l 393 1 m 560 60 q 733 110 683 60 q 783 283 783 161 l 783 342 l 169 342 l 169 283 q 220 110 169 161 q 393 60 271 60 l 560 60 z "},"T":{"ha":767,"x_min":21,"x_max":746,"o":"m 383 -1 q 363 7 371 -1 q 354 28 354 15 l 354 822 l 50 822 q 29 831 38 822 q 21 851 21 839 q 29 872 21 864 q 50 881 38 881 l 717 881 q 738 872 729 881 q 746 851 746 864 q 738 831 746 839 q 717 822 729 822 l 413 822 l 413 28 q 404 7 413 15 q 383 -1 396 -1 z "},"Ŧ":{"ha":767,"x_min":21,"x_max":746,"o":"m 717 881 q 738 872 729 881 q 746 851 746 864 q 738 831 746 839 q 717 822 729 822 l 413 822 l 413 469 l 561 469 q 590 440 590 469 q 561 411 590 411 l 413 411 l 413 28 q 404 7 413 15 q 383 -1 396 -1 q 363 7 371 -1 q 354 28 354 15 l 354 411 l 203 411 q 174 440 174 411 q 203 469 174 469 l 354 469 l 354 822 l 50 822 q 29 831 38 822 q 21 851 21 839 q 29 872 21 864 q 50 881 38 881 l 717 881 z "},"Ť":{"ha":767,"x_min":21,"x_max":746,"o":"m 383 -1 q 363 7 371 -1 q 354 28 354 15 l 354 822 l 50 822 q 29 831 38 822 q 21 851 21 839 q 29 872 21 864 q 50 881 38 881 l 717 881 q 738 872 729 881 q 746 851 746 864 q 738 831 746 839 q 717 822 729 822 l 413 822 l 413 28 q 404 7 413 15 q 383 -1 396 -1 m 256 1168 q 275 1161 265 1168 l 415 1044 l 432 1044 l 572 1161 q 592 1168 582 1168 q 613 1160 604 1168 q 621 1139 621 1151 q 610 1117 621 1125 l 469 999 q 433 986 453 986 l 414 986 q 378 999 394 986 l 238 1117 q 226 1139 226 1125 q 235 1160 226 1151 q 256 1168 243 1168 z "},"Ţ":{"ha":767,"x_min":21,"x_max":746,"o":"m 717 881 q 738 872 729 881 q 746 851 746 864 q 738 831 746 839 q 717 822 729 822 l 413 822 l 413 28 l 413 25 l 413 21 q 420 -10 413 1 q 451 -36 428 -21 q 497 -76 479 -56 q 514 -135 514 -97 q 479 -243 514 -208 q 371 -278 444 -278 q 256 -162 256 -278 q 285 -133 256 -133 q 314 -162 314 -133 q 326 -208 314 -196 q 371 -219 338 -219 q 438 -201 419 -219 q 456 -135 456 -183 q 449 -110 456 -119 q 419 -85 442 -100 q 372 -42 390 -64 q 354 21 354 -19 l 354 25 l 354 28 l 354 822 l 50 822 q 29 831 38 822 q 21 851 21 839 q 29 872 21 864 q 50 881 38 881 l 717 881 z "},"Ț":{"ha":767,"x_min":21,"x_max":746,"o":"m 383 -1 q 363 7 371 -1 q 354 28 354 15 l 354 822 l 50 822 q 29 831 38 822 q 21 851 21 839 q 29 872 21 864 q 50 881 38 881 l 717 881 q 738 872 729 881 q 746 851 746 864 q 738 831 746 839 q 717 822 729 822 l 413 822 l 413 28 q 404 7 413 15 q 383 -1 396 -1 m 414 -121 q 406 -146 414 -137 l 360 -250 q 338 -268 351 -268 q 319 -261 326 -268 q 314 -242 313 -254 l 339 -97 q 367 -68 339 -68 l 386 -68 q 406 -76 399 -68 q 414 -99 414 -85 l 414 -121 z "},"U":{"ha":953,"x_min":111,"x_max":842,"o":"m 393 0 q 178 67 246 0 q 111 282 111 135 l 111 850 q 119 871 111 863 q 140 879 128 879 q 161 871 153 879 q 169 850 169 863 l 169 282 q 220 109 169 160 q 393 58 271 58 l 560 58 q 733 109 683 58 q 783 282 783 160 l 783 850 q 792 871 783 863 q 813 879 800 879 q 833 871 825 879 q 842 850 842 863 l 842 282 q 775 67 842 135 q 560 0 708 0 l 393 0 z "},"Ú":{"ha":953,"x_min":111,"x_max":842,"o":"m 393 0 q 178 67 246 0 q 111 282 111 135 l 111 850 q 119 871 111 863 q 140 879 128 879 q 161 871 153 879 q 169 850 169 863 l 169 282 q 220 109 169 160 q 393 58 271 58 l 560 58 q 733 109 683 58 q 783 282 783 160 l 783 850 q 792 871 783 863 q 813 879 800 879 q 833 871 825 879 q 842 850 842 863 l 842 282 q 775 67 842 135 q 560 0 708 0 l 393 0 m 438 965 q 426 988 426 975 q 433 1007 426 999 l 558 1154 q 581 1167 568 1167 q 600 1158 592 1167 q 611 1136 611 1149 q 604 1117 611 1125 l 479 969 q 457 957 468 957 q 438 965 446 957 z "},"Ŭ":{"ha":953,"x_min":111,"x_max":842,"o":"m 393 0 q 178 67 246 0 q 111 282 111 135 l 111 850 q 119 871 111 863 q 140 879 128 879 q 161 871 153 879 q 169 850 169 863 l 169 282 q 220 109 169 160 q 393 58 271 58 l 560 58 q 733 109 683 58 q 783 282 783 160 l 783 850 q 792 871 783 863 q 813 879 800 879 q 833 871 825 879 q 842 850 842 863 l 842 282 q 775 67 842 135 q 560 0 708 0 l 393 0 m 474 960 q 349 1003 392 960 q 307 1128 307 1046 l 307 1131 q 336 1160 307 1160 q 365 1131 365 1160 l 365 1128 q 392 1043 365 1069 q 476 1017 418 1017 q 562 1044 536 1018 q 588 1128 588 1069 l 588 1131 q 617 1160 588 1160 q 646 1131 646 1160 l 646 1128 q 474 960 646 960 z "},"Û":{"ha":953,"x_min":111,"x_max":842,"o":"m 393 0 q 178 67 246 0 q 111 282 111 135 l 111 850 q 119 871 111 863 q 140 879 128 879 q 161 871 153 879 q 169 850 169 863 l 169 282 q 220 109 169 160 q 393 58 271 58 l 560 58 q 733 109 683 58 q 783 282 783 160 l 783 850 q 792 871 783 863 q 813 879 800 879 q 833 871 825 879 q 842 850 842 863 l 842 282 q 775 67 842 135 q 560 0 708 0 l 393 0 m 306 969 q 285 978 293 969 q 276 999 276 986 q 288 1021 276 1013 l 428 1139 q 464 1151 444 1151 l 483 1151 q 519 1139 503 1151 l 660 1021 q 671 999 671 1013 q 663 978 671 986 q 642 969 654 969 q 622 976 632 969 l 482 1093 l 465 1093 l 325 976 q 306 969 315 969 z "},"Ȕ":{"ha":953,"x_min":111,"x_max":842,"o":"m 411 978 q 393 969 403 969 q 374 981 385 969 l 261 1114 q 254 1132 254 1124 q 265 1151 254 1143 q 282 1158 272 1158 q 303 1147 296 1158 l 415 1015 q 422 997 422 1006 q 411 978 422 989 m 564 978 q 546 969 556 969 q 526 981 538 969 l 414 1114 q 407 1132 407 1124 q 418 1151 407 1143 q 435 1158 425 1158 q 456 1147 449 1158 l 568 1015 q 575 997 575 1006 q 564 978 575 989 m 393 0 q 178 67 246 0 q 111 282 111 135 l 111 850 q 119 871 111 863 q 140 879 128 879 q 161 871 153 879 q 169 850 169 863 l 169 282 q 220 109 169 160 q 393 58 271 58 l 560 58 q 733 109 683 58 q 783 282 783 160 l 783 850 q 792 871 783 863 q 813 879 800 879 q 833 871 825 879 q 842 850 842 863 l 842 282 q 775 67 842 135 q 560 0 708 0 l 393 0 z "},"Ü":{"ha":953,"x_min":111,"x_max":842,"o":"m 393 0 q 178 67 246 0 q 111 282 111 135 l 111 850 q 119 871 111 863 q 140 879 128 879 q 161 871 153 879 q 169 850 169 863 l 169 282 q 220 109 169 160 q 393 58 271 58 l 560 58 q 733 109 683 58 q 783 282 783 160 l 783 850 q 792 871 783 863 q 813 879 800 879 q 833 871 825 879 q 842 850 842 863 l 842 282 q 775 67 842 135 q 560 0 708 0 l 393 0 m 365 1001 q 331 1038 331 1001 l 331 1061 q 365 1096 331 1096 l 389 1096 q 424 1061 424 1096 l 424 1038 q 389 1001 424 1001 l 365 1001 m 564 1001 q 529 1038 529 1001 l 529 1061 q 564 1096 529 1096 l 588 1096 q 622 1061 622 1096 l 622 1038 q 588 1001 622 1001 l 564 1001 z "},"Ụ":{"ha":953,"x_min":111,"x_max":842,"o":"m 393 0 q 178 67 246 0 q 111 282 111 135 l 111 850 q 119 871 111 863 q 140 879 128 879 q 161 871 153 879 q 169 850 169 863 l 169 282 q 220 109 169 160 q 393 58 271 58 l 560 58 q 733 109 683 58 q 783 282 783 160 l 783 850 q 792 871 783 863 q 813 879 800 879 q 833 871 825 879 q 842 850 842 863 l 842 282 q 775 67 842 135 q 560 0 708 0 l 393 0 m 464 -208 q 429 -172 429 -208 l 429 -149 q 464 -114 429 -114 l 488 -114 q 522 -149 522 -114 l 522 -172 q 488 -208 522 -208 l 464 -208 z "},"Ù":{"ha":953,"x_min":111,"x_max":842,"o":"m 393 0 q 178 67 246 0 q 111 282 111 135 l 111 850 q 119 871 111 863 q 140 879 128 879 q 161 871 153 879 q 169 850 169 863 l 169 282 q 220 109 169 160 q 393 58 271 58 l 560 58 q 733 109 683 58 q 783 282 783 160 l 783 850 q 792 871 783 863 q 813 879 800 879 q 833 871 825 879 q 842 850 842 863 l 842 282 q 775 67 842 135 q 560 0 708 0 l 393 0 m 515 965 q 496 957 507 957 q 474 969 483 957 l 349 1117 q 342 1136 342 1125 q 353 1158 342 1149 q 372 1167 361 1167 q 394 1154 383 1167 l 519 1007 q 526 988 526 999 q 515 965 526 975 z "},"Ủ":{"ha":953,"x_min":111,"x_max":842,"o":"m 393 0 q 178 67 246 0 q 111 282 111 135 l 111 850 q 119 871 111 863 q 140 879 128 879 q 161 871 153 879 q 169 850 169 863 l 169 282 q 220 109 169 160 q 393 58 271 58 l 560 58 q 733 109 683 58 q 783 282 783 160 l 783 850 q 792 871 783 863 q 813 879 800 879 q 833 871 825 879 q 842 850 842 863 l 842 282 q 775 67 842 135 q 560 0 708 0 l 393 0 m 476 958 q 447 988 447 958 q 465 1047 447 1026 q 513 1086 483 1068 q 542 1108 535 1100 q 549 1129 549 1115 q 537 1174 549 1163 q 492 1186 525 1186 q 447 1174 458 1186 q 435 1129 435 1163 q 406 1100 435 1100 q 376 1129 376 1100 q 492 1244 376 1244 q 607 1129 607 1244 q 590 1074 607 1093 q 543 1036 572 1054 q 513 1012 519 1021 q 506 988 506 1003 q 476 958 506 958 z "},"Ư":{"ha":953,"x_min":111,"x_max":961,"o":"m 932 1010 q 961 981 961 1010 l 961 950 q 932 860 961 890 q 842 822 903 829 l 842 282 q 775 67 842 135 q 560 0 708 0 l 393 0 q 178 67 246 0 q 111 282 111 135 l 111 850 q 119 871 111 863 q 140 879 128 879 q 161 871 153 879 q 169 850 169 863 l 169 282 q 220 109 169 160 q 393 58 271 58 l 560 58 q 733 109 683 58 q 783 282 783 160 l 783 850 q 792 871 783 863 q 813 879 800 879 q 883 894 864 879 q 903 950 903 910 l 903 981 q 932 1010 903 1010 z "},"Ứ":{"ha":953,"x_min":111,"x_max":961,"o":"m 932 1010 q 961 981 961 1010 l 961 950 q 932 860 961 890 q 842 822 903 829 l 842 282 q 775 67 842 135 q 560 0 708 0 l 393 0 q 178 67 246 0 q 111 282 111 135 l 111 850 q 119 871 111 863 q 140 879 128 879 q 161 871 153 879 q 169 850 169 863 l 169 282 q 220 109 169 160 q 393 58 271 58 l 560 58 q 733 109 683 58 q 783 282 783 160 l 783 850 q 792 871 783 863 q 813 879 800 879 q 883 894 864 879 q 903 950 903 910 l 903 981 q 932 1010 903 1010 m 438 965 q 426 988 426 975 q 433 1007 426 999 l 558 1154 q 581 1167 568 1167 q 600 1158 592 1167 q 611 1136 611 1149 q 604 1117 611 1125 l 479 969 q 457 957 468 957 q 438 965 446 957 z "},"Ự":{"ha":953,"x_min":111,"x_max":961,"o":"m 932 1010 q 961 981 961 1010 l 961 950 q 932 860 961 890 q 842 822 903 829 l 842 282 q 775 67 842 135 q 560 0 708 0 l 393 0 q 178 67 246 0 q 111 282 111 135 l 111 850 q 119 871 111 863 q 140 879 128 879 q 161 871 153 879 q 169 850 169 863 l 169 282 q 220 109 169 160 q 393 58 271 58 l 560 58 q 733 109 683 58 q 783 282 783 160 l 783 850 q 792 871 783 863 q 813 879 800 879 q 883 894 864 879 q 903 950 903 910 l 903 981 q 932 1010 903 1010 m 464 -208 q 429 -172 429 -208 l 429 -149 q 464 -114 429 -114 l 488 -114 q 522 -149 522 -114 l 522 -172 q 488 -208 522 -208 l 464 -208 z "},"Ừ":{"ha":953,"x_min":111,"x_max":961,"o":"m 932 1010 q 961 981 961 1010 l 961 950 q 932 860 961 890 q 842 822 903 829 l 842 282 q 775 67 842 135 q 560 0 708 0 l 393 0 q 178 67 246 0 q 111 282 111 135 l 111 850 q 119 871 111 863 q 140 879 128 879 q 161 871 153 879 q 169 850 169 863 l 169 282 q 220 109 169 160 q 393 58 271 58 l 560 58 q 733 109 683 58 q 783 282 783 160 l 783 850 q 792 871 783 863 q 813 879 800 879 q 883 894 864 879 q 903 950 903 910 l 903 981 q 932 1010 903 1010 m 515 965 q 496 957 507 957 q 474 969 483 957 l 349 1117 q 342 1136 342 1125 q 353 1158 342 1149 q 372 1167 361 1167 q 394 1154 383 1167 l 519 1007 q 526 988 526 999 q 515 965 526 975 z "},"Ử":{"ha":953,"x_min":111,"x_max":961,"o":"m 932 1010 q 961 981 961 1010 l 961 950 q 932 860 961 890 q 842 822 903 829 l 842 282 q 775 67 842 135 q 560 0 708 0 l 393 0 q 178 67 246 0 q 111 282 111 135 l 111 850 q 119 871 111 863 q 140 879 128 879 q 161 871 153 879 q 169 850 169 863 l 169 282 q 220 109 169 160 q 393 58 271 58 l 560 58 q 733 109 683 58 q 783 282 783 160 l 783 850 q 792 871 783 863 q 813 879 800 879 q 883 894 864 879 q 903 950 903 910 l 903 981 q 932 1010 903 1010 m 476 958 q 447 988 447 958 q 465 1047 447 1026 q 513 1086 483 1068 q 542 1108 535 1100 q 549 1129 549 1115 q 537 1174 549 1163 q 492 1186 525 1186 q 447 1174 458 1186 q 435 1129 435 1163 q 406 1100 435 1100 q 376 1129 376 1100 q 492 1244 376 1244 q 607 1129 607 1244 q 590 1074 607 1093 q 543 1036 572 1054 q 513 1012 519 1021 q 506 988 506 1003 q 476 958 506 958 z "},"Ữ":{"ha":953,"x_min":111,"x_max":961,"o":"m 932 1010 q 961 981 961 1010 l 961 950 q 932 860 961 890 q 842 822 903 829 l 842 282 q 775 67 842 135 q 560 0 708 0 l 393 0 q 178 67 246 0 q 111 282 111 135 l 111 850 q 119 871 111 863 q 140 879 128 879 q 161 871 153 879 q 169 850 169 863 l 169 282 q 220 109 169 160 q 393 58 271 58 l 560 58 q 733 109 683 58 q 783 282 783 160 l 783 850 q 792 871 783 863 q 813 879 800 879 q 883 894 864 879 q 903 950 903 910 l 903 981 q 932 1010 903 1010 m 558 1001 q 503 1015 525 1001 q 460 1051 481 1029 q 428 1078 440 1071 q 394 1086 415 1086 q 356 1073 369 1086 q 331 1022 343 1060 q 320 1007 328 1013 q 303 1001 313 1001 q 278 1015 286 1001 q 275 1040 269 1029 q 322 1120 294 1096 q 394 1144 350 1144 q 455 1130 431 1144 q 501 1092 479 1115 q 532 1066 521 1072 q 558 1060 543 1060 q 598 1074 582 1060 q 624 1124 614 1089 q 653 1144 631 1144 q 676 1131 668 1144 q 679 1107 683 1118 q 631 1028 660 1054 q 558 1001 601 1001 z "},"Ű":{"ha":953,"x_min":111,"x_max":842,"o":"m 393 0 q 178 67 246 0 q 111 282 111 135 l 111 850 q 119 871 111 863 q 140 879 128 879 q 161 871 153 879 q 169 850 169 863 l 169 282 q 220 109 169 160 q 393 58 271 58 l 560 58 q 733 109 683 58 q 783 282 783 160 l 783 850 q 792 871 783 863 q 813 879 800 879 q 833 871 825 879 q 842 850 842 863 l 842 282 q 775 67 842 135 q 560 0 708 0 l 393 0 m 381 965 q 369 988 369 975 q 376 1007 369 999 l 501 1154 q 524 1167 513 1167 q 543 1158 535 1167 q 554 1136 554 1149 q 547 1117 554 1125 l 422 969 q 400 957 413 957 q 381 965 389 957 m 519 965 q 508 988 508 975 q 515 1007 508 999 l 640 1154 q 663 1167 651 1167 q 682 1158 674 1167 q 693 1136 693 1149 q 686 1117 693 1125 l 561 969 q 539 957 551 957 q 519 965 528 957 z "},"Ȗ":{"ha":953,"x_min":111,"x_max":842,"o":"m 393 0 q 178 67 246 0 q 111 282 111 135 l 111 850 q 119 871 111 863 q 140 879 128 879 q 161 871 153 879 q 169 850 169 863 l 169 282 q 220 109 169 160 q 393 58 271 58 l 560 58 q 733 109 683 58 q 783 282 783 160 l 783 850 q 792 871 783 863 q 813 879 800 879 q 833 871 825 879 q 842 850 842 863 l 842 282 q 775 67 842 135 q 560 0 708 0 l 393 0 m 474 1167 q 646 999 646 1167 l 646 996 q 617 967 646 967 q 588 996 588 967 l 588 999 q 562 1083 588 1057 q 476 1110 536 1108 q 392 1083 418 1110 q 365 999 365 1057 l 365 996 q 336 967 365 967 q 307 996 307 967 l 307 999 q 349 1124 307 1081 q 474 1167 392 1167 z "},"Ū":{"ha":953,"x_min":111,"x_max":842,"o":"m 393 0 q 178 67 246 0 q 111 282 111 135 l 111 850 q 119 871 111 863 q 140 879 128 879 q 161 871 153 879 q 169 850 169 863 l 169 282 q 220 109 169 160 q 393 58 271 58 l 560 58 q 733 109 683 58 q 783 282 783 160 l 783 850 q 792 871 783 863 q 813 879 800 879 q 833 871 825 879 q 842 850 842 863 l 842 282 q 775 67 842 135 q 560 0 708 0 l 393 0 m 301 1050 q 272 1079 272 1050 q 301 1108 272 1108 l 653 1108 q 682 1079 682 1108 q 653 1050 682 1050 l 301 1050 z "},"Ų":{"ha":981,"x_min":111,"x_max":853,"o":"m 824 -131 q 844 -139 836 -131 q 853 -160 853 -147 q 844 -181 853 -172 q 785 -222 818 -207 q 721 -236 753 -236 q 634 -205 669 -236 q 599 -126 599 -174 q 629 -44 599 -83 l 672 13 q 560 0 622 0 l 393 0 q 178 67 246 0 q 111 282 111 135 l 111 850 q 119 871 111 863 q 140 879 128 879 q 161 871 153 879 q 169 850 169 863 l 169 282 q 220 109 169 160 q 393 58 271 58 l 560 58 q 733 109 683 58 q 783 282 783 160 l 783 850 q 792 871 783 863 q 813 879 800 879 q 833 871 825 879 q 842 850 842 863 l 842 282 q 793 89 842 154 l 793 85 q 788 67 793 74 l 676 -81 q 657 -126 657 -107 q 675 -163 657 -149 q 721 -178 693 -178 q 803 -139 764 -178 q 824 -131 811 -131 z "},"Ů":{"ha":953,"x_min":111,"x_max":842,"o":"m 393 0 q 178 67 246 0 q 111 282 111 135 l 111 850 q 119 871 111 863 q 140 879 128 879 q 161 871 153 879 q 169 850 169 863 l 169 282 q 220 109 169 160 q 393 58 271 58 l 560 58 q 733 109 683 58 q 783 282 783 160 l 783 850 q 792 871 783 863 q 813 879 800 879 q 833 871 825 879 q 842 850 842 863 l 842 282 q 775 67 842 135 q 560 0 708 0 l 393 0 m 468 965 q 390 992 417 965 q 363 1071 363 1019 q 390 1149 363 1122 q 468 1176 417 1176 q 547 1149 519 1176 q 574 1071 574 1122 q 547 992 574 1019 q 468 965 519 965 m 468 1024 q 505 1034 494 1024 q 515 1071 515 1044 q 505 1108 515 1097 q 468 1118 494 1118 q 431 1108 442 1118 q 421 1071 421 1097 q 431 1034 421 1044 q 468 1024 442 1024 z "},"Ũ":{"ha":953,"x_min":111,"x_max":842,"o":"m 393 0 q 178 67 246 0 q 111 282 111 135 l 111 850 q 119 871 111 863 q 140 879 128 879 q 161 871 153 879 q 169 850 169 863 l 169 282 q 220 109 169 160 q 393 58 271 58 l 560 58 q 733 109 683 58 q 783 282 783 160 l 783 850 q 792 871 783 863 q 813 879 800 879 q 833 871 825 879 q 842 850 842 863 l 842 282 q 775 67 842 135 q 560 0 708 0 l 393 0 m 558 1001 q 503 1015 525 1001 q 460 1051 481 1029 q 428 1078 440 1071 q 394 1086 415 1086 q 356 1073 369 1086 q 331 1022 343 1060 q 320 1007 328 1013 q 303 1001 313 1001 q 278 1015 286 1001 q 275 1040 269 1029 q 322 1120 294 1096 q 394 1144 350 1144 q 455 1130 431 1144 q 501 1092 479 1115 q 532 1066 521 1072 q 558 1060 543 1060 q 598 1074 582 1060 q 624 1124 614 1089 q 653 1144 631 1144 q 676 1131 668 1144 q 679 1107 683 1118 q 631 1028 660 1054 q 558 1001 601 1001 z "},"V":{"ha":829,"x_min":14,"x_max":815,"o":"m 410 0 q 383 18 390 0 l 17 838 q 14 851 14 843 q 23 872 14 864 q 43 879 32 879 q 69 861 63 879 l 414 92 l 758 861 q 785 879 765 879 q 806 872 797 879 q 815 853 815 865 q 811 838 815 846 l 444 18 q 418 0 438 0 l 410 0 z "},"W":{"ha":1168,"x_min":14,"x_max":1153,"o":"m 1124 879 q 1153 853 1153 879 q 1151 840 1153 844 l 882 21 q 854 0 876 0 l 846 0 q 818 21 825 0 l 583 775 l 349 21 q 321 0 343 0 l 313 0 q 285 21 292 0 l 15 840 q 14 850 14 843 q 22 871 14 863 q 43 879 29 879 q 71 858 65 879 l 317 111 l 549 858 q 576 879 556 879 l 590 879 q 618 858 613 879 l 850 111 l 1096 858 q 1124 879 1103 879 z "},"Ẃ":{"ha":1168,"x_min":14,"x_max":1153,"o":"m 1124 879 q 1153 853 1153 879 q 1151 840 1153 844 l 882 21 q 854 0 876 0 l 846 0 q 818 21 825 0 l 583 775 l 349 21 q 321 0 343 0 l 313 0 q 285 21 292 0 l 15 840 q 14 850 14 843 q 22 871 14 863 q 43 879 29 879 q 71 858 65 879 l 317 111 l 549 858 q 576 879 556 879 l 590 879 q 618 858 613 879 l 850 111 l 1096 858 q 1124 879 1103 879 m 544 965 q 533 988 533 975 q 540 1007 533 999 l 665 1154 q 688 1167 675 1167 q 707 1158 699 1167 q 718 1136 718 1149 q 711 1117 718 1125 l 586 969 q 564 957 575 957 q 544 965 553 957 z "},"Ŵ":{"ha":1168,"x_min":14,"x_max":1153,"o":"m 1124 879 q 1153 853 1153 879 q 1151 840 1153 844 l 882 21 q 854 0 876 0 l 846 0 q 818 21 825 0 l 583 775 l 349 21 q 321 0 343 0 l 313 0 q 285 21 292 0 l 15 840 q 14 850 14 843 q 22 871 14 863 q 43 879 29 879 q 71 858 65 879 l 317 111 l 549 858 q 576 879 556 879 l 590 879 q 618 858 613 879 l 850 111 l 1096 858 q 1124 879 1103 879 m 413 969 q 392 978 400 969 q 383 999 383 986 q 394 1021 383 1013 l 535 1139 q 571 1151 551 1151 l 590 1151 q 626 1139 610 1151 l 767 1021 q 778 999 778 1013 q 769 978 778 986 q 749 969 761 969 q 729 976 739 969 l 589 1093 l 572 1093 l 432 976 q 413 969 422 969 z "},"Ẅ":{"ha":1168,"x_min":14,"x_max":1153,"o":"m 1124 879 q 1153 853 1153 879 q 1151 840 1153 844 l 882 21 q 854 0 876 0 l 846 0 q 818 21 825 0 l 583 775 l 349 21 q 321 0 343 0 l 313 0 q 285 21 292 0 l 15 840 q 14 850 14 843 q 22 871 14 863 q 43 879 29 879 q 71 858 65 879 l 317 111 l 549 858 q 576 879 556 879 l 590 879 q 618 858 613 879 l 850 111 l 1096 858 q 1124 879 1103 879 m 472 1001 q 438 1038 438 1001 l 438 1061 q 472 1096 438 1096 l 496 1096 q 531 1061 531 1096 l 531 1038 q 496 1001 531 1001 l 472 1001 m 671 1001 q 636 1038 636 1001 l 636 1061 q 671 1096 636 1096 l 694 1096 q 729 1061 729 1096 l 729 1038 q 694 1001 729 1001 l 671 1001 z "},"Ẁ":{"ha":1168,"x_min":14,"x_max":1153,"o":"m 1124 879 q 1153 853 1153 879 q 1151 840 1153 844 l 882 21 q 854 0 876 0 l 846 0 q 818 21 825 0 l 583 775 l 349 21 q 321 0 343 0 l 313 0 q 285 21 292 0 l 15 840 q 14 850 14 843 q 22 871 14 863 q 43 879 29 879 q 71 858 65 879 l 317 111 l 549 858 q 576 879 556 879 l 590 879 q 618 858 613 879 l 850 111 l 1096 858 q 1124 879 1103 879 m 622 965 q 603 957 614 957 q 581 969 590 957 l 456 1117 q 449 1136 449 1125 q 460 1158 449 1149 q 479 1167 468 1167 q 501 1154 490 1167 l 626 1007 q 633 988 633 999 q 622 965 633 975 z "},"X":{"ha":776,"x_min":46,"x_max":718,"o":"m 60 7 q 46 31 46 17 q 51 47 46 40 l 339 465 l 76 832 q 69 850 69 842 q 83 872 69 863 q 101 879 93 879 q 125 865 115 879 l 378 511 l 642 867 q 664 879 653 879 q 683 872 672 879 q 696 851 696 863 q 689 832 696 843 l 415 460 l 711 47 q 718 29 718 38 q 704 7 718 17 q 686 0 694 0 q 664 14 674 0 l 375 415 l 100 15 q 78 0 89 0 q 60 7 69 0 z "},"Y":{"ha":715,"x_min":14,"x_max":701,"o":"m 686 874 q 701 851 701 865 q 694 833 701 844 l 386 347 l 386 29 q 357 0 386 0 q 328 29 328 0 l 328 347 l 19 833 q 14 850 14 840 q 29 874 14 863 q 46 879 36 879 q 69 864 61 879 l 357 410 l 646 865 q 668 879 654 879 q 686 874 676 879 z "},"Ý":{"ha":715,"x_min":14,"x_max":701,"o":"m 686 874 q 701 851 701 865 q 694 833 701 844 l 386 347 l 386 29 q 357 0 386 0 q 328 29 328 0 l 328 347 l 19 833 q 14 850 14 840 q 29 874 14 863 q 46 879 36 879 q 69 864 61 879 l 357 410 l 646 865 q 668 879 654 879 q 686 874 676 879 m 321 965 q 310 988 310 975 q 317 1007 310 999 l 442 1154 q 464 1167 451 1167 q 483 1158 475 1167 q 494 1136 494 1149 q 488 1117 494 1125 l 363 969 q 340 957 351 957 q 321 965 329 957 z "},"Ŷ":{"ha":715,"x_min":14,"x_max":701,"o":"m 686 874 q 701 851 701 865 q 694 833 701 844 l 386 347 l 386 29 q 357 0 386 0 q 328 29 328 0 l 328 347 l 19 833 q 14 850 14 840 q 29 874 14 863 q 46 879 36 879 q 69 864 61 879 l 357 410 l 646 865 q 668 879 654 879 q 686 874 676 879 m 189 969 q 168 978 176 969 q 160 999 160 986 q 171 1021 160 1013 l 311 1139 q 347 1151 328 1151 l 367 1151 q 403 1139 386 1151 l 543 1021 q 554 999 554 1013 q 546 978 554 986 q 525 969 538 969 q 506 976 515 969 l 365 1093 l 349 1093 l 208 976 q 189 969 199 969 z "},"Ÿ":{"ha":715,"x_min":14,"x_max":701,"o":"m 686 874 q 701 851 701 865 q 694 833 701 844 l 386 347 l 386 29 q 357 0 386 0 q 328 29 328 0 l 328 347 l 19 833 q 14 850 14 840 q 29 874 14 863 q 46 879 36 879 q 69 864 61 879 l 357 410 l 646 865 q 668 879 654 879 q 686 874 676 879 m 249 1001 q 214 1038 214 1001 l 214 1061 q 249 1096 214 1096 l 272 1096 q 307 1061 307 1096 l 307 1038 q 272 1001 307 1001 l 249 1001 m 447 1001 q 413 1038 413 1001 l 413 1061 q 447 1096 413 1096 l 471 1096 q 506 1061 506 1096 l 506 1038 q 471 1001 506 1001 l 447 1001 z "},"Ỵ":{"ha":715,"x_min":14,"x_max":701,"o":"m 686 874 q 701 851 701 865 q 694 833 701 844 l 386 347 l 386 29 q 357 0 386 0 q 328 29 328 0 l 328 347 l 19 833 q 14 850 14 840 q 29 874 14 863 q 46 879 36 879 q 69 864 61 879 l 357 410 l 646 865 q 668 879 654 879 q 686 874 676 879 m 347 -208 q 313 -172 313 -208 l 313 -149 q 347 -114 313 -114 l 371 -114 q 406 -149 406 -114 l 406 -172 q 371 -208 406 -208 l 347 -208 z "},"Ỳ":{"ha":715,"x_min":14,"x_max":701,"o":"m 686 874 q 701 851 701 865 q 694 833 701 844 l 386 347 l 386 29 q 357 0 386 0 q 328 29 328 0 l 328 347 l 19 833 q 14 850 14 840 q 29 874 14 863 q 46 879 36 879 q 69 864 61 879 l 357 410 l 646 865 q 668 879 654 879 q 686 874 676 879 m 399 965 q 379 957 390 957 q 357 969 367 957 l 232 1117 q 225 1136 225 1125 q 236 1158 225 1149 q 256 1167 244 1167 q 278 1154 267 1167 l 403 1007 q 410 988 410 999 q 399 965 410 975 z "},"Ỷ":{"ha":715,"x_min":14,"x_max":701,"o":"m 686 874 q 701 851 701 865 q 694 833 701 844 l 386 347 l 386 29 q 357 0 386 0 q 328 29 328 0 l 328 347 l 19 833 q 14 850 14 840 q 29 874 14 863 q 46 879 36 879 q 69 864 61 879 l 357 410 l 646 865 q 668 879 654 879 q 686 874 676 879 m 360 958 q 331 988 331 958 q 349 1047 331 1026 q 396 1086 367 1068 q 425 1108 418 1100 q 432 1129 432 1115 q 420 1174 432 1163 q 375 1186 408 1186 q 330 1174 342 1186 q 318 1129 318 1163 q 289 1100 318 1100 q 260 1129 260 1100 q 375 1244 260 1244 q 490 1129 490 1244 q 473 1074 490 1093 q 426 1036 456 1054 q 396 1012 403 1021 q 389 988 389 1003 q 360 958 389 958 z "},"Ȳ":{"ha":715,"x_min":14,"x_max":701,"o":"m 686 874 q 701 851 701 865 q 694 833 701 844 l 386 347 l 386 29 q 357 0 386 0 q 328 29 328 0 l 328 347 l 19 833 q 14 850 14 840 q 29 874 14 863 q 46 879 36 879 q 69 864 61 879 l 357 410 l 646 865 q 668 879 654 879 q 686 874 676 879 m 185 1050 q 156 1079 156 1050 q 185 1108 156 1108 l 536 1108 q 565 1079 565 1108 q 536 1050 565 1050 l 185 1050 z "},"Ỹ":{"ha":715,"x_min":14,"x_max":701,"o":"m 686 874 q 701 851 701 865 q 694 833 701 844 l 386 347 l 386 29 q 357 0 386 0 q 328 29 328 0 l 328 347 l 19 833 q 14 850 14 840 q 29 874 14 863 q 46 879 36 879 q 69 864 61 879 l 357 410 l 646 865 q 668 879 654 879 q 686 874 676 879 m 442 1001 q 386 1015 408 1001 q 343 1051 364 1029 q 311 1078 324 1071 q 278 1086 299 1086 q 240 1073 253 1086 q 214 1022 226 1060 q 203 1007 211 1013 q 186 1001 196 1001 q 161 1015 169 1001 q 158 1040 153 1029 q 206 1120 178 1096 q 278 1144 233 1144 q 338 1130 314 1144 q 385 1092 363 1115 q 415 1066 404 1072 q 442 1060 426 1060 q 481 1074 465 1060 q 507 1124 497 1089 q 536 1144 514 1144 q 559 1131 551 1144 q 563 1107 567 1118 q 514 1028 543 1054 q 442 1001 485 1001 z "},"Z":{"ha":826,"x_min":54,"x_max":772,"o":"m 742 199 q 765 190 757 199 q 771 168 772 182 q 715 42 765 85 q 574 0 664 0 l 111 0 q 79 29 79 0 q 83 47 79 39 q 94 65 88 56 l 661 821 l 253 821 q 153 794 188 821 q 114 710 119 768 q 83 681 113 681 q 62 689 69 681 q 56 711 54 697 q 112 837 61 794 q 253 879 163 879 l 711 879 q 740 850 740 879 q 728 811 740 828 l 168 58 l 574 58 q 673 85 639 58 q 713 169 707 111 q 742 199 715 199 z "},"Ź":{"ha":826,"x_min":56,"x_max":771,"o":"m 742 199 q 765 190 757 199 q 771 168 772 182 q 715 42 765 85 q 574 0 664 0 l 111 0 q 79 29 79 0 q 83 47 79 39 q 94 65 88 56 l 661 821 l 253 821 q 153 794 188 821 q 114 710 119 768 q 83 681 113 681 q 62 689 69 681 q 56 711 54 697 q 112 837 61 794 q 253 879 163 879 l 711 879 q 740 850 740 879 q 728 811 740 828 l 168 58 l 574 58 q 673 85 639 58 q 713 169 707 111 q 742 199 715 199 m 403 965 q 392 988 392 975 q 399 1007 392 999 l 524 1154 q 546 1167 533 1167 q 565 1158 557 1167 q 576 1136 576 1149 q 569 1117 576 1125 l 444 969 q 422 957 433 957 q 403 965 411 957 z "},"Ž":{"ha":826,"x_min":56,"x_max":771,"o":"m 742 199 q 765 190 757 199 q 771 168 772 182 q 715 42 765 85 q 574 0 664 0 l 111 0 q 79 29 79 0 q 83 47 79 39 q 94 65 88 56 l 661 821 l 253 821 q 153 794 188 821 q 114 710 119 768 q 83 681 113 681 q 62 689 69 681 q 56 711 54 697 q 112 837 61 794 q 253 879 163 879 l 711 879 q 740 850 740 879 q 728 811 740 828 l 168 58 l 574 58 q 673 85 639 58 q 713 169 707 111 q 742 199 715 199 m 314 1168 q 333 1161 324 1168 l 474 1044 l 490 1044 l 631 1161 q 650 1168 640 1168 q 671 1160 663 1168 q 679 1139 679 1151 q 668 1117 679 1125 l 528 999 q 492 986 511 986 l 472 986 q 436 999 453 986 l 296 1117 q 285 1139 285 1125 q 293 1160 285 1151 q 314 1168 301 1168 z "},"Ż":{"ha":826,"x_min":56,"x_max":771,"o":"m 742 199 q 765 190 757 199 q 771 168 772 182 q 715 42 765 85 q 574 0 664 0 l 111 0 q 79 29 79 0 q 83 47 79 39 q 94 65 88 56 l 661 821 l 253 821 q 153 794 188 821 q 114 710 119 768 q 83 681 113 681 q 62 689 69 681 q 56 711 54 697 q 112 837 61 794 q 253 879 163 879 l 711 879 q 740 850 740 879 q 728 811 740 828 l 168 58 l 574 58 q 673 85 639 58 q 713 169 707 111 q 742 199 715 199 m 428 1010 q 386 1053 386 1010 l 386 1081 q 428 1122 386 1122 l 456 1122 q 497 1081 497 1122 l 497 1053 q 486 1021 497 1032 q 456 1010 475 1010 l 428 1010 z "},"a":{"ha":793,"x_min":97,"x_max":681,"o":"m 438 640 q 623 583 565 640 q 681 397 681 525 l 681 29 q 651 0 681 0 q 622 29 622 0 l 622 111 q 528 28 590 57 q 376 0 467 0 l 299 0 q 145 48 193 0 q 97 201 97 96 q 146 356 97 307 q 299 404 194 404 l 622 404 q 579 542 621 501 q 438 582 538 582 l 357 582 q 219 560 263 582 q 168 486 176 539 q 139 458 164 458 q 116 467 124 458 q 110 489 108 475 q 176 603 115 567 q 357 640 238 640 l 438 640 m 622 219 l 622 346 l 299 346 q 187 314 218 346 q 156 201 156 282 q 187 90 156 121 q 299 58 218 58 l 376 58 q 621 211 601 58 l 622 219 z "},"á":{"ha":793,"x_min":97,"x_max":681,"o":"m 438 640 q 623 583 565 640 q 681 397 681 525 l 681 29 q 651 0 681 0 q 622 29 622 0 l 622 111 q 528 28 590 57 q 376 0 467 0 l 299 0 q 145 48 193 0 q 97 201 97 96 q 146 356 97 307 q 299 404 194 404 l 622 404 q 579 542 621 501 q 438 582 538 582 l 357 582 q 219 560 263 582 q 168 486 176 539 q 139 458 164 458 q 116 467 124 458 q 110 489 108 475 q 176 603 115 567 q 357 640 238 640 l 438 640 m 622 219 l 622 346 l 299 346 q 187 314 218 346 q 156 201 156 282 q 187 90 156 121 q 299 58 218 58 l 376 58 q 621 211 601 58 l 622 219 m 356 726 q 344 749 344 736 q 351 768 344 760 l 476 915 q 499 928 486 928 q 518 919 510 928 q 529 897 529 910 q 522 878 529 886 l 397 731 q 375 718 386 718 q 356 726 364 718 z "},"ă":{"ha":793,"x_min":97,"x_max":681,"o":"m 438 640 q 623 583 565 640 q 681 397 681 525 l 681 29 q 651 0 681 0 q 622 29 622 0 l 622 111 q 528 28 590 57 q 376 0 467 0 l 299 0 q 145 48 193 0 q 97 201 97 96 q 146 356 97 307 q 299 404 194 404 l 622 404 q 579 542 621 501 q 438 582 538 582 l 357 582 q 219 560 263 582 q 168 486 176 539 q 139 458 164 458 q 116 467 124 458 q 110 489 108 475 q 176 603 115 567 q 357 640 238 640 l 438 640 m 622 219 l 622 346 l 299 346 q 187 314 218 346 q 156 201 156 282 q 187 90 156 121 q 299 58 218 58 l 376 58 q 621 211 601 58 l 622 219 m 392 721 q 267 764 310 721 q 225 889 225 807 l 225 892 q 254 921 225 921 q 283 892 283 921 l 283 889 q 310 804 283 831 q 394 778 336 778 q 480 805 454 779 q 506 889 506 831 l 506 892 q 535 921 506 921 q 564 892 564 921 l 564 889 q 392 721 564 721 z "},"ắ":{"ha":793,"x_min":97,"x_max":681,"o":"m 438 640 q 623 583 565 640 q 681 397 681 525 l 681 29 q 651 0 681 0 q 622 29 622 0 l 622 111 q 528 28 590 57 q 376 0 467 0 l 299 0 q 145 48 193 0 q 97 201 97 96 q 146 356 97 307 q 299 404 194 404 l 622 404 q 579 542 621 501 q 438 582 538 582 l 357 582 q 219 560 263 582 q 168 486 176 539 q 139 458 164 458 q 116 467 124 458 q 110 489 108 475 q 176 603 115 567 q 357 640 238 640 l 438 640 m 622 219 l 622 346 l 299 346 q 187 314 218 346 q 156 201 156 282 q 187 90 156 121 q 299 58 218 58 l 376 58 q 621 211 601 58 l 622 219 m 392 721 q 267 764 310 721 q 225 889 225 807 l 225 892 q 254 921 225 921 q 283 892 283 921 l 283 889 q 310 804 283 831 q 394 778 336 778 q 480 805 454 779 q 506 889 506 831 l 506 892 q 535 921 506 921 q 564 892 564 921 l 564 889 q 392 721 564 721 m 369 904 q 358 926 358 914 q 365 946 358 938 l 490 1093 q 513 1106 500 1106 q 532 1097 524 1106 q 543 1075 543 1088 q 536 1056 543 1064 l 411 908 q 389 896 400 896 q 369 904 378 896 z "},"ặ":{"ha":793,"x_min":97,"x_max":681,"o":"m 438 640 q 623 583 565 640 q 681 397 681 525 l 681 29 q 651 0 681 0 q 622 29 622 0 l 622 111 q 528 28 590 57 q 376 0 467 0 l 299 0 q 145 48 193 0 q 97 201 97 96 q 146 356 97 307 q 299 404 194 404 l 622 404 q 579 542 621 501 q 438 582 538 582 l 357 582 q 219 560 263 582 q 168 486 176 539 q 139 458 164 458 q 116 467 124 458 q 110 489 108 475 q 176 603 115 567 q 357 640 238 640 l 438 640 m 622 219 l 622 346 l 299 346 q 187 314 218 346 q 156 201 156 282 q 187 90 156 121 q 299 58 218 58 l 376 58 q 621 211 601 58 l 622 219 m 382 -208 q 347 -172 347 -208 l 347 -149 q 382 -114 347 -114 l 406 -114 q 440 -149 440 -114 l 440 -172 q 406 -208 440 -208 l 382 -208 m 392 721 q 267 764 310 721 q 225 889 225 807 l 225 892 q 254 921 225 921 q 283 892 283 921 l 283 889 q 310 804 283 831 q 394 778 336 778 q 480 805 454 779 q 506 889 506 831 l 506 892 q 535 921 506 921 q 564 892 564 921 l 564 889 q 392 721 564 721 z "},"ằ":{"ha":793,"x_min":97,"x_max":681,"o":"m 438 640 q 623 583 565 640 q 681 397 681 525 l 681 29 q 651 0 681 0 q 622 29 622 0 l 622 111 q 528 28 590 57 q 376 0 467 0 l 299 0 q 145 48 193 0 q 97 201 97 96 q 146 356 97 307 q 299 404 194 404 l 622 404 q 579 542 621 501 q 438 582 538 582 l 357 582 q 219 560 263 582 q 168 486 176 539 q 139 458 164 458 q 116 467 124 458 q 110 489 108 475 q 176 603 115 567 q 357 640 238 640 l 438 640 m 622 219 l 622 346 l 299 346 q 187 314 218 346 q 156 201 156 282 q 187 90 156 121 q 299 58 218 58 l 376 58 q 621 211 601 58 l 622 219 m 392 721 q 267 764 310 721 q 225 889 225 807 l 225 892 q 254 921 225 921 q 283 892 283 921 l 283 889 q 310 804 283 831 q 394 778 336 778 q 480 805 454 779 q 506 889 506 831 l 506 892 q 535 921 506 921 q 564 892 564 921 l 564 889 q 392 721 564 721 m 432 904 q 413 896 424 896 q 390 908 400 896 l 265 1056 q 258 1075 258 1064 q 269 1097 258 1088 q 289 1106 278 1106 q 311 1093 300 1106 l 436 946 q 443 926 443 938 q 432 904 443 914 z "},"ẳ":{"ha":793,"x_min":97,"x_max":681,"o":"m 438 640 q 623 583 565 640 q 681 397 681 525 l 681 29 q 651 0 681 0 q 622 29 622 0 l 622 111 q 528 28 590 57 q 376 0 467 0 l 299 0 q 145 48 193 0 q 97 201 97 96 q 146 356 97 307 q 299 404 194 404 l 622 404 q 579 542 621 501 q 438 582 538 582 l 357 582 q 219 560 263 582 q 168 486 176 539 q 139 458 164 458 q 116 467 124 458 q 110 489 108 475 q 176 603 115 567 q 357 640 238 640 l 438 640 m 622 219 l 622 346 l 299 346 q 187 314 218 346 q 156 201 156 282 q 187 90 156 121 q 299 58 218 58 l 376 58 q 621 211 601 58 l 622 219 m 392 721 q 267 764 310 721 q 225 889 225 807 l 225 892 q 254 921 225 921 q 283 892 283 921 l 283 889 q 310 804 283 831 q 394 778 336 778 q 480 805 454 779 q 506 889 506 831 l 506 892 q 535 921 506 921 q 564 892 564 921 l 564 889 q 392 721 564 721 m 394 869 q 365 899 365 869 q 383 958 365 938 q 431 997 401 979 q 460 1019 453 1011 q 467 1040 467 1026 q 455 1085 467 1074 q 410 1097 443 1097 q 365 1085 376 1097 q 353 1040 353 1074 q 324 1011 353 1011 q 294 1040 294 1011 q 410 1156 294 1156 q 525 1040 525 1156 q 508 985 525 1004 q 461 947 490 965 q 431 923 438 932 q 424 899 424 914 q 394 869 424 869 z "},"ẵ":{"ha":793,"x_min":97,"x_max":681,"o":"m 438 640 q 623 583 565 640 q 681 397 681 525 l 681 29 q 651 0 681 0 q 622 29 622 0 l 622 111 q 528 28 590 57 q 376 0 467 0 l 299 0 q 145 48 193 0 q 97 201 97 96 q 146 356 97 307 q 299 404 194 404 l 622 404 q 579 542 621 501 q 438 582 538 582 l 357 582 q 219 560 263 582 q 168 486 176 539 q 139 458 164 458 q 116 467 124 458 q 110 489 108 475 q 176 603 115 567 q 357 640 238 640 l 438 640 m 622 219 l 622 346 l 299 346 q 187 314 218 346 q 156 201 156 282 q 187 90 156 121 q 299 58 218 58 l 376 58 q 621 211 601 58 l 622 219 m 386 721 q 262 764 304 721 q 219 889 219 807 l 219 892 q 249 921 219 921 q 278 892 278 921 l 278 889 q 304 804 278 831 q 389 778 331 778 q 474 805 449 779 q 500 889 500 831 l 500 892 q 529 921 500 921 q 558 892 558 921 l 558 889 q 386 721 558 721 m 453 969 q 408 982 425 969 q 369 1019 392 994 q 329 1050 347 1050 q 303 1038 313 1050 q 278 990 294 1026 q 250 969 268 969 q 225 983 233 969 q 222 1008 217 997 q 269 1085 246 1061 q 329 1108 293 1108 q 375 1095 357 1108 q 411 1058 393 1082 q 433 1035 424 1043 q 453 1028 443 1028 q 478 1041 468 1028 q 500 1088 489 1054 q 528 1108 507 1108 q 552 1095 544 1108 q 556 1069 560 1082 q 515 996 542 1022 q 453 969 489 969 z "},"â":{"ha":793,"x_min":97,"x_max":681,"o":"m 438 640 q 623 583 565 640 q 681 397 681 525 l 681 29 q 651 0 681 0 q 622 29 622 0 l 622 111 q 528 28 590 57 q 376 0 467 0 l 299 0 q 145 48 193 0 q 97 201 97 96 q 146 356 97 307 q 299 404 194 404 l 622 404 q 579 542 621 501 q 438 582 538 582 l 357 582 q 219 560 263 582 q 168 486 176 539 q 139 458 164 458 q 116 467 124 458 q 110 489 108 475 q 176 603 115 567 q 357 640 238 640 l 438 640 m 622 219 l 622 346 l 299 346 q 187 314 218 346 q 156 201 156 282 q 187 90 156 121 q 299 58 218 58 l 376 58 q 621 211 601 58 l 622 219 m 265 719 q 244 728 253 719 q 236 749 236 736 q 242 767 236 756 l 350 911 q 385 929 364 929 l 410 929 q 444 911 431 929 l 553 767 q 558 749 558 756 q 550 728 558 736 q 529 719 542 719 q 506 732 514 719 l 401 871 l 393 871 l 289 732 q 265 719 281 719 z "},"ấ":{"ha":793,"x_min":97,"x_max":681,"o":"m 438 640 q 623 583 565 640 q 681 397 681 525 l 681 29 q 651 0 681 0 q 622 29 622 0 l 622 111 q 528 28 590 57 q 376 0 467 0 l 299 0 q 145 48 193 0 q 97 201 97 96 q 146 356 97 307 q 299 404 194 404 l 622 404 q 579 542 621 501 q 438 582 538 582 l 357 582 q 219 560 263 582 q 168 486 176 539 q 139 458 164 458 q 116 467 124 458 q 110 489 108 475 q 176 603 115 567 q 357 640 238 640 l 438 640 m 622 219 l 622 346 l 299 346 q 187 314 218 346 q 156 201 156 282 q 187 90 156 121 q 299 58 218 58 l 376 58 q 621 211 601 58 l 622 219 m 522 851 q 511 874 511 861 q 518 893 511 885 l 606 996 q 628 1008 615 1008 q 647 1000 639 1008 q 658 978 658 990 q 651 958 658 967 l 564 856 q 542 843 553 843 q 522 851 531 843 m 263 719 q 242 728 250 719 q 233 749 233 736 q 239 767 233 756 l 347 911 q 382 929 361 929 l 407 929 q 442 911 428 929 l 550 767 q 556 749 556 756 q 547 728 556 736 q 526 719 539 719 q 503 732 511 719 l 399 871 l 390 871 l 286 732 q 263 719 278 719 z "},"ậ":{"ha":793,"x_min":97,"x_max":681,"o":"m 438 640 q 623 583 565 640 q 681 397 681 525 l 681 29 q 651 0 681 0 q 622 29 622 0 l 622 111 q 528 28 590 57 q 376 0 467 0 l 299 0 q 145 48 193 0 q 97 201 97 96 q 146 356 97 307 q 299 404 194 404 l 622 404 q 579 542 621 501 q 438 582 538 582 l 357 582 q 219 560 263 582 q 168 486 176 539 q 139 458 164 458 q 116 467 124 458 q 110 489 108 475 q 176 603 115 567 q 357 640 238 640 l 438 640 m 622 219 l 622 346 l 299 346 q 187 314 218 346 q 156 201 156 282 q 187 90 156 121 q 299 58 218 58 l 376 58 q 621 211 601 58 l 622 219 m 382 -208 q 347 -172 347 -208 l 347 -149 q 382 -114 347 -114 l 406 -114 q 440 -149 440 -114 l 440 -172 q 406 -208 440 -208 l 382 -208 m 265 719 q 244 728 253 719 q 236 749 236 736 q 242 767 236 756 l 350 911 q 385 929 364 929 l 410 929 q 444 911 431 929 l 553 767 q 558 749 558 756 q 550 728 558 736 q 529 719 542 719 q 506 732 514 719 l 401 871 l 393 871 l 289 732 q 265 719 281 719 z "},"ầ":{"ha":793,"x_min":97,"x_max":681,"o":"m 438 640 q 623 583 565 640 q 681 397 681 525 l 681 29 q 651 0 681 0 q 622 29 622 0 l 622 111 q 528 28 590 57 q 376 0 467 0 l 299 0 q 145 48 193 0 q 97 201 97 96 q 146 356 97 307 q 299 404 194 404 l 622 404 q 579 542 621 501 q 438 582 538 582 l 357 582 q 219 560 263 582 q 168 486 176 539 q 139 458 164 458 q 116 467 124 458 q 110 489 108 475 q 176 603 115 567 q 357 640 238 640 l 438 640 m 622 219 l 622 346 l 299 346 q 187 314 218 346 q 156 201 156 282 q 187 90 156 121 q 299 58 218 58 l 376 58 q 621 211 601 58 l 622 219 m 269 851 q 250 843 261 843 q 228 856 238 843 l 140 958 q 133 978 133 967 q 144 1000 133 990 q 164 1008 153 1008 q 186 996 175 1008 l 274 893 q 281 874 281 885 q 269 851 281 861 m 263 719 q 242 728 250 719 q 233 749 233 736 q 239 767 233 756 l 347 911 q 382 929 361 929 l 407 929 q 442 911 428 929 l 550 767 q 556 749 556 756 q 547 728 556 736 q 526 719 539 719 q 503 732 511 719 l 399 871 l 390 871 l 286 732 q 263 719 278 719 z "},"ẩ":{"ha":793,"x_min":97,"x_max":692,"o":"m 438 640 q 623 583 565 640 q 681 397 681 525 l 681 29 q 651 0 681 0 q 622 29 622 0 l 622 111 q 528 28 590 57 q 376 0 467 0 l 299 0 q 145 48 193 0 q 97 201 97 96 q 146 356 97 307 q 299 404 194 404 l 622 404 q 579 542 621 501 q 438 582 538 582 l 357 582 q 219 560 263 582 q 168 486 176 539 q 139 458 164 458 q 116 467 124 458 q 110 489 108 475 q 176 603 115 567 q 357 640 238 640 l 438 640 m 622 219 l 622 346 l 299 346 q 187 314 218 346 q 156 201 156 282 q 187 90 156 121 q 299 58 218 58 l 376 58 q 621 211 601 58 l 622 219 m 263 719 q 242 728 250 719 q 233 749 233 736 q 239 767 233 756 l 347 911 q 382 929 361 929 l 407 929 q 442 911 428 929 l 550 767 q 556 749 556 756 q 547 728 556 736 q 526 719 539 719 q 503 732 511 719 l 399 871 l 390 871 l 286 732 q 263 719 278 719 m 561 832 q 532 861 532 832 q 550 921 532 900 q 597 960 568 942 q 626 981 619 974 q 633 1003 633 989 q 622 1048 633 1036 q 576 1060 610 1060 q 531 1048 543 1060 q 519 1003 519 1036 q 490 974 519 974 q 461 1003 461 974 q 576 1118 461 1118 q 692 1003 692 1118 q 674 947 692 967 q 628 910 657 928 q 597 885 604 894 q 590 861 590 876 q 561 832 590 832 z "},"ẫ":{"ha":793,"x_min":97,"x_max":681,"o":"m 438 640 q 623 583 565 640 q 681 397 681 525 l 681 29 q 651 0 681 0 q 622 29 622 0 l 622 111 q 528 28 590 57 q 376 0 467 0 l 299 0 q 145 48 193 0 q 97 201 97 96 q 146 356 97 307 q 299 404 194 404 l 622 404 q 579 542 621 501 q 438 582 538 582 l 357 582 q 219 560 263 582 q 168 486 176 539 q 139 458 164 458 q 116 467 124 458 q 110 489 108 475 q 176 603 115 567 q 357 640 238 640 l 438 640 m 622 219 l 622 346 l 299 346 q 187 314 218 346 q 156 201 156 282 q 187 90 156 121 q 299 58 218 58 l 376 58 q 621 211 601 58 l 622 219 m 263 719 q 242 728 250 719 q 233 749 233 736 q 239 767 233 756 l 347 911 q 382 929 361 929 l 407 929 q 442 911 428 929 l 550 767 q 556 749 556 756 q 547 728 556 736 q 526 719 539 719 q 503 732 511 719 l 399 871 l 390 871 l 286 732 q 263 719 278 719 m 465 964 q 421 976 438 964 q 382 1014 404 989 q 342 1044 360 1044 q 316 1033 325 1044 q 290 985 307 1021 q 263 964 281 964 q 238 978 246 964 q 235 1003 229 992 q 282 1079 258 1056 q 342 1103 306 1103 q 388 1090 369 1103 q 424 1053 406 1076 q 446 1030 436 1038 q 465 1022 456 1022 q 491 1035 481 1022 q 513 1082 501 1049 q 540 1103 519 1103 q 565 1090 557 1103 q 568 1064 572 1076 q 528 990 554 1017 q 465 964 501 964 z "},"ȁ":{"ha":793,"x_min":97,"x_max":681,"o":"m 179 875 q 172 893 172 885 q 183 913 172 904 q 200 919 190 919 q 221 908 214 919 l 333 776 q 340 758 340 767 q 329 739 340 750 q 311 731 321 731 q 292 742 303 731 l 179 875 m 332 875 q 325 893 325 885 q 336 913 325 904 q 353 919 343 919 q 374 908 367 919 l 486 776 q 493 758 493 767 q 482 739 493 750 q 464 731 474 731 q 444 742 456 731 l 332 875 m 438 640 q 623 583 565 640 q 681 397 681 525 l 681 29 q 651 0 681 0 q 622 29 622 0 l 622 111 q 528 28 590 57 q 376 0 467 0 l 299 0 q 145 48 193 0 q 97 201 97 96 q 146 356 97 307 q 299 404 194 404 l 622 404 q 579 542 621 501 q 438 582 538 582 l 357 582 q 219 560 263 582 q 168 486 176 539 q 139 458 164 458 q 116 467 124 458 q 110 489 108 475 q 176 603 115 567 q 357 640 238 640 l 438 640 m 622 219 l 622 346 l 299 346 q 187 314 218 346 q 156 201 156 282 q 187 90 156 121 q 299 58 218 58 l 376 58 q 621 211 601 58 l 622 219 z "},"ä":{"ha":793,"x_min":97,"x_max":681,"o":"m 438 640 q 623 583 565 640 q 681 397 681 525 l 681 29 q 651 0 681 0 q 622 29 622 0 l 622 111 q 528 28 590 57 q 376 0 467 0 l 299 0 q 145 48 193 0 q 97 201 97 96 q 146 356 97 307 q 299 404 194 404 l 622 404 q 579 542 621 501 q 438 582 538 582 l 357 582 q 219 560 263 582 q 168 486 176 539 q 139 458 164 458 q 116 467 124 458 q 110 489 108 475 q 176 603 115 567 q 357 640 238 640 l 438 640 m 622 219 l 622 346 l 299 346 q 187 314 218 346 q 156 201 156 282 q 187 90 156 121 q 299 58 218 58 l 376 58 q 621 211 601 58 l 622 219 m 283 763 q 249 799 249 763 l 249 822 q 283 857 249 857 l 307 857 q 342 822 342 857 l 342 799 q 307 763 342 763 l 283 763 m 482 763 q 447 799 447 763 l 447 822 q 482 857 447 857 l 506 857 q 540 822 540 857 l 540 799 q 506 763 540 763 l 482 763 z "},"ạ":{"ha":793,"x_min":97,"x_max":681,"o":"m 438 640 q 623 583 565 640 q 681 397 681 525 l 681 29 q 651 0 681 0 q 622 29 622 0 l 622 111 q 528 28 590 57 q 376 0 467 0 l 299 0 q 145 48 193 0 q 97 201 97 96 q 146 356 97 307 q 299 404 194 404 l 622 404 q 579 542 621 501 q 438 582 538 582 l 357 582 q 219 560 263 582 q 168 486 176 539 q 139 458 164 458 q 116 467 124 458 q 110 489 108 475 q 176 603 115 567 q 357 640 238 640 l 438 640 m 622 219 l 622 346 l 299 346 q 187 314 218 346 q 156 201 156 282 q 187 90 156 121 q 299 58 218 58 l 376 58 q 621 211 601 58 l 622 219 m 382 -208 q 347 -172 347 -208 l 347 -149 q 382 -114 347 -114 l 406 -114 q 440 -149 440 -114 l 440 -172 q 406 -208 440 -208 l 382 -208 z "},"à":{"ha":793,"x_min":97,"x_max":681,"o":"m 438 640 q 623 583 565 640 q 681 397 681 525 l 681 29 q 651 0 681 0 q 622 29 622 0 l 622 111 q 528 28 590 57 q 376 0 467 0 l 299 0 q 145 48 193 0 q 97 201 97 96 q 146 356 97 307 q 299 404 194 404 l 622 404 q 579 542 621 501 q 438 582 538 582 l 357 582 q 219 560 263 582 q 168 486 176 539 q 139 458 164 458 q 116 467 124 458 q 110 489 108 475 q 176 603 115 567 q 357 640 238 640 l 438 640 m 622 219 l 622 346 l 299 346 q 187 314 218 346 q 156 201 156 282 q 187 90 156 121 q 299 58 218 58 l 376 58 q 621 211 601 58 l 622 219 m 433 726 q 414 718 425 718 q 392 731 401 718 l 267 878 q 260 897 260 886 q 271 919 260 910 q 290 928 279 928 q 313 915 301 928 l 438 768 q 444 749 444 760 q 433 726 444 736 z "},"ả":{"ha":793,"x_min":97,"x_max":681,"o":"m 438 640 q 623 583 565 640 q 681 397 681 525 l 681 29 q 651 0 681 0 q 622 29 622 0 l 622 111 q 528 28 590 57 q 376 0 467 0 l 299 0 q 145 48 193 0 q 97 201 97 96 q 146 356 97 307 q 299 404 194 404 l 622 404 q 579 542 621 501 q 438 582 538 582 l 357 582 q 219 560 263 582 q 168 486 176 539 q 139 458 164 458 q 116 467 124 458 q 110 489 108 475 q 176 603 115 567 q 357 640 238 640 l 438 640 m 622 219 l 622 346 l 299 346 q 187 314 218 346 q 156 201 156 282 q 187 90 156 121 q 299 58 218 58 l 376 58 q 621 211 601 58 l 622 219 m 394 719 q 365 749 365 719 q 383 808 365 788 q 431 847 401 829 q 460 869 453 861 q 467 890 467 876 q 455 935 467 924 q 410 947 443 947 q 365 935 376 947 q 353 890 353 924 q 324 861 353 861 q 294 890 294 861 q 410 1006 294 1006 q 525 890 525 1006 q 508 835 525 854 q 461 797 490 815 q 431 773 438 782 q 424 749 424 764 q 394 719 424 719 z "},"ȃ":{"ha":793,"x_min":97,"x_max":681,"o":"m 438 640 q 623 583 565 640 q 681 397 681 525 l 681 29 q 651 0 681 0 q 622 29 622 0 l 622 111 q 528 28 590 57 q 376 0 467 0 l 299 0 q 145 48 193 0 q 97 201 97 96 q 146 356 97 307 q 299 404 194 404 l 622 404 q 579 542 621 501 q 438 582 538 582 l 357 582 q 219 560 263 582 q 168 486 176 539 q 139 458 164 458 q 116 467 124 458 q 110 489 108 475 q 176 603 115 567 q 357 640 238 640 l 438 640 m 622 219 l 622 346 l 299 346 q 187 314 218 346 q 156 201 156 282 q 187 90 156 121 q 299 58 218 58 l 376 58 q 621 211 601 58 l 622 219 m 392 928 q 564 760 564 928 l 564 757 q 535 728 564 728 q 506 757 506 728 l 506 760 q 480 844 506 818 q 394 871 454 869 q 310 844 336 871 q 283 760 283 818 l 283 757 q 254 728 283 728 q 225 757 225 728 l 225 760 q 267 885 225 842 q 392 928 310 928 z "},"ā":{"ha":793,"x_min":97,"x_max":681,"o":"m 438 640 q 623 583 565 640 q 681 397 681 525 l 681 29 q 651 0 681 0 q 622 29 622 0 l 622 111 q 528 28 590 57 q 376 0 467 0 l 299 0 q 145 48 193 0 q 97 201 97 96 q 146 356 97 307 q 299 404 194 404 l 622 404 q 579 542 621 501 q 438 582 538 582 l 357 582 q 219 560 263 582 q 168 486 176 539 q 139 458 164 458 q 116 467 124 458 q 110 489 108 475 q 176 603 115 567 q 357 640 238 640 l 438 640 m 622 219 l 622 346 l 299 346 q 187 314 218 346 q 156 201 156 282 q 187 90 156 121 q 299 58 218 58 l 376 58 q 621 211 601 58 l 622 219 m 219 811 q 190 840 190 811 q 219 869 190 869 l 571 869 q 600 840 600 869 q 571 811 600 811 l 219 811 z "},"ą":{"ha":793,"x_min":97,"x_max":781,"o":"m 751 -128 q 772 -136 764 -128 q 781 -157 781 -144 q 772 -178 781 -169 q 713 -219 746 -204 q 649 -233 681 -233 q 562 -202 597 -233 q 526 -124 526 -171 q 557 -42 526 -81 l 622 43 l 622 111 q 528 28 590 57 q 376 0 467 0 l 299 0 q 145 48 193 0 q 97 201 97 96 q 146 356 97 307 q 299 404 194 404 l 622 404 q 579 542 621 501 q 438 582 538 582 l 357 582 q 219 560 263 582 q 168 486 176 539 q 139 458 164 458 q 116 467 124 458 q 110 489 108 475 q 176 603 115 567 q 357 640 238 640 l 438 640 q 623 583 565 640 q 681 397 681 525 l 681 29 q 665 3 681 7 l 604 -78 q 585 -124 585 -104 q 603 -160 585 -146 q 649 -175 621 -175 q 731 -136 692 -175 q 751 -128 739 -128 m 622 219 l 622 346 l 299 346 q 187 314 218 346 q 156 201 156 282 q 187 90 156 121 q 299 58 218 58 l 376 58 q 621 211 601 58 l 622 219 z "},"å":{"ha":793,"x_min":97,"x_max":681,"o":"m 438 640 q 623 583 565 640 q 681 397 681 525 l 681 29 q 651 0 681 0 q 622 29 622 0 l 622 111 q 528 28 590 57 q 376 0 467 0 l 299 0 q 145 48 193 0 q 97 201 97 96 q 146 356 97 307 q 299 404 194 404 l 622 404 q 579 542 621 501 q 438 582 538 582 l 357 582 q 219 560 263 582 q 168 486 176 539 q 139 458 164 458 q 116 467 124 458 q 110 489 108 475 q 176 603 115 567 q 357 640 238 640 l 438 640 m 622 219 l 622 346 l 299 346 q 187 314 218 346 q 156 201 156 282 q 187 90 156 121 q 299 58 218 58 l 376 58 q 621 211 601 58 l 622 219 m 386 726 q 308 753 335 726 q 281 832 281 781 q 308 910 281 883 q 386 938 335 938 q 465 910 438 938 q 492 832 492 883 q 465 753 492 781 q 386 726 438 726 m 386 785 q 423 795 413 785 q 433 832 433 806 q 423 869 433 858 q 386 879 413 879 q 349 869 360 879 q 339 832 339 858 q 349 795 339 806 q 386 785 360 785 z "},"ǻ":{"ha":793,"x_min":97,"x_max":681,"o":"m 438 640 q 623 583 565 640 q 681 397 681 525 l 681 29 q 651 0 681 0 q 622 29 622 0 l 622 111 q 528 28 590 57 q 376 0 467 0 l 299 0 q 145 48 193 0 q 97 201 97 96 q 146 356 97 307 q 299 404 194 404 l 622 404 q 579 542 621 501 q 438 582 538 582 l 357 582 q 219 560 263 582 q 168 486 176 539 q 139 458 164 458 q 116 467 124 458 q 110 489 108 475 q 176 603 115 567 q 357 640 238 640 l 438 640 m 622 219 l 622 346 l 299 346 q 187 314 218 346 q 156 201 156 282 q 187 90 156 121 q 299 58 218 58 l 376 58 q 621 211 601 58 l 622 219 m 386 726 q 308 753 335 726 q 281 832 281 781 q 308 910 281 883 q 386 938 335 938 q 465 910 438 938 q 492 832 492 883 q 465 753 492 781 q 386 726 438 726 m 386 785 q 423 795 413 785 q 433 832 433 806 q 423 869 433 858 q 386 879 413 879 q 349 869 360 879 q 339 832 339 858 q 349 795 339 806 q 386 785 360 785 m 356 1032 q 344 1054 344 1042 q 351 1074 344 1065 l 476 1221 q 499 1233 486 1233 q 518 1225 510 1233 q 529 1203 529 1215 q 522 1183 529 1192 l 397 1036 q 375 1024 386 1024 q 356 1032 364 1024 z "},"ã":{"ha":793,"x_min":97,"x_max":681,"o":"m 438 640 q 623 583 565 640 q 681 397 681 525 l 681 29 q 651 0 681 0 q 622 29 622 0 l 622 111 q 528 28 590 57 q 376 0 467 0 l 299 0 q 145 48 193 0 q 97 201 97 96 q 146 356 97 307 q 299 404 194 404 l 622 404 q 579 542 621 501 q 438 582 538 582 l 357 582 q 219 560 263 582 q 168 486 176 539 q 139 458 164 458 q 116 467 124 458 q 110 489 108 475 q 176 603 115 567 q 357 640 238 640 l 438 640 m 622 219 l 622 346 l 299 346 q 187 314 218 346 q 156 201 156 282 q 187 90 156 121 q 299 58 218 58 l 376 58 q 621 211 601 58 l 622 219 m 476 763 q 421 776 443 763 q 378 813 399 790 q 346 840 358 832 q 313 847 333 847 q 274 834 288 847 q 249 783 261 821 q 238 768 246 774 q 221 763 231 763 q 196 776 204 763 q 193 801 188 790 q 240 881 213 857 q 313 906 268 906 q 373 891 349 906 q 419 853 397 876 q 450 827 439 833 q 476 821 461 821 q 516 835 500 821 q 542 885 532 850 q 571 906 549 906 q 594 892 586 906 q 597 868 601 879 q 549 789 578 815 q 476 763 519 763 z "},"æ":{"ha":1264,"x_min":97,"x_max":1153,"o":"m 831 -1 q 694 29 747 -1 q 618 122 642 60 q 349 1 546 1 l 299 1 q 145 49 193 1 q 97 203 97 97 q 145 356 97 308 q 299 404 193 404 l 594 404 q 552 543 593 503 q 410 583 511 583 l 357 583 q 208 556 250 583 q 167 460 167 528 q 158 439 167 447 q 138 431 150 431 q 117 439 125 431 q 108 460 108 447 q 168 599 108 556 q 357 642 228 642 l 410 642 q 544 615 492 642 q 624 531 597 588 q 701 615 650 588 q 832 640 753 642 l 915 640 q 1096 576 1039 640 q 1153 375 1153 513 q 1124 346 1153 346 l 653 346 l 653 244 q 693 99 653 142 q 831 57 733 57 l 915 57 q 1055 86 1015 57 q 1094 188 1094 115 q 1103 208 1094 200 q 1124 217 1111 217 q 1144 208 1136 217 q 1153 188 1153 200 q 1096 44 1153 89 q 915 -1 1039 -1 l 831 -1 m 1094 404 q 1048 542 1089 501 q 915 582 1007 582 l 832 582 q 694 543 735 583 q 653 404 654 503 l 1094 404 m 349 60 q 594 239 594 60 l 594 346 l 299 346 q 187 315 218 346 q 156 203 156 283 q 187 91 156 122 q 299 60 218 60 l 349 60 z "},"ǽ":{"ha":1264,"x_min":97,"x_max":1153,"o":"m 831 -1 q 694 29 747 -1 q 618 122 642 60 q 349 1 546 1 l 299 1 q 145 49 193 1 q 97 203 97 97 q 145 356 97 308 q 299 404 193 404 l 594 404 q 552 543 593 503 q 410 583 511 583 l 357 583 q 208 556 250 583 q 167 460 167 528 q 158 439 167 447 q 138 431 150 431 q 117 439 125 431 q 108 460 108 447 q 168 599 108 556 q 357 642 228 642 l 410 642 q 544 615 492 642 q 624 531 597 588 q 701 615 650 588 q 832 640 753 642 l 915 640 q 1096 576 1039 640 q 1153 375 1153 513 q 1124 346 1153 346 l 653 346 l 653 244 q 693 99 653 142 q 831 57 733 57 l 915 57 q 1055 86 1015 57 q 1094 188 1094 115 q 1103 208 1094 200 q 1124 217 1111 217 q 1144 208 1136 217 q 1153 188 1153 200 q 1096 44 1153 89 q 915 -1 1039 -1 l 831 -1 m 1094 404 q 1048 542 1089 501 q 915 582 1007 582 l 832 582 q 694 543 735 583 q 653 404 654 503 l 1094 404 m 349 60 q 594 239 594 60 l 594 346 l 299 346 q 187 315 218 346 q 156 203 156 283 q 187 91 156 122 q 299 60 218 60 l 349 60 m 579 726 q 568 749 568 736 q 575 768 568 760 l 700 915 q 722 928 710 928 q 742 919 733 928 q 753 897 753 910 q 746 878 753 886 l 621 731 q 599 718 610 718 q 579 726 588 718 z "},"b":{"ha":836,"x_min":125,"x_max":725,"o":"m 482 642 q 667 584 610 642 q 725 399 725 526 l 725 243 q 667 58 725 117 q 482 0 610 0 l 429 0 q 273 26 333 0 q 183 106 213 53 l 183 29 q 154 0 183 0 q 125 29 125 0 l 125 929 q 154 958 125 958 q 183 929 183 958 l 183 536 q 273 615 213 589 q 429 642 333 642 l 482 642 m 667 399 q 626 542 667 501 q 482 583 585 583 l 429 583 q 248 545 313 583 q 183 432 183 507 l 183 206 q 250 96 185 133 q 429 58 315 58 l 482 58 q 626 100 585 58 q 667 243 667 142 l 667 399 z "},"c":{"ha":765,"x_min":111,"x_max":683,"o":"m 354 0 q 169 58 228 0 q 111 243 111 117 l 111 399 q 169 584 111 526 q 354 640 228 642 l 468 640 q 622 606 571 640 q 682 497 674 571 l 682 494 q 653 467 682 467 q 624 494 628 467 q 582 562 618 542 q 468 582 546 582 l 354 582 q 210 542 251 583 q 169 399 169 501 l 169 243 q 211 100 169 142 q 354 58 253 58 l 468 58 q 582 78 546 58 q 624 146 618 99 q 653 174 628 174 q 676 165 668 174 q 682 143 683 157 q 622 35 674 69 q 468 0 571 0 l 354 0 z "},"ć":{"ha":765,"x_min":111,"x_max":682,"o":"m 354 0 q 169 58 228 0 q 111 243 111 117 l 111 399 q 169 584 111 526 q 354 640 228 642 l 468 640 q 622 606 571 640 q 682 497 674 571 l 682 494 q 653 467 682 467 q 624 494 628 467 q 582 562 618 542 q 468 582 546 582 l 354 582 q 210 542 251 583 q 169 399 169 501 l 169 243 q 211 100 169 142 q 354 58 253 58 l 468 58 q 582 78 546 58 q 624 146 618 99 q 653 174 628 174 q 676 165 668 174 q 682 143 683 157 q 622 35 674 69 q 468 0 571 0 l 354 0 m 375 726 q 364 749 364 736 q 371 768 364 760 l 496 915 q 518 928 506 928 q 538 919 529 928 q 549 897 549 910 q 542 878 549 886 l 417 731 q 394 718 406 718 q 375 726 383 718 z "},"č":{"ha":765,"x_min":111,"x_max":682,"o":"m 354 0 q 169 58 228 0 q 111 243 111 117 l 111 399 q 169 584 111 526 q 354 640 228 642 l 468 640 q 622 606 571 640 q 682 497 674 571 l 682 494 q 653 467 682 467 q 624 494 628 467 q 582 562 618 542 q 468 582 546 582 l 354 582 q 210 542 251 583 q 169 399 169 501 l 169 243 q 211 100 169 142 q 354 58 253 58 l 468 58 q 582 78 546 58 q 624 146 618 99 q 653 174 628 174 q 676 165 668 174 q 682 143 683 157 q 622 35 674 69 q 468 0 571 0 l 354 0 m 282 929 q 306 917 297 929 l 410 778 l 418 778 l 522 917 q 546 929 531 929 q 567 921 558 929 q 575 900 575 913 q 569 882 575 893 l 461 738 q 426 719 447 719 l 401 719 q 367 738 381 719 l 258 882 q 253 900 253 893 q 261 921 253 913 q 282 929 269 929 z "},"ç":{"ha":765,"x_min":111,"x_max":683,"o":"m 653 174 q 676 165 668 174 q 682 143 683 157 q 623 36 674 71 q 474 0 572 1 q 510 -36 479 -17 q 555 -76 538 -54 q 572 -135 572 -97 q 538 -243 572 -208 q 429 -278 503 -278 q 314 -162 314 -278 q 343 -133 314 -133 q 372 -162 372 -133 q 384 -208 372 -196 q 429 -219 396 -219 q 496 -201 478 -219 q 514 -135 514 -183 q 507 -110 514 -119 q 478 -85 500 -100 q 436 -49 453 -68 q 414 0 419 -31 l 354 0 q 169 58 228 0 q 111 243 111 117 l 111 399 q 169 584 111 526 q 354 640 228 642 l 468 640 q 622 606 571 640 q 682 497 674 571 l 682 494 q 653 467 682 467 q 624 494 628 467 q 582 562 618 542 q 468 582 546 582 l 354 582 q 210 542 251 583 q 169 399 169 501 l 169 243 q 211 100 169 142 q 354 58 253 58 l 468 58 q 582 78 546 58 q 624 146 618 99 q 653 174 628 174 z "},"ĉ":{"ha":765,"x_min":111,"x_max":682,"o":"m 354 0 q 169 58 228 0 q 111 243 111 117 l 111 399 q 169 584 111 526 q 354 640 228 642 l 468 640 q 622 606 571 640 q 682 497 674 571 l 682 494 q 653 467 682 467 q 624 494 628 467 q 582 562 618 542 q 468 582 546 582 l 354 582 q 210 542 251 583 q 169 399 169 501 l 169 243 q 211 100 169 142 q 354 58 253 58 l 468 58 q 582 78 546 58 q 624 146 618 99 q 653 174 628 174 q 676 165 668 174 q 682 143 683 157 q 622 35 674 69 q 468 0 571 0 l 354 0 m 285 719 q 264 728 272 719 q 256 749 256 736 q 261 767 256 756 l 369 911 q 404 929 383 929 l 429 929 q 464 911 450 929 l 572 767 q 578 749 578 756 q 569 728 578 736 q 549 719 561 719 q 525 732 533 719 l 421 871 l 413 871 l 308 732 q 285 719 300 719 z "},"ċ":{"ha":765,"x_min":111,"x_max":682,"o":"m 354 0 q 169 58 228 0 q 111 243 111 117 l 111 399 q 169 584 111 526 q 354 640 228 642 l 468 640 q 622 606 571 640 q 682 497 674 571 l 682 494 q 653 467 682 467 q 624 494 628 467 q 582 562 618 542 q 468 582 546 582 l 354 582 q 210 542 251 583 q 169 399 169 501 l 169 243 q 211 100 169 142 q 354 58 253 58 l 468 58 q 582 78 546 58 q 624 146 618 99 q 653 174 628 174 q 676 165 668 174 q 682 143 683 157 q 622 35 674 69 q 468 0 571 0 l 354 0 m 400 771 q 358 814 358 771 l 358 842 q 400 883 358 883 l 428 883 q 469 842 469 883 l 469 814 q 458 782 469 793 q 428 771 447 771 l 400 771 z "},"d":{"ha":824,"x_min":111,"x_max":711,"o":"m 682 958 q 711 929 711 958 l 711 29 q 682 0 711 0 q 653 29 653 0 l 653 106 q 563 26 624 53 q 407 0 503 0 l 354 0 q 169 58 228 0 q 111 243 111 117 l 111 397 q 169 583 111 525 q 354 640 228 640 l 653 640 l 653 929 q 682 958 653 958 m 407 58 q 588 97 524 58 q 653 210 653 135 l 653 582 l 354 582 q 211 541 253 582 q 169 397 169 500 l 169 243 q 211 100 169 142 q 354 58 253 58 l 407 58 z "},"ð":{"ha":822,"x_min":111,"x_max":711,"o":"m 532 907 q 667 772 625 883 q 711 432 710 661 l 711 244 q 653 60 711 118 q 468 1 596 1 l 354 1 q 169 59 228 1 q 111 243 111 117 l 111 399 q 169 585 111 526 q 354 642 228 643 l 468 642 q 646 574 588 642 q 605 770 636 704 q 518 851 574 836 l 390 883 l 289 789 q 268 779 276 779 q 247 790 258 779 q 238 811 238 803 q 249 832 238 821 l 322 900 l 197 932 q 175 958 175 938 q 201 990 175 990 q 213 989 208 990 l 372 947 l 461 1031 q 482 1040 474 1040 q 503 1029 492 1040 q 513 1008 513 1017 q 501 988 513 999 l 440 931 l 532 907 m 653 432 q 605 549 653 514 q 468 583 557 583 l 354 583 q 211 543 253 585 q 169 399 169 501 l 169 243 q 211 101 169 142 q 354 60 253 60 l 468 60 q 612 101 571 60 q 653 244 653 143 l 653 432 z "},"ď":{"ha":857,"x_min":111,"x_max":911,"o":"m 682 958 q 711 929 711 958 l 711 29 q 682 0 711 0 q 653 29 653 0 l 653 106 q 563 26 624 53 q 407 0 503 0 l 354 0 q 169 58 228 0 q 111 243 111 117 l 111 397 q 169 583 111 525 q 354 640 228 640 l 653 640 l 653 929 q 682 958 653 958 m 407 58 q 588 97 524 58 q 653 210 653 135 l 653 582 l 354 582 q 211 541 253 582 q 169 397 169 500 l 169 243 q 211 100 169 142 q 354 58 253 58 l 407 58 m 911 907 q 904 883 911 893 l 860 781 q 838 763 851 763 q 821 769 828 763 q 815 788 814 776 l 839 929 q 867 958 839 958 l 885 958 q 911 928 911 958 l 911 907 z "},"đ":{"ha":824,"x_min":111,"x_max":838,"o":"m 808 822 q 838 793 838 822 q 808 764 838 764 l 711 764 l 711 29 q 682 0 711 0 q 653 29 653 0 l 653 106 q 563 26 624 53 q 407 0 503 0 l 354 0 q 169 58 228 0 q 111 243 111 117 l 111 397 q 169 583 111 525 q 354 640 228 640 l 653 640 l 653 764 l 450 764 q 421 793 421 764 q 450 822 421 822 l 653 822 l 653 929 q 682 958 653 958 q 711 929 711 958 l 711 822 l 808 822 m 407 58 q 588 97 524 58 q 653 210 653 135 l 653 582 l 354 582 q 211 541 253 582 q 169 397 169 500 l 169 243 q 211 100 169 142 q 354 58 253 58 l 407 58 z "},"ǳ":{"ha":1451,"x_min":111,"x_max":1403,"o":"m 682 958 q 711 929 711 958 l 711 29 q 682 0 711 0 q 653 29 653 0 l 653 106 q 563 26 624 53 q 407 0 503 0 l 354 0 q 169 58 228 0 q 111 243 111 117 l 111 397 q 169 583 111 525 q 354 640 228 640 l 653 640 l 653 929 q 682 958 653 958 m 407 58 q 588 97 524 58 q 653 210 653 135 l 653 582 l 354 582 q 211 541 253 582 q 169 397 169 500 l 169 243 q 211 100 169 142 q 354 58 253 58 l 407 58 m 1375 171 q 1397 163 1390 171 q 1403 140 1404 154 q 1233 0 1388 0 l 860 0 q 831 29 831 0 q 843 61 831 44 l 1267 582 l 981 582 q 899 564 924 582 q 869 499 875 546 q 840 469 868 469 q 817 478 825 469 q 811 500 810 486 q 858 606 817 572 q 981 640 900 640 l 1321 640 q 1350 611 1350 640 q 1338 578 1350 594 l 917 58 l 1233 58 q 1313 78 1288 58 q 1344 142 1339 97 q 1375 171 1349 171 z "},"ǆ":{"ha":1451,"x_min":111,"x_max":1403,"o":"m 682 958 q 711 929 711 958 l 711 29 q 682 0 711 0 q 653 29 653 0 l 653 106 q 563 26 624 53 q 407 0 503 0 l 354 0 q 169 58 228 0 q 111 243 111 117 l 111 397 q 169 583 111 525 q 354 640 228 640 l 653 640 l 653 929 q 682 958 653 958 m 407 58 q 588 97 524 58 q 653 210 653 135 l 653 582 l 354 582 q 211 541 253 582 q 169 397 169 500 l 169 243 q 211 100 169 142 q 354 58 253 58 l 407 58 m 1375 171 q 1397 163 1390 171 q 1403 140 1404 154 q 1233 0 1388 0 l 860 0 q 831 29 831 0 q 843 61 831 44 l 1267 582 l 981 582 q 899 564 924 582 q 869 499 875 546 q 840 469 868 469 q 817 478 825 469 q 811 500 810 486 q 858 606 817 572 q 981 640 900 640 l 1321 640 q 1350 611 1350 640 q 1338 578 1350 594 l 917 58 l 1233 58 q 1313 78 1288 58 q 1344 142 1339 97 q 1375 171 1349 171 m 976 929 q 1000 917 992 929 l 1104 778 l 1113 778 l 1217 917 q 1240 929 1225 929 q 1261 921 1253 929 q 1269 900 1269 913 q 1264 882 1269 893 l 1156 738 q 1121 719 1142 719 l 1096 719 q 1061 738 1075 719 l 953 882 q 947 900 947 893 q 956 921 947 913 q 976 929 964 929 z "},"e":{"ha":822,"x_min":111,"x_max":711,"o":"m 169 299 l 169 242 q 211 99 169 140 q 354 58 253 58 l 468 58 q 604 84 563 58 q 651 172 646 110 q 682 201 654 201 q 703 193 696 201 q 710 171 711 185 q 644 41 703 82 q 468 0 585 0 l 354 0 q 169 58 228 0 q 111 242 111 115 l 111 397 q 169 583 111 525 q 354 640 228 642 l 468 640 q 653 583 596 640 q 711 397 711 525 l 711 328 q 682 299 711 299 l 169 299 m 169 357 l 653 357 l 653 397 q 612 541 653 500 q 468 582 571 582 l 354 582 q 211 542 253 583 q 169 397 169 500 l 169 357 z "},"é":{"ha":822,"x_min":111,"x_max":711,"o":"m 169 299 l 169 242 q 211 99 169 140 q 354 58 253 58 l 468 58 q 604 84 563 58 q 651 172 646 110 q 682 201 654 201 q 703 193 696 201 q 710 171 711 185 q 644 41 703 82 q 468 0 585 0 l 354 0 q 169 58 228 0 q 111 242 111 115 l 111 397 q 169 583 111 525 q 354 640 228 642 l 468 640 q 653 583 596 640 q 711 397 711 525 l 711 328 q 682 299 711 299 l 169 299 m 169 357 l 653 357 l 653 397 q 612 541 653 500 q 468 582 571 582 l 354 582 q 211 542 253 583 q 169 397 169 500 l 169 357 m 383 726 q 372 749 372 736 q 379 768 372 760 l 504 915 q 526 928 514 928 q 546 919 538 928 q 557 897 557 910 q 550 878 557 886 l 425 731 q 403 718 414 718 q 383 726 392 718 z "},"ĕ":{"ha":822,"x_min":111,"x_max":711,"o":"m 169 299 l 169 242 q 211 99 169 140 q 354 58 253 58 l 468 58 q 604 84 563 58 q 651 172 646 110 q 682 201 654 201 q 703 193 696 201 q 710 171 711 185 q 644 41 703 82 q 468 0 585 0 l 354 0 q 169 58 228 0 q 111 242 111 115 l 111 397 q 169 583 111 525 q 354 640 228 642 l 468 640 q 653 583 596 640 q 711 397 711 525 l 711 328 q 682 299 711 299 l 169 299 m 169 357 l 653 357 l 653 397 q 612 541 653 500 q 468 582 571 582 l 354 582 q 211 542 253 583 q 169 397 169 500 l 169 357 m 419 721 q 295 764 338 721 q 253 889 253 807 l 253 892 q 282 921 253 921 q 311 892 311 921 l 311 889 q 338 804 311 831 q 422 778 364 778 q 508 805 482 779 q 533 889 533 831 l 533 892 q 563 921 533 921 q 592 892 592 921 l 592 889 q 419 721 592 721 z "},"ě":{"ha":822,"x_min":111,"x_max":711,"o":"m 169 299 l 169 242 q 211 99 169 140 q 354 58 253 58 l 468 58 q 604 84 563 58 q 651 172 646 110 q 682 201 654 201 q 703 193 696 201 q 710 171 711 185 q 644 41 703 82 q 468 0 585 0 l 354 0 q 169 58 228 0 q 111 242 111 115 l 111 397 q 169 583 111 525 q 354 640 228 642 l 468 640 q 653 583 596 640 q 711 397 711 525 l 711 328 q 682 299 711 299 l 169 299 m 169 357 l 653 357 l 653 397 q 612 541 653 500 q 468 582 571 582 l 354 582 q 211 542 253 583 q 169 397 169 500 l 169 357 m 290 929 q 314 917 306 929 l 418 778 l 426 778 l 531 917 q 554 929 539 929 q 575 921 567 929 q 583 900 583 913 q 578 882 583 893 l 469 738 q 435 719 456 719 l 410 719 q 375 738 389 719 l 267 882 q 261 900 261 893 q 269 921 261 913 q 290 929 278 929 z "},"ê":{"ha":822,"x_min":111,"x_max":711,"o":"m 169 299 l 169 242 q 211 99 169 140 q 354 58 253 58 l 468 58 q 604 84 563 58 q 651 172 646 110 q 682 201 654 201 q 703 193 696 201 q 710 171 711 185 q 644 41 703 82 q 468 0 585 0 l 354 0 q 169 58 228 0 q 111 242 111 115 l 111 397 q 169 583 111 525 q 354 640 228 642 l 468 640 q 653 583 596 640 q 711 397 711 525 l 711 328 q 682 299 711 299 l 169 299 m 169 357 l 653 357 l 653 397 q 612 541 653 500 q 468 582 571 582 l 354 582 q 211 542 253 583 q 169 397 169 500 l 169 357 m 293 719 q 272 728 281 719 q 264 749 264 736 q 269 767 264 756 l 378 911 q 413 929 392 929 l 438 929 q 472 911 458 929 l 581 767 q 586 749 586 756 q 578 728 586 736 q 557 719 569 719 q 533 732 542 719 l 429 871 l 421 871 l 317 732 q 293 719 308 719 z "},"ế":{"ha":822,"x_min":111,"x_max":711,"o":"m 169 299 l 169 242 q 211 99 169 140 q 354 58 253 58 l 468 58 q 604 84 563 58 q 651 172 646 110 q 682 201 654 201 q 703 193 696 201 q 710 171 711 185 q 644 41 703 82 q 468 0 585 0 l 354 0 q 169 58 228 0 q 111 242 111 115 l 111 397 q 169 583 111 525 q 354 640 228 642 l 468 640 q 653 583 596 640 q 711 397 711 525 l 711 328 q 682 299 711 299 l 169 299 m 169 357 l 653 357 l 653 397 q 612 541 653 500 q 468 582 571 582 l 354 582 q 211 542 253 583 q 169 397 169 500 l 169 357 m 550 851 q 539 874 539 861 q 546 893 539 885 l 633 996 q 656 1008 643 1008 q 675 1000 667 1008 q 686 978 686 990 q 679 958 686 967 l 592 856 q 569 843 581 843 q 550 851 558 843 m 290 719 q 269 728 278 719 q 261 749 261 736 q 267 767 261 756 l 375 911 q 410 929 389 929 l 435 929 q 469 911 456 929 l 578 767 q 583 749 583 756 q 575 728 583 736 q 554 719 567 719 q 531 732 539 719 l 426 871 l 418 871 l 314 732 q 290 719 306 719 z "},"ệ":{"ha":822,"x_min":111,"x_max":711,"o":"m 169 299 l 169 242 q 211 99 169 140 q 354 58 253 58 l 468 58 q 604 84 563 58 q 651 172 646 110 q 682 201 654 201 q 703 193 696 201 q 710 171 711 185 q 644 41 703 82 q 468 0 585 0 l 354 0 q 169 58 228 0 q 111 242 111 115 l 111 397 q 169 583 111 525 q 354 640 228 642 l 468 640 q 653 583 596 640 q 711 397 711 525 l 711 328 q 682 299 711 299 l 169 299 m 169 357 l 653 357 l 653 397 q 612 541 653 500 q 468 582 571 582 l 354 582 q 211 542 253 583 q 169 397 169 500 l 169 357 m 410 -208 q 375 -172 375 -208 l 375 -149 q 410 -114 375 -114 l 433 -114 q 468 -149 468 -114 l 468 -172 q 433 -208 468 -208 l 410 -208 m 293 719 q 272 728 281 719 q 264 749 264 736 q 269 767 264 756 l 378 911 q 413 929 392 929 l 438 929 q 472 911 458 929 l 581 767 q 586 749 586 756 q 578 728 586 736 q 557 719 569 719 q 533 732 542 719 l 429 871 l 421 871 l 317 732 q 293 719 308 719 z "},"ề":{"ha":822,"x_min":111,"x_max":711,"o":"m 169 299 l 169 242 q 211 99 169 140 q 354 58 253 58 l 468 58 q 604 84 563 58 q 651 172 646 110 q 682 201 654 201 q 703 193 696 201 q 710 171 711 185 q 644 41 703 82 q 468 0 585 0 l 354 0 q 169 58 228 0 q 111 242 111 115 l 111 397 q 169 583 111 525 q 354 640 228 642 l 468 640 q 653 583 596 640 q 711 397 711 525 l 711 328 q 682 299 711 299 l 169 299 m 169 357 l 653 357 l 653 397 q 612 541 653 500 q 468 582 571 582 l 354 582 q 211 542 253 583 q 169 397 169 500 l 169 357 m 297 851 q 278 843 289 843 q 256 856 265 843 l 168 958 q 161 978 161 967 q 172 1000 161 990 q 192 1008 181 1008 q 214 996 203 1008 l 301 893 q 308 874 308 885 q 297 851 308 861 m 290 719 q 269 728 278 719 q 261 749 261 736 q 267 767 261 756 l 375 911 q 410 929 389 929 l 435 929 q 469 911 456 929 l 578 767 q 583 749 583 756 q 575 728 583 736 q 554 719 567 719 q 531 732 539 719 l 426 871 l 418 871 l 314 732 q 290 719 306 719 z "},"ể":{"ha":822,"x_min":111,"x_max":719,"o":"m 169 299 l 169 242 q 211 99 169 140 q 354 58 253 58 l 468 58 q 604 84 563 58 q 651 172 646 110 q 682 201 654 201 q 703 193 696 201 q 710 171 711 185 q 644 41 703 82 q 468 0 585 0 l 354 0 q 169 58 228 0 q 111 242 111 115 l 111 397 q 169 583 111 525 q 354 640 228 642 l 468 640 q 653 583 596 640 q 711 397 711 525 l 711 328 q 682 299 711 299 l 169 299 m 169 357 l 653 357 l 653 397 q 612 541 653 500 q 468 582 571 582 l 354 582 q 211 542 253 583 q 169 397 169 500 l 169 357 m 290 719 q 269 728 278 719 q 261 749 261 736 q 267 767 261 756 l 375 911 q 410 929 389 929 l 435 929 q 469 911 456 929 l 578 767 q 583 749 583 756 q 575 728 583 736 q 554 719 567 719 q 531 732 539 719 l 426 871 l 418 871 l 314 732 q 290 719 306 719 m 589 832 q 560 861 560 832 q 578 921 560 900 q 625 960 596 942 q 654 981 647 974 q 661 1003 661 989 q 649 1048 661 1036 q 604 1060 638 1060 q 559 1048 571 1060 q 547 1003 547 1036 q 518 974 547 974 q 489 1003 489 974 q 604 1118 489 1118 q 719 1003 719 1118 q 702 947 719 967 q 656 910 685 928 q 625 885 632 894 q 618 861 618 876 q 589 832 618 832 z "},"ễ":{"ha":822,"x_min":111,"x_max":711,"o":"m 169 299 l 169 242 q 211 99 169 140 q 354 58 253 58 l 468 58 q 604 84 563 58 q 651 172 646 110 q 682 201 654 201 q 703 193 696 201 q 710 171 711 185 q 644 41 703 82 q 468 0 585 0 l 354 0 q 169 58 228 0 q 111 242 111 115 l 111 397 q 169 583 111 525 q 354 640 228 642 l 468 640 q 653 583 596 640 q 711 397 711 525 l 711 328 q 682 299 711 299 l 169 299 m 169 357 l 653 357 l 653 397 q 612 541 653 500 q 468 582 571 582 l 354 582 q 211 542 253 583 q 169 397 169 500 l 169 357 m 290 719 q 269 728 278 719 q 261 749 261 736 q 267 767 261 756 l 375 911 q 410 929 389 929 l 435 929 q 469 911 456 929 l 578 767 q 583 749 583 756 q 575 728 583 736 q 554 719 567 719 q 531 732 539 719 l 426 871 l 418 871 l 314 732 q 290 719 306 719 m 493 964 q 449 976 465 964 q 410 1014 432 989 q 369 1044 388 1044 q 344 1033 353 1044 q 318 985 335 1021 q 290 964 308 964 q 265 978 274 964 q 263 1003 257 992 q 310 1079 286 1056 q 369 1103 333 1103 q 415 1090 397 1103 q 451 1053 433 1076 q 474 1030 464 1038 q 493 1022 483 1022 q 519 1035 508 1022 q 540 1082 529 1049 q 568 1103 547 1103 q 592 1090 585 1103 q 596 1064 600 1076 q 556 990 582 1017 q 493 964 529 964 z "},"ȅ":{"ha":822,"x_min":111,"x_max":711,"o":"m 207 875 q 200 893 200 885 q 211 913 200 904 q 228 919 218 919 q 249 908 242 919 l 361 776 q 368 758 368 767 q 357 739 368 750 q 339 731 349 731 q 319 742 331 731 l 207 875 m 360 875 q 353 893 353 885 q 364 913 353 904 q 381 919 371 919 q 401 908 394 919 l 514 776 q 521 758 521 767 q 510 739 521 750 q 492 731 501 731 q 472 742 483 731 l 360 875 m 169 299 l 169 242 q 211 99 169 140 q 354 58 253 58 l 468 58 q 604 84 563 58 q 651 172 646 110 q 682 201 654 201 q 703 193 696 201 q 710 171 711 185 q 644 41 703 82 q 468 0 585 0 l 354 0 q 169 58 228 0 q 111 242 111 115 l 111 397 q 169 583 111 525 q 354 640 228 642 l 468 640 q 653 583 596 640 q 711 397 711 525 l 711 328 q 682 299 711 299 l 169 299 m 169 357 l 653 357 l 653 397 q 612 541 653 500 q 468 582 571 582 l 354 582 q 211 542 253 583 q 169 397 169 500 l 169 357 z "},"ë":{"ha":822,"x_min":111,"x_max":711,"o":"m 169 299 l 169 242 q 211 99 169 140 q 354 58 253 58 l 468 58 q 604 84 563 58 q 651 172 646 110 q 682 201 654 201 q 703 193 696 201 q 710 171 711 185 q 644 41 703 82 q 468 0 585 0 l 354 0 q 169 58 228 0 q 111 242 111 115 l 111 397 q 169 583 111 525 q 354 640 228 642 l 468 640 q 653 583 596 640 q 711 397 711 525 l 711 328 q 682 299 711 299 l 169 299 m 169 357 l 653 357 l 653 397 q 612 541 653 500 q 468 582 571 582 l 354 582 q 211 542 253 583 q 169 397 169 500 l 169 357 m 311 763 q 276 799 276 763 l 276 822 q 311 857 276 857 l 335 857 q 369 822 369 857 l 369 799 q 335 763 369 763 l 311 763 m 510 763 q 475 799 475 763 l 475 822 q 510 857 475 857 l 533 857 q 568 822 568 857 l 568 799 q 533 763 568 763 l 510 763 z "},"ė":{"ha":822,"x_min":111,"x_max":711,"o":"m 169 299 l 169 242 q 211 99 169 140 q 354 58 253 58 l 468 58 q 604 84 563 58 q 651 172 646 110 q 682 201 654 201 q 703 193 696 201 q 710 171 711 185 q 644 41 703 82 q 468 0 585 0 l 354 0 q 169 58 228 0 q 111 242 111 115 l 111 397 q 169 583 111 525 q 354 640 228 642 l 468 640 q 653 583 596 640 q 711 397 711 525 l 711 328 q 682 299 711 299 l 169 299 m 169 357 l 653 357 l 653 397 q 612 541 653 500 q 468 582 571 582 l 354 582 q 211 542 253 583 q 169 397 169 500 l 169 357 m 408 771 q 367 814 367 771 l 367 842 q 408 883 367 883 l 436 883 q 478 842 478 883 l 478 814 q 467 782 478 793 q 436 771 456 771 l 408 771 z "},"ẹ":{"ha":822,"x_min":111,"x_max":711,"o":"m 169 299 l 169 242 q 211 99 169 140 q 354 58 253 58 l 468 58 q 604 84 563 58 q 651 172 646 110 q 682 201 654 201 q 703 193 696 201 q 710 171 711 185 q 644 41 703 82 q 468 0 585 0 l 354 0 q 169 58 228 0 q 111 242 111 115 l 111 397 q 169 583 111 525 q 354 640 228 642 l 468 640 q 653 583 596 640 q 711 397 711 525 l 711 328 q 682 299 711 299 l 169 299 m 169 357 l 653 357 l 653 397 q 612 541 653 500 q 468 582 571 582 l 354 582 q 211 542 253 583 q 169 397 169 500 l 169 357 m 410 -208 q 375 -172 375 -208 l 375 -149 q 410 -114 375 -114 l 433 -114 q 468 -149 468 -114 l 468 -172 q 433 -208 468 -208 l 410 -208 z "},"è":{"ha":822,"x_min":111,"x_max":711,"o":"m 169 299 l 169 242 q 211 99 169 140 q 354 58 253 58 l 468 58 q 604 84 563 58 q 651 172 646 110 q 682 201 654 201 q 703 193 696 201 q 710 171 711 185 q 644 41 703 82 q 468 0 585 0 l 354 0 q 169 58 228 0 q 111 242 111 115 l 111 397 q 169 583 111 525 q 354 640 228 642 l 468 640 q 653 583 596 640 q 711 397 711 525 l 711 328 q 682 299 711 299 l 169 299 m 169 357 l 653 357 l 653 397 q 612 541 653 500 q 468 582 571 582 l 354 582 q 211 542 253 583 q 169 397 169 500 l 169 357 m 461 726 q 442 718 453 718 q 419 731 429 718 l 294 878 q 288 897 288 886 q 299 919 288 910 q 318 928 307 928 q 340 915 329 928 l 465 768 q 472 749 472 760 q 461 726 472 736 z "},"ẻ":{"ha":822,"x_min":111,"x_max":711,"o":"m 169 299 l 169 242 q 211 99 169 140 q 354 58 253 58 l 468 58 q 604 84 563 58 q 651 172 646 110 q 682 201 654 201 q 703 193 696 201 q 710 171 711 185 q 644 41 703 82 q 468 0 585 0 l 354 0 q 169 58 228 0 q 111 242 111 115 l 111 397 q 169 583 111 525 q 354 640 228 642 l 468 640 q 653 583 596 640 q 711 397 711 525 l 711 328 q 682 299 711 299 l 169 299 m 169 357 l 653 357 l 653 397 q 612 541 653 500 q 468 582 571 582 l 354 582 q 211 542 253 583 q 169 397 169 500 l 169 357 m 422 719 q 393 749 393 719 q 411 808 393 788 q 458 847 429 829 q 488 869 481 861 q 494 890 494 876 q 483 935 494 924 q 438 947 471 947 q 392 935 404 947 q 381 890 381 924 q 351 861 381 861 q 322 890 322 861 q 438 1006 322 1006 q 553 890 553 1006 q 535 835 553 854 q 489 797 518 815 q 458 773 465 782 q 451 749 451 764 q 422 719 451 719 z "},"ȇ":{"ha":822,"x_min":111,"x_max":711,"o":"m 169 299 l 169 242 q 211 99 169 140 q 354 58 253 58 l 468 58 q 604 84 563 58 q 651 172 646 110 q 682 201 654 201 q 703 193 696 201 q 710 171 711 185 q 644 41 703 82 q 468 0 585 0 l 354 0 q 169 58 228 0 q 111 242 111 115 l 111 397 q 169 583 111 525 q 354 640 228 642 l 468 640 q 653 583 596 640 q 711 397 711 525 l 711 328 q 682 299 711 299 l 169 299 m 169 357 l 653 357 l 653 397 q 612 541 653 500 q 468 582 571 582 l 354 582 q 211 542 253 583 q 169 397 169 500 l 169 357 m 419 928 q 592 760 592 928 l 592 757 q 563 728 592 728 q 533 757 533 728 l 533 760 q 508 844 533 818 q 422 871 482 869 q 338 844 364 871 q 311 760 311 818 l 311 757 q 282 728 311 728 q 253 757 253 728 l 253 760 q 295 885 253 842 q 419 928 338 928 z "},"ē":{"ha":822,"x_min":111,"x_max":711,"o":"m 169 299 l 169 242 q 211 99 169 140 q 354 58 253 58 l 468 58 q 604 84 563 58 q 651 172 646 110 q 682 201 654 201 q 703 193 696 201 q 710 171 711 185 q 644 41 703 82 q 468 0 585 0 l 354 0 q 169 58 228 0 q 111 242 111 115 l 111 397 q 169 583 111 525 q 354 640 228 642 l 468 640 q 653 583 596 640 q 711 397 711 525 l 711 328 q 682 299 711 299 l 169 299 m 169 357 l 653 357 l 653 397 q 612 541 653 500 q 468 582 571 582 l 354 582 q 211 542 253 583 q 169 397 169 500 l 169 357 m 247 811 q 218 840 218 811 q 247 869 218 869 l 599 869 q 628 840 628 869 q 599 811 628 811 l 247 811 z "},"ę":{"ha":822,"x_min":111,"x_max":742,"o":"m 713 -125 q 733 -133 725 -125 q 742 -154 742 -142 q 733 -175 742 -167 q 674 -216 707 -201 q 610 -231 642 -231 q 523 -199 558 -231 q 488 -121 488 -168 q 518 -39 488 -78 l 553 7 q 468 0 511 0 l 354 0 q 169 58 228 0 q 111 242 111 115 l 111 397 q 169 583 111 525 q 354 640 228 642 l 468 640 q 653 583 596 640 q 711 397 711 525 l 711 328 q 682 299 711 299 l 169 299 l 169 242 q 211 99 169 140 q 354 58 253 58 l 468 58 q 565 68 528 58 q 622 99 601 78 l 629 108 q 632 111 632 111 q 651 172 647 133 q 682 201 654 201 q 702 194 694 201 q 710 174 710 188 q 679 76 710 122 l 676 72 l 565 -75 q 546 -121 546 -101 q 564 -158 546 -143 q 610 -172 582 -172 q 692 -133 653 -172 q 713 -125 700 -125 m 169 357 l 653 357 l 653 397 q 612 541 653 500 q 468 582 571 582 l 354 582 q 211 542 253 583 q 169 397 169 500 l 169 357 z "},"ẽ":{"ha":822,"x_min":111,"x_max":711,"o":"m 169 299 l 169 242 q 211 99 169 140 q 354 58 253 58 l 468 58 q 604 84 563 58 q 651 172 646 110 q 682 201 654 201 q 703 193 696 201 q 710 171 711 185 q 644 41 703 82 q 468 0 585 0 l 354 0 q 169 58 228 0 q 111 242 111 115 l 111 397 q 169 583 111 525 q 354 640 228 642 l 468 640 q 653 583 596 640 q 711 397 711 525 l 711 328 q 682 299 711 299 l 169 299 m 169 357 l 653 357 l 653 397 q 612 541 653 500 q 468 582 571 582 l 354 582 q 211 542 253 583 q 169 397 169 500 l 169 357 m 504 763 q 449 776 471 763 q 406 813 426 790 q 374 840 386 832 q 340 847 361 847 q 302 834 315 847 q 276 783 289 821 q 266 768 274 774 q 249 763 258 763 q 224 776 232 763 q 221 801 215 790 q 268 881 240 857 q 340 906 296 906 q 401 891 376 906 q 447 853 425 876 q 478 827 467 833 q 504 821 489 821 q 544 835 528 821 q 569 885 560 850 q 599 906 576 906 q 622 892 614 906 q 625 868 629 879 q 576 789 606 815 q 504 763 547 763 z "},"ə":{"ha":822,"x_min":111,"x_max":711,"o":"m 468 640 q 653 583 594 640 q 711 399 711 525 l 711 243 q 653 57 711 115 q 468 0 596 -1 l 354 0 q 169 58 228 0 q 111 243 111 117 l 111 313 q 140 342 111 342 l 653 342 l 653 399 q 611 541 653 500 q 468 582 569 582 l 354 582 q 218 556 260 582 q 171 468 176 531 q 140 439 169 439 q 119 447 126 439 q 113 469 111 456 q 178 599 119 558 q 354 640 238 640 l 468 640 m 653 283 l 169 283 l 169 243 q 211 100 169 142 q 354 58 253 58 l 468 58 q 612 99 571 57 q 653 243 653 140 l 653 283 z "},"f":{"ha":429,"x_min":42,"x_max":401,"o":"m 372 640 q 401 611 401 640 q 372 582 401 582 l 190 582 l 190 29 q 161 0 190 0 q 132 29 132 0 l 132 582 l 71 582 q 42 611 42 582 q 71 640 42 640 l 132 640 l 132 719 q 189 901 132 844 q 371 958 246 958 q 401 929 401 958 q 371 900 401 900 q 231 860 271 900 q 190 719 190 819 l 190 640 l 372 640 z "},"g":{"ha":824,"x_min":111,"x_max":711,"o":"m 682 640 q 711 611 711 640 l 711 -107 q 670 -237 711 -196 q 540 -278 629 -278 l 282 -278 q 159 -244 200 -278 q 113 -137 118 -210 l 113 -135 q 120 -114 113 -121 q 140 -107 128 -107 q 171 -136 169 -107 q 200 -201 175 -183 q 282 -219 225 -219 l 540 -219 q 629 -196 606 -219 q 653 -107 653 -172 l 653 104 q 407 0 593 0 l 354 0 q 169 58 228 0 q 111 242 111 115 l 111 397 q 169 583 111 525 q 354 640 228 642 l 468 640 q 585 621 542 640 q 653 561 629 601 l 653 611 q 682 640 653 640 m 407 58 q 588 97 524 58 q 653 210 653 135 l 653 426 q 609 546 653 510 q 468 582 565 582 l 354 582 q 211 542 253 583 q 169 397 169 500 l 169 242 q 211 99 169 140 q 354 58 253 58 l 407 58 z "},"ğ":{"ha":824,"x_min":111,"x_max":711,"o":"m 682 640 q 711 611 711 640 l 711 -107 q 670 -237 711 -196 q 540 -278 629 -278 l 282 -278 q 159 -244 200 -278 q 113 -137 118 -210 l 113 -135 q 120 -114 113 -121 q 140 -107 128 -107 q 171 -136 169 -107 q 200 -201 175 -183 q 282 -219 225 -219 l 540 -219 q 629 -196 606 -219 q 653 -107 653 -172 l 653 104 q 407 0 593 0 l 354 0 q 169 58 228 0 q 111 242 111 115 l 111 397 q 169 583 111 525 q 354 640 228 642 l 468 640 q 585 621 542 640 q 653 561 629 601 l 653 611 q 682 640 653 640 m 407 58 q 588 97 524 58 q 653 210 653 135 l 653 426 q 609 546 653 510 q 468 582 565 582 l 354 582 q 211 542 253 583 q 169 397 169 500 l 169 242 q 211 99 169 140 q 354 58 253 58 l 407 58 m 415 721 q 291 764 333 721 q 249 889 249 807 l 249 892 q 278 921 249 921 q 307 892 307 921 l 307 889 q 333 804 307 831 q 418 778 360 778 q 503 805 478 779 q 529 889 529 831 l 529 892 q 558 921 529 921 q 588 892 588 921 l 588 889 q 415 721 588 721 z "},"ǧ":{"ha":824,"x_min":111,"x_max":711,"o":"m 682 640 q 711 611 711 640 l 711 -107 q 670 -237 711 -196 q 540 -278 629 -278 l 282 -278 q 159 -244 200 -278 q 113 -137 118 -210 l 113 -135 q 120 -114 113 -121 q 140 -107 128 -107 q 171 -136 169 -107 q 200 -201 175 -183 q 282 -219 225 -219 l 540 -219 q 629 -196 606 -219 q 653 -107 653 -172 l 653 104 q 407 0 593 0 l 354 0 q 169 58 228 0 q 111 242 111 115 l 111 397 q 169 583 111 525 q 354 640 228 642 l 468 640 q 585 621 542 640 q 653 561 629 601 l 653 611 q 682 640 653 640 m 407 58 q 588 97 524 58 q 653 210 653 135 l 653 426 q 609 546 653 510 q 468 582 565 582 l 354 582 q 211 542 253 583 q 169 397 169 500 l 169 242 q 211 99 169 140 q 354 58 253 58 l 407 58 m 286 929 q 310 917 301 929 l 414 778 l 422 778 l 526 917 q 550 929 535 929 q 571 921 563 929 q 579 900 579 913 q 574 882 579 893 l 465 738 q 431 719 451 719 l 406 719 q 371 738 385 719 l 263 882 q 257 900 257 893 q 265 921 257 913 q 286 929 274 929 z "},"ĝ":{"ha":824,"x_min":111,"x_max":711,"o":"m 682 640 q 711 611 711 640 l 711 -107 q 670 -237 711 -196 q 540 -278 629 -278 l 282 -278 q 159 -244 200 -278 q 113 -137 118 -210 l 113 -135 q 120 -114 113 -121 q 140 -107 128 -107 q 171 -136 169 -107 q 200 -201 175 -183 q 282 -219 225 -219 l 540 -219 q 629 -196 606 -219 q 653 -107 653 -172 l 653 104 q 407 0 593 0 l 354 0 q 169 58 228 0 q 111 242 111 115 l 111 397 q 169 583 111 525 q 354 640 228 642 l 468 640 q 585 621 542 640 q 653 561 629 601 l 653 611 q 682 640 653 640 m 407 58 q 588 97 524 58 q 653 210 653 135 l 653 426 q 609 546 653 510 q 468 582 565 582 l 354 582 q 211 542 253 583 q 169 397 169 500 l 169 242 q 211 99 169 140 q 354 58 253 58 l 407 58 m 289 719 q 268 728 276 719 q 260 749 260 736 q 265 767 260 756 l 374 911 q 408 929 388 929 l 433 929 q 468 911 454 929 l 576 767 q 582 749 582 756 q 574 728 582 736 q 553 719 565 719 q 529 732 538 719 l 425 871 l 417 871 l 313 732 q 289 719 304 719 z "},"ģ":{"ha":824,"x_min":111,"x_max":711,"o":"m 682 640 q 711 611 711 640 l 711 -107 q 670 -237 711 -196 q 540 -278 629 -278 l 282 -278 q 159 -244 200 -278 q 113 -137 118 -210 l 113 -135 q 120 -114 113 -121 q 140 -107 128 -107 q 171 -136 169 -107 q 200 -201 175 -183 q 282 -219 225 -219 l 540 -219 q 629 -196 606 -219 q 653 -107 653 -172 l 653 104 q 407 0 593 0 l 354 0 q 169 58 228 0 q 111 242 111 115 l 111 397 q 169 583 111 525 q 354 640 228 642 l 468 640 q 585 621 542 640 q 653 561 629 601 l 653 611 q 682 640 653 640 m 407 58 q 588 97 524 58 q 653 210 653 135 l 653 426 q 609 546 653 510 q 468 582 565 582 l 354 582 q 211 542 253 583 q 169 397 169 500 l 169 242 q 211 99 169 140 q 354 58 253 58 l 407 58 m 428 908 q 446 901 439 908 q 451 882 453 894 l 426 738 q 399 708 426 708 l 379 708 q 359 717 367 708 q 351 739 351 725 l 351 761 q 360 786 351 778 l 406 890 q 428 908 414 908 z "},"ġ":{"ha":824,"x_min":111,"x_max":711,"o":"m 682 640 q 711 611 711 640 l 711 -107 q 670 -237 711 -196 q 540 -278 629 -278 l 282 -278 q 159 -244 200 -278 q 113 -137 118 -210 l 113 -135 q 120 -114 113 -121 q 140 -107 128 -107 q 171 -136 169 -107 q 200 -201 175 -183 q 282 -219 225 -219 l 540 -219 q 629 -196 606 -219 q 653 -107 653 -172 l 653 104 q 407 0 593 0 l 354 0 q 169 58 228 0 q 111 242 111 115 l 111 397 q 169 583 111 525 q 354 640 228 642 l 468 640 q 585 621 542 640 q 653 561 629 601 l 653 611 q 682 640 653 640 m 407 58 q 588 97 524 58 q 653 210 653 135 l 653 426 q 609 546 653 510 q 468 582 565 582 l 354 582 q 211 542 253 583 q 169 397 169 500 l 169 242 q 211 99 169 140 q 354 58 253 58 l 407 58 m 404 771 q 363 814 363 771 l 363 842 q 404 883 363 883 l 432 883 q 474 842 474 883 l 474 814 q 463 782 474 793 q 432 771 451 771 l 404 771 z "},"h":{"ha":824,"x_min":125,"x_max":711,"o":"m 468 642 q 653 584 596 642 q 711 399 711 526 l 711 29 q 682 0 711 0 q 653 29 653 0 l 653 399 q 612 542 653 501 q 468 583 571 583 l 429 583 q 185 432 203 583 l 183 424 l 183 29 q 154 0 183 0 q 125 29 125 0 l 125 929 q 154 958 125 958 q 183 929 183 958 l 183 532 q 429 642 247 642 l 468 642 z "},"ħ":{"ha":824,"x_min":0,"x_max":711,"o":"m 468 642 q 653 584 596 642 q 711 399 711 526 l 711 29 q 682 0 711 0 q 653 29 653 0 l 653 399 q 612 542 653 501 q 468 583 571 583 l 429 583 q 185 432 203 583 l 183 424 l 183 29 q 154 0 183 0 q 125 29 125 0 l 125 764 l 29 764 q 0 793 0 764 q 29 822 0 822 l 125 822 l 125 929 q 154 958 125 958 q 183 929 183 958 l 183 822 l 388 822 q 417 793 417 822 q 388 764 417 764 l 183 764 l 183 532 q 429 642 247 642 l 468 642 z "},"ĥ":{"ha":824,"x_min":0,"x_max":711,"o":"m 468 642 q 653 584 596 642 q 711 399 711 526 l 711 29 q 682 0 711 0 q 653 29 653 0 l 653 399 q 612 542 653 501 q 468 583 571 583 l 429 583 q 185 432 203 583 l 183 424 l 183 29 q 154 0 183 0 q 125 29 125 0 l 125 929 q 154 958 125 958 q 183 929 183 958 l 183 532 q 429 642 247 642 l 468 642 m 29 1014 q 8 1022 17 1014 q 0 1043 0 1031 q 6 1061 0 1050 l 114 1206 q 149 1224 128 1224 l 174 1224 q 208 1206 194 1224 l 317 1061 q 322 1043 322 1050 q 314 1022 322 1031 q 293 1014 306 1014 q 269 1026 278 1014 l 165 1165 l 157 1165 l 53 1026 q 29 1014 44 1014 z "},"i":{"ha":308,"x_min":99,"x_max":210,"o":"m 154 0 q 125 29 125 0 l 125 611 q 154 640 125 640 q 183 611 183 640 l 183 29 q 154 0 183 0 m 140 771 q 99 814 99 771 l 99 842 q 140 883 99 883 l 168 883 q 210 842 210 883 l 210 814 q 199 782 210 793 q 168 771 188 771 l 140 771 z "},"ı":{"ha":308,"x_min":125,"x_max":183,"o":"m 154 0 q 125 29 125 0 l 125 611 q 154 640 125 640 q 183 611 183 640 l 183 29 q 154 0 183 0 z "},"í":{"ha":308,"x_min":104,"x_max":289,"o":"m 154 0 q 125 29 125 0 l 125 611 q 154 640 125 640 q 183 611 183 640 l 183 29 q 154 0 183 0 m 115 726 q 104 749 104 736 q 111 768 104 760 l 236 915 q 258 928 246 928 q 278 919 269 928 q 289 897 289 910 q 282 878 289 886 l 157 731 q 135 718 146 718 q 115 726 124 718 z "},"ĭ":{"ha":308,"x_min":-15,"x_max":324,"o":"m 154 0 q 125 29 125 0 l 125 611 q 154 640 125 640 q 183 611 183 640 l 183 29 q 154 0 183 0 m 151 721 q 27 764 69 721 q -15 889 -15 807 l -15 892 q 14 921 -15 921 q 43 892 43 921 l 43 889 q 69 804 43 831 q 154 778 96 778 q 240 805 214 779 q 265 889 265 831 l 265 892 q 294 921 265 921 q 324 892 324 921 l 324 889 q 151 721 324 721 z "},"î":{"ha":308,"x_min":-4,"x_max":318,"o":"m 154 0 q 125 29 125 0 l 125 611 q 154 640 125 640 q 183 611 183 640 l 183 29 q 154 0 183 0 m 25 719 q 4 728 13 719 q -4 749 -4 736 q 1 767 -4 756 l 110 911 q 144 929 124 929 l 169 929 q 204 911 190 929 l 313 767 q 318 749 318 756 q 310 728 318 736 q 289 719 301 719 q 265 732 274 719 l 161 871 l 153 871 l 49 732 q 25 719 40 719 z "},"ȉ":{"ha":308,"x_min":-68,"x_max":253,"o":"m 89 739 q 71 731 81 731 q 51 742 63 731 l -61 875 q -68 893 -68 885 q -57 913 -68 904 q -40 919 -50 919 q -19 908 -26 919 l 93 776 q 100 758 100 767 q 89 739 100 750 m 242 739 q 224 731 233 731 q 204 742 215 731 l 92 875 q 85 893 85 885 q 96 913 85 904 q 113 919 103 919 q 133 908 126 919 l 246 776 q 253 758 253 767 q 242 739 253 750 m 154 0 q 125 29 125 0 l 125 611 q 154 640 125 640 q 183 611 183 640 l 183 29 q 154 0 183 0 z "},"ï":{"ha":308,"x_min":8,"x_max":300,"o":"m 154 0 q 125 29 125 0 l 125 611 q 154 640 125 640 q 183 611 183 640 l 183 29 q 154 0 183 0 m 43 763 q 8 799 8 763 l 8 822 q 43 857 8 857 l 67 857 q 101 822 101 857 l 101 799 q 67 763 101 763 l 43 763 m 242 763 q 207 799 207 763 l 207 822 q 242 857 207 857 l 265 857 q 300 822 300 857 l 300 799 q 265 763 300 763 l 242 763 z "},"ị":{"ha":308,"x_min":99,"x_max":210,"o":"m 154 0 q 125 29 125 0 l 125 611 q 154 640 125 640 q 183 611 183 640 l 183 29 q 154 0 183 0 m 140 771 q 99 814 99 771 l 99 842 q 140 883 99 883 l 168 883 q 210 842 210 883 l 210 814 q 199 782 210 793 q 168 771 188 771 l 140 771 m 142 -208 q 107 -172 107 -208 l 107 -149 q 142 -114 107 -114 l 165 -114 q 200 -149 200 -114 l 200 -172 q 165 -208 200 -208 l 142 -208 z "},"ì":{"ha":308,"x_min":19,"x_max":204,"o":"m 154 0 q 125 29 125 0 l 125 611 q 154 640 125 640 q 183 611 183 640 l 183 29 q 154 0 183 0 m 193 726 q 174 718 185 718 q 151 731 161 718 l 26 878 q 19 897 19 886 q 31 919 19 910 q 50 928 39 928 q 72 915 61 928 l 197 768 q 204 749 204 760 q 193 726 204 736 z "},"ỉ":{"ha":308,"x_min":54,"x_max":285,"o":"m 154 0 q 125 29 125 0 l 125 611 q 154 640 125 640 q 183 611 183 640 l 183 29 q 154 0 183 0 m 154 719 q 125 749 125 719 q 143 808 125 788 q 190 847 161 829 q 219 869 213 861 q 226 890 226 876 q 215 935 226 924 q 169 947 203 947 q 124 935 136 947 q 113 890 113 924 q 83 861 113 861 q 54 890 54 861 q 169 1006 54 1006 q 285 890 285 1006 q 267 835 285 854 q 221 797 250 815 q 190 773 197 782 q 183 749 183 764 q 154 719 183 719 z "},"ȋ":{"ha":308,"x_min":13,"x_max":296,"o":"m 154 0 q 125 29 125 0 l 125 611 q 154 640 125 640 q 183 611 183 640 l 183 29 q 154 0 183 0 m 154 879 q 260 843 225 879 q 296 736 296 807 q 267 707 296 707 q 244 713 251 707 q 238 736 238 719 q 219 801 238 781 q 154 821 201 821 q 90 801 108 821 q 71 736 71 782 q 42 707 71 707 q 13 736 13 707 q 47 842 13 804 q 154 879 82 879 z "},"ī":{"ha":308,"x_min":25,"x_max":282,"o":"m 154 0 q 125 29 125 0 l 125 611 q 154 640 125 640 q 183 611 183 640 l 183 29 q 154 0 183 0 m 54 807 q 25 836 25 807 q 54 865 25 865 l 253 865 q 282 836 282 865 q 253 807 282 807 l 54 807 z "},"į":{"ha":308,"x_min":31,"x_max":285,"o":"m 140 771 q 99 814 99 771 l 99 842 q 140 883 99 883 l 168 883 q 210 842 210 883 l 210 814 q 199 782 210 793 q 168 771 188 771 l 140 771 m 256 -128 q 276 -136 268 -128 q 285 -157 285 -144 q 276 -178 285 -169 q 217 -219 250 -204 q 153 -233 185 -233 q 66 -202 101 -233 q 31 -124 31 -171 q 61 -42 31 -81 l 125 42 l 125 611 q 154 640 125 640 q 183 611 183 640 l 183 29 q 171 3 183 10 l 108 -78 q 89 -124 89 -104 q 107 -160 89 -146 q 153 -175 125 -175 q 235 -136 196 -175 q 256 -128 243 -128 z "},"ĩ":{"ha":308,"x_min":-14,"x_max":322,"o":"m 154 0 q 125 29 125 0 l 125 611 q 154 640 125 640 q 183 611 183 640 l 183 29 q 154 0 183 0 m 218 764 q 174 776 190 764 q 135 814 157 789 q 94 844 113 844 q 69 833 78 844 q 43 785 60 821 q 15 764 33 764 q -10 778 -1 764 q -12 803 -18 792 q 35 879 11 856 q 94 903 58 903 q 140 890 122 903 q 176 853 158 876 q 199 830 189 838 q 218 822 208 822 q 244 835 233 822 q 265 882 254 849 q 293 903 272 903 q 317 890 310 903 q 321 864 325 876 q 281 790 307 817 q 218 764 254 764 z "},"j":{"ha":308,"x_min":-31,"x_max":210,"o":"m -31 -249 q -22 -227 -31 -235 q 1 -219 -12 -219 q 98 -192 71 -219 q 125 -96 125 -165 l 125 611 q 154 640 125 640 q 183 611 183 640 l 183 -96 q 140 -234 183 -190 q 1 -278 96 -278 q -22 -270 -12 -278 q -31 -249 -31 -262 m 140 771 q 99 814 99 771 l 99 842 q 140 883 99 883 l 168 883 q 210 842 210 883 l 210 814 q 199 782 210 793 q 168 771 188 771 l 140 771 z "},"ȷ":{"ha":308,"x_min":-31,"x_max":183,"o":"m -31 -249 q -22 -227 -31 -235 q 1 -219 -12 -219 q 98 -192 71 -219 q 125 -96 125 -165 l 125 611 q 154 640 125 640 q 183 611 183 640 l 183 -96 q 140 -234 183 -190 q 1 -278 96 -278 q -22 -270 -12 -278 q -31 -249 -31 -262 z "},"ĵ":{"ha":308,"x_min":-31,"x_max":318,"o":"m -31 -249 q -22 -227 -31 -235 q 1 -219 -12 -219 q 98 -192 71 -219 q 125 -96 125 -165 l 125 611 q 154 640 125 640 q 183 611 183 640 l 183 -96 q 140 -234 183 -190 q 1 -278 96 -278 q -22 -270 -12 -278 q -31 -249 -31 -262 m 25 719 q 4 728 13 719 q -4 749 -4 736 q 1 767 -4 756 l 110 911 q 144 929 124 929 l 169 929 q 204 911 190 929 l 313 767 q 318 749 318 756 q 310 728 318 736 q 289 719 301 719 q 265 732 274 719 l 161 871 l 153 871 l 49 732 q 25 719 40 719 z "},"k":{"ha":651,"x_min":125,"x_max":624,"o":"m 614 50 q 624 29 624 38 q 611 8 624 19 q 592 0 601 0 q 571 11 582 0 l 281 339 l 279 340 l 183 258 l 183 29 q 154 0 183 0 q 125 29 125 0 l 125 929 q 154 958 125 958 q 183 929 183 958 l 183 335 l 543 643 q 563 651 554 651 q 583 640 572 651 q 592 621 592 631 q 581 599 592 610 l 324 379 l 325 378 l 614 50 z "},"ķ":{"ha":651,"x_min":125,"x_max":624,"o":"m 614 50 q 624 29 624 38 q 611 8 624 19 q 592 0 601 0 q 571 11 582 0 l 281 339 l 279 340 l 183 258 l 183 29 q 154 0 183 0 q 125 29 125 0 l 125 929 q 154 958 125 958 q 183 929 183 958 l 183 335 l 543 643 q 563 651 554 651 q 583 640 572 651 q 592 621 592 631 q 581 599 592 610 l 324 379 l 325 378 l 614 50 m 382 -121 q 374 -146 382 -137 l 328 -250 q 306 -268 319 -268 q 288 -261 294 -268 q 282 -242 281 -254 l 307 -97 q 335 -68 307 -68 l 354 -68 q 374 -76 367 -68 q 382 -99 382 -85 l 382 -121 z "},"ĸ":{"ha":651,"x_min":125,"x_max":624,"o":"m 614 50 q 624 29 624 38 q 611 8 624 19 q 592 0 601 0 q 571 11 582 0 l 281 339 l 279 340 l 183 258 l 183 29 q 154 0 183 0 q 125 29 125 0 l 125 611 q 154 640 125 640 q 183 611 183 640 l 183 335 l 543 643 q 563 651 554 651 q 583 640 572 651 q 592 621 592 631 q 581 599 592 610 l 324 379 l 325 378 l 614 50 z "},"l":{"ha":381,"x_min":125,"x_max":339,"o":"m 310 0 q 169 44 214 0 q 125 182 125 88 l 125 929 q 154 958 125 958 q 183 929 183 958 l 183 182 q 210 85 183 111 q 308 58 238 58 q 339 29 339 58 q 310 0 339 0 z "},"ĺ":{"ha":381,"x_min":125,"x_max":339,"o":"m 310 0 q 169 44 214 0 q 125 182 125 88 l 125 929 q 154 958 125 958 q 183 929 183 958 l 183 182 q 210 85 183 111 q 308 58 238 58 q 339 29 339 58 q 310 0 339 0 m 136 1044 q 125 1067 125 1054 q 132 1086 125 1078 l 257 1233 q 279 1246 267 1246 q 299 1238 290 1246 q 310 1215 310 1228 q 303 1196 310 1204 l 178 1049 q 156 1036 167 1036 q 136 1044 144 1036 z "},"ľ":{"ha":432,"x_min":125,"x_max":389,"o":"m 310 0 q 169 44 214 0 q 125 182 125 88 l 125 929 q 154 958 125 958 q 183 929 183 958 l 183 182 q 210 85 183 111 q 308 58 238 58 q 339 29 339 58 q 310 0 339 0 m 389 907 q 382 883 389 893 l 338 781 q 315 763 329 763 q 299 769 306 763 q 293 788 292 776 l 317 929 q 344 958 317 958 l 363 958 q 389 928 389 958 l 389 907 z "},"ļ":{"ha":381,"x_min":125,"x_max":339,"o":"m 310 0 q 169 44 214 0 q 125 182 125 88 l 125 929 q 154 958 125 958 q 183 929 183 958 l 183 182 q 210 85 183 111 q 308 58 238 58 q 339 29 339 58 q 310 0 339 0 m 306 -121 q 297 -146 306 -137 l 251 -250 q 229 -268 243 -268 q 211 -261 218 -268 q 206 -242 204 -254 l 231 -97 q 258 -68 231 -68 l 278 -68 q 298 -76 290 -68 q 306 -99 306 -85 l 306 -121 z "},"ŀ":{"ha":485,"x_min":125,"x_max":415,"o":"m 310 0 q 169 44 214 0 q 125 182 125 88 l 125 929 q 154 958 125 958 q 183 929 183 958 l 183 182 q 210 85 183 111 q 308 58 238 58 q 339 29 339 58 q 310 0 339 0 m 357 458 q 322 494 322 458 l 322 518 q 357 553 322 553 l 381 553 q 415 518 415 553 l 415 494 q 381 458 415 458 l 357 458 z "},"ǉ":{"ha":664,"x_min":125,"x_max":565,"o":"m 310 0 q 169 44 214 0 q 125 182 125 88 l 125 929 q 154 958 125 958 q 183 929 183 958 l 183 182 q 210 85 183 111 q 308 58 238 58 q 339 29 339 58 q 310 0 339 0 m 325 -249 q 334 -227 325 -235 q 357 -219 343 -219 q 453 -192 426 -219 q 481 -96 481 -165 l 481 611 q 510 640 481 640 q 539 611 539 640 l 539 -96 q 495 -234 539 -190 q 357 -278 451 -278 q 334 -270 343 -278 q 325 -249 325 -262 m 496 771 q 454 814 454 771 l 454 842 q 496 883 454 883 l 524 883 q 565 842 565 883 l 565 814 q 554 782 565 793 q 524 771 543 771 l 496 771 z "},"ł":{"ha":378,"x_min":-10,"x_max":339,"o":"m 308 58 q 339 29 339 58 q 310 0 339 0 q 169 44 214 0 q 125 182 125 88 l 125 406 l 38 340 q 19 335 31 335 q -1 343 7 335 q -10 364 -10 351 q 3 388 -10 379 l 125 479 l 125 929 q 154 958 125 958 q 183 929 183 958 l 183 524 l 275 592 q 293 597 282 597 q 314 589 306 597 q 322 568 322 581 q 310 544 322 556 l 183 450 l 183 182 q 210 85 183 111 q 308 58 238 58 z "},"m":{"ha":1157,"x_min":125,"x_max":1044,"o":"m 849 642 q 999 587 954 642 q 1044 404 1044 532 l 1044 28 q 1015 -1 1044 -1 q 986 28 986 -1 l 986 404 q 954 542 986 500 q 849 583 922 583 l 790 583 q 655 542 696 583 q 614 404 614 500 l 614 28 q 585 -1 614 -1 q 556 28 556 -1 l 556 404 q 524 542 556 500 q 418 583 492 583 l 360 583 q 224 542 265 583 q 183 404 183 500 l 183 28 q 154 -1 183 -1 q 125 28 125 -1 l 125 611 q 154 640 125 640 q 183 611 183 640 l 183 550 q 253 620 211 599 q 360 642 294 642 l 418 642 q 529 616 488 642 q 597 532 571 590 q 669 616 624 590 q 790 642 715 642 l 849 642 z "},"n":{"ha":824,"x_min":125,"x_max":711,"o":"m 468 640 q 653 583 596 640 q 711 397 711 525 l 711 29 q 682 0 711 0 q 653 29 653 0 l 653 397 q 612 541 653 500 q 468 582 571 582 l 429 582 q 185 431 203 582 l 183 422 l 183 29 q 154 0 183 0 q 125 29 125 0 l 125 611 q 154 640 125 640 q 183 611 183 640 l 183 531 q 429 640 247 640 l 468 640 z "},"ń":{"ha":824,"x_min":125,"x_max":711,"o":"m 468 640 q 653 583 596 640 q 711 397 711 525 l 711 29 q 682 0 711 0 q 653 29 653 0 l 653 397 q 612 541 653 500 q 468 582 571 582 l 429 582 q 185 431 203 582 l 183 422 l 183 29 q 154 0 183 0 q 125 29 125 0 l 125 611 q 154 640 125 640 q 183 611 183 640 l 183 531 q 429 640 247 640 l 468 640 m 408 726 q 397 749 397 736 q 404 768 397 760 l 529 915 q 551 928 539 928 q 571 919 563 928 q 582 897 582 910 q 575 878 582 886 l 450 731 q 428 718 439 718 q 408 726 417 718 z "},"ň":{"ha":824,"x_min":125,"x_max":711,"o":"m 468 640 q 653 583 596 640 q 711 397 711 525 l 711 29 q 682 0 711 0 q 653 29 653 0 l 653 397 q 612 541 653 500 q 468 582 571 582 l 429 582 q 185 431 203 582 l 183 422 l 183 29 q 154 0 183 0 q 125 29 125 0 l 125 611 q 154 640 125 640 q 183 611 183 640 l 183 531 q 429 640 247 640 l 468 640 m 315 929 q 339 917 331 929 l 443 778 l 451 778 l 556 917 q 579 929 564 929 q 600 921 592 929 q 608 900 608 913 q 603 882 608 893 l 494 738 q 460 719 481 719 l 435 719 q 400 738 414 719 l 292 882 q 286 900 286 893 q 294 921 286 913 q 315 929 303 929 z "},"ņ":{"ha":824,"x_min":125,"x_max":711,"o":"m 468 640 q 653 583 596 640 q 711 397 711 525 l 711 29 q 682 0 711 0 q 653 29 653 0 l 653 397 q 612 541 653 500 q 468 582 571 582 l 429 582 q 185 431 203 582 l 183 422 l 183 29 q 154 0 183 0 q 125 29 125 0 l 125 611 q 154 640 125 640 q 183 611 183 640 l 183 531 q 429 640 247 640 l 468 640 m 519 -121 q 511 -146 519 -137 l 465 -250 q 443 -268 457 -268 q 425 -261 432 -268 q 419 -242 418 -254 l 444 -97 q 472 -68 444 -68 l 492 -68 q 512 -76 504 -68 q 519 -99 519 -85 l 519 -121 z "},"ŋ":{"ha":822,"x_min":125,"x_max":711,"o":"m 468 640 q 653 583 596 640 q 711 397 711 525 l 711 -110 q 670 -240 711 -199 q 540 -282 629 -282 l 407 -282 q 277 -240 318 -282 q 236 -110 236 -199 q 265 -81 236 -81 q 294 -110 294 -81 q 319 -199 294 -175 q 407 -224 343 -224 l 540 -224 q 628 -199 604 -224 q 653 -110 653 -175 l 653 397 q 612 541 653 500 q 468 582 571 582 l 429 582 q 185 431 203 582 l 183 422 l 183 29 q 154 0 183 0 q 125 29 125 0 l 125 611 q 154 640 125 640 q 183 611 183 640 l 183 531 q 429 640 247 640 l 468 640 z "},"ǌ":{"ha":1108,"x_min":125,"x_max":1010,"o":"m 468 640 q 653 583 596 640 q 711 397 711 525 l 711 29 q 682 0 711 0 q 653 29 653 0 l 653 397 q 612 541 653 500 q 468 582 571 582 l 429 582 q 185 431 203 582 l 183 422 l 183 29 q 154 0 183 0 q 125 29 125 0 l 125 611 q 154 640 125 640 q 183 611 183 640 l 183 531 q 429 640 247 640 l 468 640 m 769 -249 q 778 -227 769 -235 q 801 -219 788 -219 q 898 -192 871 -219 q 925 -96 925 -165 l 925 611 q 954 640 925 640 q 983 611 983 640 l 983 -96 q 940 -234 983 -190 q 801 -278 896 -278 q 778 -270 788 -278 q 769 -249 769 -262 m 940 771 q 899 814 899 771 l 899 842 q 940 883 899 883 l 968 883 q 1010 842 1010 883 l 1010 814 q 999 782 1010 793 q 968 771 988 771 l 940 771 z "}}}
